<svg width="250" height="180" viewBox="0 0 250 180" fill="none" xmlns="http://www.w3.org/2000/svg">
<path d="M215.762 95.3636C215.762 96.2892 215.189 96.9576 214.413 96.9576C213.64 96.9576 213.064 96.2892 213.064 95.3636C213.064 94.4398 213.64 93.7697 214.415 93.7697C215.191 93.7697 215.762 94.4398 215.762 95.3636ZM216 95.3636C216 95.1205 215.959 94.8798 215.879 94.6551C215.8 94.4305 215.683 94.2264 215.536 94.0544C215.388 93.8824 215.214 93.746 215.021 93.6528C214.829 93.5597 214.622 93.5117 214.414 93.5116C214.206 93.5114 213.999 93.5592 213.807 93.6521C213.614 93.745 213.439 93.8813 213.292 94.0531C213.144 94.2249 213.027 94.4289 212.948 94.6535C212.868 94.878 212.827 95.1187 212.827 95.3618C212.826 95.8528 212.993 96.3237 213.291 96.671C213.588 97.0184 213.992 97.2136 214.412 97.2139C214.833 97.2141 215.237 97.0193 215.535 96.6723C215.832 96.3253 216 95.8546 216 95.3636Z" fill="#231F20"/>
<path d="M214.588 95.0181C214.588 95.2427 214.414 95.2681 214.245 95.2681H214.096V94.7666H214.316C214.516 94.7666 214.588 94.8699 214.588 95.0181ZM214.942 96.1558L214.598 95.6363C214.552 95.5569 214.494 95.4862 214.426 95.4268C214.675 95.3923 214.817 95.2471 214.817 95.0181C214.817 94.7831 214.663 94.5691 214.367 94.5691H213.884V96.1558H214.096V95.4462C214.212 95.4462 214.256 95.4852 214.328 95.6004L214.684 96.1543H214.942V96.1558Z" fill="#231F20"/>
<path d="M80.1932 82.9803L77.1817 90.1244H83.2312L80.1932 82.9803ZM89.4051 97.2131H86.1432L84.3605 92.9045H76.0509L74.2433 97.2131H71.0809L78.8135 79.2312H81.6725L89.4051 97.2131ZM117.895 97.2136H114.781V82.2664H109.208V79.3582H123.718L122.521 82.2664H117.895V97.2136ZM177.01 82.266H167.599V86.8069H173.627V89.6156H167.599V94.3604H177.015V97.2133H164.491V79.3578H177.01V82.266ZM199.075 97.2139H196.131V79.3584H199.075V97.2139Z" fill="#0E0D0F"/>
<path d="M186.272 82.0396C184.481 82.0396 182.958 82.5766 182.95 83.7553C182.94 85.1357 183.815 85.6142 187.114 86.6776C190.759 87.8655 192.695 89.0735 192.675 92.0127C192.657 95.3257 190.073 97.2139 186.3 97.2139C183.63 97.2139 181.236 96.3567 179.41 94.7656L180.546 92.0388C182.203 93.4145 184.21 94.3901 186.379 94.3994C188.278 94.4086 189.629 93.4915 189.629 92.1373C189.629 91.0032 188.968 90.2492 185.768 89.2443C182.097 88.0517 179.88 86.8084 179.899 83.8461C179.921 80.8993 182.709 79.2235 186.215 79.2404C189.724 79.2558 191.697 80.5284 191.997 80.7008L190.894 83.1783C190.18 82.7967 188.609 82.0396 186.272 82.0396ZM202.558 87.9456L210.409 79.5297H206.647L198.769 87.9471L207.427 96.9184H211.24L202.558 87.9456ZM133.054 94.4086C129.607 94.4086 127.092 91.6403 127.092 88.2241C127.092 84.8079 129.607 82.038 133.054 82.038C136.5 82.038 139.019 84.8079 139.019 88.2241C139.019 91.6403 136.5 94.4101 133.054 94.4101M133.054 79.2312C131.862 79.2314 130.683 79.4642 129.582 79.9162C128.481 80.3683 127.481 81.0307 126.639 81.8658C124.938 83.5523 123.983 85.8394 123.983 88.2241C123.984 90.6087 124.94 92.8955 126.641 94.5815C128.343 96.2674 130.651 97.2143 133.057 97.2139C135.463 97.2135 137.77 96.2658 139.471 94.5793C141.172 92.8928 142.127 90.6056 142.127 88.221C142.127 85.8363 141.17 83.5495 139.469 81.8636C137.767 80.1777 135.46 79.2308 133.054 79.2312ZM152.026 94.1332L148.483 94.1362V82.3642H152.039C155.486 82.3642 157.99 84.7848 157.99 88.1995C157.99 91.6156 155.47 94.1332 152.026 94.1332ZM152.026 79.5313H145.372V96.9153H152.026C157.034 96.9153 161.094 93.1637 161.094 88.1995C161.094 83.2337 157.034 79.5313 152.026 79.5313ZM105.683 89.212C105.683 94.3947 102.615 97.1892 98.1649 97.1892C93.7166 97.1892 90.6503 94.3947 90.6503 89.212V79.5328H93.7555V89.5782C93.7555 92.6189 95.5565 94.404 98.1649 94.404C100.776 94.404 102.577 92.6189 102.577 89.5782V79.5313H105.683V89.212Z" fill="#0E0D0F"/>
<path d="M38.9814 104.618C38.1138 104.618 37.663 104.29 37.2302 103.528L33.2767 96.1793C33.0044 95.6527 33 95.4772 33 95.0979L39.2132 95.3726L40.6353 96.7984H53.0983L42.7502 103.226C42.2458 103.525 40.3274 104.618 38.9814 104.618Z" fill="url(#paint0_linear_212_83)"/>
<path d="M40.7034 97.2139H35.2852C33.6487 97.2139 33 96.3614 33 95.5112C33 94.9731 33.1738 94.6797 33.4143 94.0818L41.3104 75.309L41.3952 75.1442L41.5045 74.9752L41.7317 74.7547L42.0655 74.5771L42.5487 74.4711L43.3801 74.4925L48.867 76.5237L47.0117 82.3505L40.7034 97.2139Z" fill="url(#paint1_linear_212_83)"/>
<path d="M56.3198 104.618L44.2189 75.6773C44.0105 75.1846 43.6763 74.5488 42.8113 74.5488C42.0384 74.5488 41.6703 74.9267 41.4624 75.3331C41.5698 75.0401 41.8952 74.4708 42.8382 74.4708H51.1899C51.9595 74.4708 52.3287 74.9287 52.497 75.3479L64.7341 104.618H56.3198Z" fill="url(#paint2_linear_212_83)"/>
<defs>
<linearGradient id="paint0_linear_212_83" x1="35.4848" y1="99.9859" x2="39.2807" y2="99.2316" gradientUnits="userSpaceOnUse">
<stop stop-color="#2B7A77"/>
<stop offset="0.51" stop-color="#4EBAA9"/>
<stop offset="1" stop-color="#5CC2B1"/>
</linearGradient>
<linearGradient id="paint1_linear_212_83" x1="44.974" y1="76.9606" x2="43.0885" y2="81.4068" gradientUnits="userSpaceOnUse">
<stop stop-color="#236736"/>
<stop offset="0.493" stop-color="#6BA443"/>
<stop offset="1" stop-color="#86C146"/>
</linearGradient>
<linearGradient id="paint2_linear_212_83" x1="46.8805" y1="75.0322" x2="49.6372" y2="81.5303" gradientUnits="userSpaceOnUse">
<stop stop-color="#29A5E3"/>
<stop offset="0.515" stop-color="#356EB9"/>
<stop offset="1" stop-color="#394DA5"/>
</linearGradient>
</defs>
</svg>
