<svg width="250" height="180" viewBox="0 0 250 180" fill="none" xmlns="http://www.w3.org/2000/svg">
<path d="M136.22 103.071C136.22 103.336 136.304 103.49 136.458 103.49C136.584 103.476 136.696 103.42 136.794 103.35L180.428 75.1166C181.165 74.6028 182.048 74.3386 182.947 74.3628H192.536C194.006 74.3628 195 75.3399 195 76.8052V95.0603C195 97.2654 194.51 98.5494 192.55 99.7216L180.917 106.7C180.801 106.78 180.666 106.828 180.525 106.84C180.385 106.84 180.245 106.728 180.245 106.323V85.0255C180.245 84.7741 180.175 84.6067 180.008 84.6067C179.885 84.6208 179.768 84.6692 179.671 84.7463L147.783 105.402C147.055 105.89 146.201 106.156 145.333 106.142H124.195C122.711 106.142 121.731 105.165 121.731 103.685V77.3771C121.731 77.1819 121.647 77.0004 121.479 77.0004C121.356 77.0159 121.24 77.0641 121.143 77.1399L100.103 89.7286C99.8934 89.8681 99.8374 89.966 99.8374 90.0636C99.8374 90.1473 99.8792 90.231 100.019 90.3845L115.054 105.36C115.25 105.555 115.39 105.709 115.39 105.876C115.39 106.016 115.166 106.127 114.9 106.127H101.321C100.257 106.127 99.4313 105.974 98.8574 105.402L89.7441 96.3301C89.7096 96.2889 89.6669 96.2553 89.6188 96.2313C89.5707 96.2073 89.5181 96.1934 89.4643 96.1905C89.3655 96.1951 89.2694 96.2238 89.1843 96.2742L73.9543 105.402C73.0303 105.96 72.4003 106.114 71.4903 106.114H57.4781C55.98 106.128 55 105.137 55 103.671V85.7653C55 83.546 55.49 82.2759 57.4637 81.1037L69.1667 74.0976C69.2585 74.0377 69.3649 74.0039 69.4746 74C69.6567 74 69.7546 74.1816 69.7546 74.5861V98.5633C69.7546 98.8147 69.8106 98.9262 69.9925 98.9262C70.1185 98.9123 70.2306 98.8564 70.3425 98.7866L109.875 75.0746C110.63 74.5583 111.554 74.3072 112.478 74.3489H133.756C135.226 74.3489 136.22 75.326 136.22 76.7913L136.206 103.071H136.22Z" fill="#131E29"/>
</svg>
