<svg width="250" height="180" viewBox="0 0 250 180" fill="none" xmlns="http://www.w3.org/2000/svg">
<path d="M97.4254 124.849V138.699H91.3612V126.583C91.3612 126.583 91.1189 124.825 89.3359 124.825H86.1788V138.699H80.2846V124.825H74.9595V138.699H69V119.5H91.1189C97.3023 119.5 97.4254 124.849 97.4254 124.849ZM119.317 119.5H133.721L127.126 124.825H119.317V119.5ZM103.231 126.721H112.021V125.841C112.021 125.841 112.021 124.584 109.908 124.584H98.715V119.501H111.759C118.562 119.501 117.916 125.749 117.916 125.749V134.397L136.251 119.501H152.387C159.713 119.501 160.638 123.897 160.638 129.206C160.638 133.004 160.136 138.7 152.806 138.7H139.453L139.442 123.776L121.003 138.7L103.231 138.695C102.349 138.695 97.4286 139.009 97.4286 132.513C97.4292 126.333 102.35 126.721 103.231 126.721ZM145.571 133.374H150.703C153.981 133.374 154.673 132.264 154.673 129.247C154.673 126.222 153.98 124.825 150.703 124.825H145.571V133.374ZM105.037 133.895H111.917L111.92 131.081H105.041C104.475 131.081 103.373 131.081 103.373 132.452C103.373 133.842 104.471 133.895 105.037 133.895ZM137.713 133.374V138.699H123.514L129.966 133.374H137.713ZM166.299 126.721H175.093V125.841C175.093 125.841 175.093 124.584 172.975 124.584H161.783V119.501H174.831C181.626 119.501 180.984 125.749 180.984 125.749V138.695H166.299C165.419 138.695 160.498 139.009 160.498 132.513C160.498 126.333 165.419 126.721 166.299 126.721ZM168.106 133.895H174.982L174.99 131.081H168.11C167.544 131.081 166.44 131.081 166.44 132.452C166.439 133.842 167.54 133.895 168.106 133.895Z" fill="#397FC2"/>
<path d="M166.904 79.8419C166.797 80.4896 166.056 86.1048 163.043 91.1759C162.864 91.477 159.513 97.9921 152.349 101.77C151.388 102.277 146.838 104.727 139.428 106.144C138.234 106.371 130.737 107.867 121.677 107.415C120.436 107.356 111.438 107.088 104.607 104.91C103.443 104.539 96.5353 102.695 91.0243 96.8009C89.9477 95.6485 86.3161 91.8536 84.3548 85.4274C84.0935 84.567 82.5601 79.4316 82.6023 72.8008C82.6048 72.4322 82.4778 67.6878 83.7982 63.2326C83.9297 62.7923 83.0774 65.8209 84.0665 62.3299C85.0584 58.8393 87.7406 51.6961 95.6257 46.4393C96.5979 45.7909 101.942 42.4139 110.18 41.2249C111.265 41.0661 116.454 40.2998 125.867 40.2998C127.043 40.2998 135.94 40.2799 142.463 41.7166C144.376 42.1394 150.45 43.319 155.901 47.4227C156.54 47.9078 160.649 51.0176 163.311 56.232C163.891 57.3669 166.428 62.1662 167.211 69.5983C167.296 70.3971 167.728 74.8747 166.904 79.8419M147.663 50.6892C142.214 46.3155 135.408 45.4748 134.227 45.2698C127.145 44.036 119.792 44.8939 118.395 45.0226C110.488 45.7419 106.627 48.0211 106.03 48.3674C99.1971 52.3112 96.6362 56.7864 96.4724 57.0336C96.3057 57.2781 96.3282 57.4019 96.3479 57.5058C96.3679 57.6075 96.5121 57.6075 96.6784 57.7114C96.8423 57.8125 98.4137 58.6854 98.9481 58.9848C100.971 60.1123 104.173 61.4423 104.872 61.7144C109.806 63.6232 111.663 64.5479 112.759 65.1019C117.92 67.7105 120.359 71.0011 121.035 71.7747C122.131 73.026 124.565 76.8461 124.751 77.0934C124.937 77.3378 125.171 77.2514 125.33 76.9895C127.868 72.7812 129.943 70.5139 130.242 70.153C133.048 66.7655 138.356 64.4094 138.828 64.1996C140.812 63.3168 145.446 61.5266 146.137 61.2426C151.648 58.9851 153.607 57.3012 153.589 57.2592C152.033 54.1134 148.2 51.1197 147.663 50.6892ZM157.221 67.7713C157.139 66.9705 156.808 66.9705 156.808 66.9705C156.808 66.9705 156.684 67.0943 156.478 67.196C156.271 67.2999 154.609 68.1777 154.209 68.3655C152.64 69.1045 147.281 70.5957 146.694 70.7685C140.027 72.7392 137.735 74.0794 136.93 74.5466C132.08 77.3602 130.188 80.2976 129.725 80.8491C127.351 83.7022 126.297 87.7496 125.702 88.5484C125.085 89.3716 124.65 88.7757 124.483 88.5284C124.319 88.2812 123.501 86.251 123.347 85.8999C121.903 82.5743 120.061 80.4654 119.51 79.8426C116.536 76.4974 113.814 75.0485 112.718 74.4029C110.632 73.1715 105.875 71.8446 105.164 71.6708C103.635 71.3025 100.714 70.4002 99.9211 70.153C96.1425 68.9835 93.3559 67.2772 93.274 67.216C93.1896 67.1537 93.0254 67.1142 92.9435 67.2377C92.8616 67.3611 92.7768 67.893 92.7374 68.2442C92.6949 68.5929 92.5335 69.8019 92.4888 70.6646C92.1583 77.2563 93.0159 80.243 93.2519 81.3212C94.7607 88.1574 97.6021 91.8316 97.9376 92.3062C101.965 98.0124 107.933 99.9534 109.146 100.334C115.05 102.181 123.822 102.147 124.526 102.162C133.979 102.325 138.86 100.723 139.697 100.498C145.107 99.0388 148.969 95.6538 149.295 95.3646C152.496 92.5307 154.013 89.1737 154.312 88.5676C156.48 84.1743 157.051 79.8618 157.223 78.9196C158.191 73.6013 157.261 68.1595 157.221 67.7713" fill="#397FC2"/>
</svg>
