<svg width="250" height="180" viewBox="0 0 250 180" fill="none" xmlns="http://www.w3.org/2000/svg">
<path fill-rule="evenodd" clip-rule="evenodd" d="M125.756 124.257H55V55H195L125.756 124.257ZM124.257 68.8511H138.083C151.251 68.8511 157.438 73.3082 157.441 83.5412C157.441 92.7293 151.077 98.2082 140.312 98.2082H135.858L135.807 110.425L114.876 110.405L113.417 105.111C111.258 105.819 108.823 106.213 106.235 106.213C103.578 106.213 101.076 105.797 98.8748 105.046L96.7817 110.405L85.1158 110.442L85.6391 107.746C85.6093 107.772 85.5797 107.798 85.5502 107.824C85.4149 107.944 85.2808 108.062 85.1343 108.18C82.0162 110.688 78.0917 111.847 73.256 111.935L72.0063 111.944C66.4504 111.944 61.5609 110.63 56.9546 108.01L61.2131 99.5611C65.824 102.287 68.7174 102.901 72.622 102.818C74.6458 102.778 76.1079 102.408 77.0621 101.423C77.6208 100.843 77.9444 100.077 77.9701 99.2717C78.0086 97.077 74.8843 96.0459 71.0598 94.8608C67.9587 93.9005 64.4389 92.5923 61.6871 90.5762C58.4305 88.1799 56.8807 85.1818 56.9576 80.9526C57.0038 77.8791 58.1427 75.0996 60.2543 72.9142C63.2831 69.7822 68.1695 67.8815 74.0379 67.8815H74.0686C79.1013 67.8861 85.239 69.3128 89.6775 71.5721L84.8911 79.9137C80.0232 77.5621 77.5761 77.3389 74.8058 77.1896C70.6766 76.9695 68.5989 78.4455 68.5681 80.0368C68.5281 81.976 72.4696 83.7305 76.1833 84.9233C81.8069 86.7101 88.9542 89.0956 90.0469 96.009L100.325 68.8403H112.263L124.303 101.371L124.257 68.8511ZM101.821 95.8766C103.233 96.3977 104.729 96.6594 106.235 96.6492C107.8 96.6492 109.271 96.3768 110.564 95.9151L106.27 82.0945H106.185L101.821 95.8766ZM135.855 88.7309H138.893H138.894C142.942 88.7309 146.171 87.3842 146.174 83.1057C146.174 78.9718 142.942 77.6236 138.894 77.6236H135.855V88.7309Z" fill="url(#paint0_linear_212_203)"/>
<defs>
<linearGradient id="paint0_linear_212_203" x1="125" y1="55" x2="125" y2="124.258" gradientUnits="userSpaceOnUse">
<stop stop-color="#00AEEF"/>
<stop offset="0.212" stop-color="#0097DC"/>
<stop offset="0.519" stop-color="#007CC5"/>
<stop offset="0.792" stop-color="#006CB8"/>
<stop offset="1" stop-color="#0066B3"/>
</linearGradient>
</defs>
</svg>
