<svg width="250" height="180" viewBox="0 0 250 180" fill="none" xmlns="http://www.w3.org/2000/svg">
<path d="M152.298 60.4469C152.658 63.061 156.648 66.5837 157.728 66.5014C158.45 66.5014 158.726 63.0885 158.726 60.4469C158.726 58.9329 158.81 57.7491 158.006 57.4739C156.731 60.0344 153.378 60.5573 152.298 60.4469ZM152.52 59.2905C155.4 59.2905 158.034 57.0071 158.034 54.9977C158.034 54.0616 157.59 53.2922 156.454 53.1549C156.648 53.4026 156.731 53.5955 156.731 54.0342C156.731 55.5487 154.405 57.228 151.882 57.228C150.966 57.228 150.69 57.8596 150.69 58.1897C150.691 58.9604 151.438 59.2905 152.52 59.2905ZM151.909 56.1815C151.523 56.1815 150.967 56.1815 150.664 55.5762C150.413 55.0807 150.497 54.2825 150.026 53.9243C150.497 54.0616 150.995 54.0616 151.383 54.0616C152.631 54.0616 153.823 53.2098 154.736 53.2098C155.346 53.2098 155.538 53.5955 155.538 53.9793C155.538 55.1899 153.075 56.1815 151.909 56.1815ZM89.9272 77.7554C90.8678 77.7554 90.6724 72.0317 92.1974 72.0317C92.5587 72.0317 92.6693 72.3899 92.6693 72.8292C92.6693 74.1228 92.0315 76.0218 92.0315 77.0677C92.0315 77.59 92.1704 77.7554 92.4192 77.7554C93.0852 77.7554 94.2483 71.4538 95.385 71.4538C95.745 71.4538 95.9109 71.8114 95.9109 72.1696C95.9109 73.4894 94.2207 77.2874 94.2207 78.3595C94.2207 78.5249 94.2766 78.6621 94.4142 78.6621C95.1079 78.6621 96.494 75.6904 96.937 74.2052C97.1858 73.4345 97.5182 73.022 97.8223 73.022C98.0994 73.022 98.3489 73.3253 98.3489 73.9575C98.3489 75.4433 96.9646 78.9386 95.7444 81.2775C94.8019 83.0929 93.3341 85.7083 93.3341 87.1673C93.3341 87.9099 93.4736 88.68 94.5524 89.616C92.7792 89.5062 92.0598 89.3414 91.3937 87.9654C88.4286 93.8252 96.8528 93.2498 93.9712 98.45C93.4459 97.5146 89.2888 96.551 89.2888 91.1031C89.2888 86.3959 93.4459 83.6445 93.4459 81.6906C93.4459 81.3056 93.3064 80.9755 92.947 80.6734C92.0315 79.9027 92.0045 79.2693 91.2838 79.2693C90.7579 79.2693 90.1207 80.4806 90.7849 81.5527C91.0067 81.9103 91.2015 82.1312 91.2015 82.462C91.2015 83.2327 89.9831 85.2958 89.1235 85.2958C88.2646 85.2958 87.5992 83.1777 87.5992 79.7655C87.5992 76.7376 88.2916 73.6841 89.1512 73.6841C89.4 73.6841 89.4836 73.8489 89.4836 74.0692C89.4836 74.4267 89.3724 75.1407 89.3724 76.3526C89.3717 77.645 89.6771 77.7554 89.9272 77.7554ZM132.374 50.7036C132.818 50.7036 132.902 51.7782 132.984 52.411C133.04 52.7411 133.095 52.7692 133.234 52.7692C133.567 52.7692 134.093 51.5024 134.452 51.5024C134.981 51.5024 136.394 52.9621 138.748 52.9621C142.1 52.9621 145.26 50.6219 145.26 46.4944C145.26 42.5037 142.433 40.1641 138.526 40.1641C136.67 40.1641 135.312 41.0721 134.592 41.0721C134.149 41.0996 133.483 40 133.15 40C133.011 40 132.874 40.274 132.874 40.742C132.874 41.0447 132.874 42.0088 132.54 42.0088C131.876 42.0088 129.299 40.1086 129.299 40.7975C129.299 41.4309 131.017 43.358 131.017 43.8522C131.017 44.3484 129.327 44.8158 129.327 45.1459C129.327 45.7518 131.129 45.8617 131.129 46.6324C131.129 47.4018 129.243 48.0078 129.243 48.5862C129.243 49.0543 131.129 48.7235 131.129 49.302C131.129 49.8799 129.743 51.8051 129.743 52.3561C129.743 52.4946 129.77 52.4946 129.882 52.4946C130.407 52.494 131.988 50.7036 132.374 50.7036ZM96.8258 91.3777C96.7975 90.8273 97.1858 90.3037 97.767 90.2488C98.3489 90.1658 98.876 90.6064 98.9307 91.1843C98.9873 91.7627 98.5707 92.2589 97.9882 92.3406C97.4076 92.3693 96.8817 91.9556 96.8258 91.3777ZM93.7507 92.2308C93.8619 93.1669 94.7472 93.8801 95.745 93.7709C96.1051 93.7428 96.4387 93.633 96.6593 93.4945C96.8817 94.3762 97.5729 94.9267 98.5983 94.8162C99.6238 94.7344 100.345 93.8801 100.234 92.8642C100.234 92.5896 100.151 92.4242 100.068 92.2308L100.262 92.2033C101.231 92.0935 101.979 91.2123 101.895 90.2488C101.785 89.2572 100.872 88.542 99.9291 88.6244C99.5685 88.7074 99.2637 88.8166 99.0426 89.0095C98.7925 88.1851 98.0718 87.5242 97.0476 87.6347C96.0774 87.6896 95.3284 88.6244 95.4396 89.6422C95.4396 89.7808 95.4943 90.0011 95.5785 90.1933L95.3843 90.2201C94.4142 90.358 93.6671 91.1574 93.7507 92.2308ZM155.484 41.7611C155.483 41.8517 155.5 41.9416 155.535 42.0256C155.569 42.1096 155.62 42.1858 155.684 42.25C155.749 42.3141 155.826 42.3648 155.91 42.399C155.995 42.4333 156.085 42.4504 156.176 42.4494C156.564 42.4494 156.87 42.1473 156.87 41.7611C156.87 41.3754 156.565 41.0721 156.176 41.0721C155.788 41.0721 155.484 41.3754 155.484 41.7611ZM140.024 67.8487C140.024 68.4821 140.55 69.005 141.186 69.005C141.494 69.0032 141.789 68.8808 142.007 68.6643C142.225 68.4478 142.348 68.1547 142.35 67.8487C142.348 67.5428 142.224 67.2501 142.007 67.0338C141.789 66.8175 141.494 66.6951 141.186 66.6929C140.55 66.6929 140.024 67.2171 140.024 67.8487ZM140.106 71.3153C140.106 71.4851 140.139 71.6532 140.205 71.8102C140.27 71.9671 140.366 72.1097 140.486 72.2299C140.607 72.3501 140.751 72.4455 140.909 72.5106C141.066 72.5758 141.236 72.6094 141.407 72.6095C141.578 72.6097 141.747 72.5764 141.905 72.5116C142.063 72.4467 142.207 72.3516 142.328 72.2317C142.449 72.1117 142.545 71.9693 142.61 71.8125C142.676 71.6557 142.71 71.4875 142.71 71.3177C142.71 70.9748 142.573 70.6458 142.329 70.4031C142.085 70.1604 141.754 70.0238 141.409 70.0235C141.064 70.0231 140.733 70.1591 140.488 70.4013C140.244 70.6436 140.106 70.9723 140.106 71.3153ZM136.116 73.6548C136.117 74.1582 136.319 74.6407 136.677 74.9967C137.035 75.3526 137.521 75.5529 138.028 75.5538C138.535 75.5523 139.02 75.3517 139.378 74.9959C139.736 74.64 139.938 74.1579 139.939 73.6548C139.938 73.1518 139.736 72.6698 139.378 72.3142C139.02 71.9585 138.534 71.7582 138.028 71.7571C137.521 71.7576 137.035 71.9576 136.677 72.3134C136.319 72.6691 136.117 73.1515 136.116 73.6548ZM137.141 69.7757C137.141 70.3823 137.639 70.8772 138.249 70.8772C138.859 70.8772 139.359 70.3823 139.359 69.7757C139.359 69.1704 138.859 68.6749 138.249 68.6749C137.639 68.6749 137.141 69.1704 137.141 69.7757ZM133.51 71.9767C133.51 72.2689 133.626 72.549 133.834 72.7556C134.042 72.9621 134.325 73.0782 134.619 73.0782C134.913 73.0782 135.195 72.9621 135.403 72.7556C135.611 72.549 135.728 72.2689 135.728 71.9767C135.718 71.691 135.597 71.4202 135.39 71.2215C135.183 71.0228 134.907 70.9118 134.619 70.9118C134.331 70.9118 134.054 71.0228 133.847 71.2215C133.64 71.4202 133.519 71.691 133.51 71.9767ZM136.365 65.5378C136.368 66.004 136.556 66.4503 136.888 66.7801C137.22 67.1098 137.669 67.2964 138.139 67.2995C138.608 67.2962 139.057 67.1096 139.389 66.7799C139.721 66.4502 139.909 66.004 139.912 65.5378C139.909 65.0717 139.721 64.6255 139.389 64.2958C139.057 63.9662 138.608 63.7797 138.139 63.7768C137.669 63.7797 137.22 63.9662 136.888 64.2958C136.556 64.6255 136.368 65.0717 136.365 65.5378ZM138.444 62.1524C138.44 62.2918 138.465 62.4306 138.516 62.5605C138.568 62.6904 138.644 62.8087 138.742 62.9087C138.84 63.0086 138.958 63.088 139.087 63.1423C139.216 63.1966 139.355 63.2246 139.496 63.2247C139.636 63.2249 139.775 63.1971 139.905 63.143C140.034 63.089 140.152 63.0098 140.25 62.91C140.348 62.8103 140.425 62.692 140.477 62.5622C140.528 62.4324 140.553 62.2937 140.55 62.1543C140.543 61.8814 140.43 61.6218 140.233 61.431C140.036 61.2401 139.773 61.1332 139.498 61.1329C139.223 61.1327 138.959 61.2392 138.762 61.4297C138.565 61.6201 138.451 61.8795 138.444 62.1524ZM133.427 64.794C133.427 65.0715 133.538 65.3377 133.736 65.534C133.934 65.7302 134.202 65.8405 134.481 65.8405C134.761 65.8405 135.029 65.7302 135.226 65.534C135.424 65.3377 135.535 65.0715 135.535 64.794C135.535 64.2155 135.064 63.7493 134.48 63.7493C133.899 63.7493 133.427 64.2155 133.427 64.794ZM133.288 68.3716C133.288 69.3077 134.037 70.0516 134.981 70.0516C135.203 70.0527 135.423 70.01 135.629 69.926C135.835 69.8419 136.021 69.7182 136.178 69.562C136.335 69.4057 136.46 69.22 136.544 69.0157C136.628 68.8114 136.671 68.5924 136.67 68.3716C136.671 68.1509 136.628 67.9321 136.544 67.7279C136.46 67.5236 136.335 67.3381 136.178 67.1819C136.021 67.0258 135.834 66.9022 135.629 66.8182C135.423 66.7343 135.203 66.6917 134.981 66.6929C134.758 66.6915 134.538 66.7338 134.332 66.8177C134.126 66.9015 133.939 67.025 133.781 67.1812C133.624 67.3373 133.499 67.523 133.415 67.7273C133.33 67.9317 133.287 68.1507 133.288 68.3716ZM129.799 70.1339C129.799 70.9876 130.519 71.7022 131.378 71.7022C132.236 71.7022 132.957 70.9876 132.957 70.1339C132.957 69.2809 132.237 68.5651 131.378 68.5651C130.519 68.5651 129.799 69.2809 129.799 70.1339ZM130.74 66.2536C130.74 66.8589 131.239 67.3551 131.85 67.3551C132.143 67.3537 132.424 67.2372 132.632 67.0309C132.839 66.8246 132.956 66.5452 132.957 66.2536C132.957 65.6477 132.458 65.1522 131.85 65.1522C131.556 65.1528 131.274 65.2691 131.066 65.4755C130.858 65.6819 130.741 65.9616 130.74 66.2536ZM127.055 106.818C127.055 107.421 127.554 107.916 128.164 107.916C128.771 107.916 129.271 107.421 129.271 106.818C129.27 106.526 129.154 106.246 128.946 106.04C128.739 105.833 128.457 105.716 128.164 105.715C127.554 105.715 127.055 106.21 127.055 106.818ZM97.2424 61.2163C97.2424 61.8223 97.74 62.3178 98.3489 62.3178C98.6429 62.3171 98.9246 62.2009 99.1326 61.9945C99.3405 61.7881 99.4577 61.5083 99.4585 61.2163C99.4572 60.9247 99.3398 60.6454 99.1319 60.4394C98.924 60.2334 98.6425 60.1174 98.3489 60.1167C97.74 60.1167 97.2424 60.6122 97.2424 61.2163ZM95.8003 58.7401C95.8011 59.0321 95.9183 59.3118 96.1263 59.5182C96.3342 59.7246 96.616 59.8409 96.91 59.8415C97.5182 59.8415 98.0158 59.346 98.0158 58.7401C98.0158 58.1348 97.5182 57.6387 96.91 57.6387C96.616 57.6393 96.3342 57.7556 96.1263 57.962C95.9183 58.1684 95.8011 58.4481 95.8003 58.7401ZM96.9923 85.8181C98.1553 85.8181 99.1261 84.9644 99.1261 83.0667V80.2603C99.1261 79.1863 99.2078 77.9744 99.9291 77.1226C99.8462 77.4808 99.8462 77.8659 99.8462 78.2222C99.8462 80.5898 101.176 82.2136 101.176 84.4989C101.176 85.3507 100.927 85.8187 100.262 85.8187C99.6238 85.8187 99.6797 85.2408 99.5415 85.2408C99.4309 85.2408 99.2644 85.5984 99.2644 85.9828C99.2644 86.5619 99.6803 87.4699 100.845 87.4699C101.841 87.4699 102.645 86.5619 102.645 85.5429C102.645 83.0673 100.707 80.3159 100.707 77.6737C100.707 76.5173 101.009 75.7472 101.259 75.1407C101.259 80.6185 105.942 84.6093 105.942 86.8927C105.942 87.4156 105.555 87.8288 104.972 87.8288C104.336 87.8288 104.031 87.3333 104.031 86.9476C104.031 86.7542 104.003 86.6999 103.92 86.6999C103.754 86.6999 103.254 87.2503 103.254 87.966C103.254 88.8728 104.003 89.9742 105.388 89.9742C106.968 89.9742 107.828 88.6531 107.828 87.4699C107.828 84.5812 102.147 80.2042 102.147 75.5263C102.147 74.7275 102.285 73.4351 102.867 72.4448C99.2084 74.7825 98.073 77.8939 98.073 80.6179C98.073 82.9837 97.9895 84.1675 96.7711 84.1675C96.134 84.1675 95.9681 83.5896 95.7463 83.5896C95.5798 83.5896 95.4962 84.0857 95.4962 84.223C95.4943 85.2402 96.2433 85.8181 96.9923 85.8181ZM145.011 58.3276C146.229 58.3276 147.145 57.7766 147.145 57.4465C147.145 57.336 146.978 57.2555 146.617 57.2555C146.257 57.2555 145.535 57.228 144.178 57.0071C143.013 56.8149 142.126 56.375 141.794 56.375C141.682 56.375 141.628 56.4293 141.628 56.5116C141.629 57.2274 142.959 58.3276 145.011 58.3276ZM138.971 54.8323C139.33 54.612 140.88 54.9696 142.905 53.9786C143.125 53.8558 143.372 53.7899 143.623 53.787C144.596 53.787 144.345 54.8872 145.233 54.8872C145.926 54.8872 146.813 54.3094 147.339 54.3094C148.168 54.3094 149.361 56.8967 149.361 58.1073C149.361 59.5102 147.229 60.3639 144.706 60.3639C141.02 60.3639 138.804 57.1712 138.804 55.1069C138.804 54.9422 138.887 54.8872 138.971 54.8323ZM97.5722 96.1928C96.6586 96.4138 95.1902 97.8447 95.1902 100.103C95.1902 102.797 98.0994 106.955 102.894 106.955C106.94 106.955 107.935 104.174 107.935 102.302C107.935 98.148 105.359 95.2293 102.006 95.2293C100.177 95.2293 98.5424 96.551 98.5424 98.5049C98.5424 100.322 99.9279 103.045 103.225 103.045C104.776 103.045 105.691 101.943 105.691 100.677C105.691 99.4416 104.554 97.7342 102.892 97.7342C102.393 97.7342 102.033 98.0644 102.033 98.5879C102.033 99.2482 102.948 99.909 104.084 99.909C104.361 99.909 104.581 99.8541 104.693 99.7986C104.749 99.8816 104.776 100.019 104.776 100.129C104.776 100.76 104.168 101.145 103.225 101.145C101.812 101.145 100.454 100.102 100.454 98.4494C100.454 97.4584 101.312 96.742 102.561 96.742C105.025 96.742 106.495 98.9181 106.495 101.09C106.495 103.045 105.413 104.173 103.198 104.173C98.7648 104.174 96.604 100.212 97.5722 96.1928ZM94.8025 66.2811C94.1647 66.4464 92.8358 67.2171 92.8358 68.5919C92.8358 69.5835 93.6112 70.2169 94.5807 70.2169C95.0796 70.2169 95.4403 70.1059 95.6614 69.9411C94.8854 69.1985 94.6083 68.3723 94.6083 67.5479C94.6083 66.9694 94.6913 66.6112 94.8025 66.2811ZM88.0139 66.6661C87.9862 66.8034 87.9862 66.9413 87.9862 67.0786C87.9862 68.3716 88.6793 69.0874 89.5948 69.0874C90.2866 69.0874 91.0903 68.6743 91.8103 67.7657C91.4809 67.8215 91.1473 67.8491 90.8132 67.8481C89.7871 67.8487 88.6793 67.5747 88.0139 66.6661ZM87.045 69.1155C87.045 71.2067 87.6802 72.197 88.8182 72.197C89.7048 72.197 90.8961 71.5642 92.3099 70.3542C91.2285 70.602 90.3984 70.7667 89.6501 70.7667C88.6517 70.7667 87.875 70.3817 87.045 69.1155ZM129.216 112.32C130.546 112.32 130.462 112.21 130.879 112.21C131.295 112.21 131.321 112.457 131.321 112.622C131.321 113.229 129.963 113.971 127.554 113.971C126.139 113.971 125.281 113.229 125.033 112.402C123.645 113.283 121.541 114.081 119.464 114.081C113.783 114.081 112.341 111.631 110.569 110.832C109.211 110.227 107.133 111.41 104.224 108.19C104.611 108.273 105.137 108.3 105.554 108.3C108.103 108.3 109.461 107.064 109.461 105.082C109.461 104.835 109.433 104.558 109.406 104.312C110.182 104.614 111.955 105.936 112.37 108.273C112.426 108.548 113.562 108.796 114.283 108.796C115.28 108.796 116.554 108.383 116.749 106.761C120.074 106.487 122.316 104.531 122.788 102.054C123.98 102.44 125.336 103.513 125.669 104.064C126.139 103.898 126.694 103.816 127.332 103.816C128.219 103.816 129.216 103.982 130.408 104.34C130.463 103.982 130.519 103.541 131.074 103.541C131.905 103.541 131.683 104.45 131.96 104.973C132.099 105.248 132.791 105.412 132.791 105.964C132.791 106.488 132.347 106.679 132.071 106.679C131.96 106.679 131.821 106.652 131.738 106.625C131.184 106.818 131.156 110.779 128.828 110.779C127.11 110.779 125.53 109.375 124.84 107.614C124.645 107.092 124.229 106.762 123.841 106.762C123.396 106.762 123.148 106.846 122.622 107.421C121.127 109.045 118.634 110.449 115.558 110.449C114.616 110.449 113.868 110.367 113.673 110.367C113.562 110.367 113.562 110.394 113.562 110.422C113.562 110.615 114.505 111.357 116.555 111.357C121.431 111.357 122.622 108.632 123.397 108.632C123.51 108.632 123.841 108.632 124.036 109.073C125.172 111.715 127.638 112.321 129.189 112.321H129.216V112.32ZM113.478 57.0071C115.305 57.0071 116.138 58.5754 116.138 60.337C116.138 61.1071 115.917 62.2354 115.557 62.2354C115.196 62.2354 115.251 61.602 115.196 61.0235C115.141 60.2821 115.002 60.1167 114.754 60.1167C114.283 60.1167 113.978 61.2163 113.978 62.2354C113.978 62.8688 114.088 63.5839 114.587 63.5839C114.863 63.5839 115.113 63.446 115.28 63.2819C115.168 64.5468 114.227 65.6477 112.897 65.6477C110.458 65.6477 109.543 62.8132 109.266 61.162C107.8 62.7034 106.441 63.8317 104.002 63.8317C101.73 63.8317 100.706 62.1805 100.706 60.6122C100.706 60.1436 100.872 58.9329 101.452 58.9329C102.145 58.9329 101.535 61.1895 102.894 61.1895C103.226 61.1895 103.836 60.9143 104.169 60.0069C104.363 59.4565 104.472 58.878 104.472 58.3819C104.472 57.6387 104.307 57.1719 103.752 57.1719C103.28 57.1719 102.698 57.5295 102.505 57.721C103.17 55.7403 104.776 54.7219 106.55 54.7219C108.739 54.7219 109.903 56.6489 109.903 58.795C109.903 59.1087 109.875 59.4217 109.82 59.7305C110.764 58.1891 112.066 57.0071 113.478 57.0071ZM106.524 40.6047C106.524 40.4393 105.693 40.274 104.556 40.274C102.755 40.274 103.006 41.7611 101.62 41.7611C100.179 41.7611 100.539 40.2197 98.7108 40.2197C97.6011 40.2197 96.5776 40.4125 96.5776 40.6602C96.5776 40.9904 97.8789 40.8531 97.8789 41.7617C97.8789 42.7252 95.0809 43.001 95.0809 43.577C95.0809 43.7699 95.3027 43.8522 95.5798 43.8522C96.1893 43.8522 97.16 43.577 97.8506 43.577C98.2395 43.577 98.5996 43.6607 98.5996 44.0182C98.5996 44.7066 97.1047 45.9447 97.1047 46.4957C97.1047 46.6617 97.2436 46.7166 97.3818 46.7166C97.9348 46.7166 98.8779 45.3119 99.7645 45.3119C101.233 45.3119 100.264 48.4221 101.066 48.4221C101.897 48.4221 101.537 45.3674 102.729 45.3674C103.699 45.3674 104.421 47.4861 105.085 47.4861C105.25 47.4861 105.389 47.3488 105.389 47.1553C105.389 46.5787 104.557 45.3949 104.557 44.6236C104.557 44.1555 104.89 43.9352 105.334 43.9352C105.971 43.9352 106.831 44.3209 107.301 44.3209C107.468 44.3209 107.634 44.266 107.634 44.0731C107.634 43.4123 105.167 42.6978 105.167 41.8441C105.166 40.9897 106.524 40.9897 106.524 40.6047ZM146.009 94.7894C145.426 94.7894 142.21 99.056 140.134 99.056C139.635 99.056 139.219 98.1199 139.219 97.4047C139.219 97.0191 139.468 96.7426 140.357 96.5517C145.121 95.4777 144.067 91.9287 148.139 91.9287C150.385 91.9287 152.88 93.4439 152.88 96.855C152.88 100.486 147.672 105.001 146.895 105.001C146.258 105.001 145.565 104.092 145.565 103.487C145.565 103.294 145.649 103.047 146.203 102.826C148.861 101.779 150.386 99.3593 150.386 98.1205C150.386 97.8459 150.248 97.5701 149.887 97.5701C149.415 97.5701 147.395 102.137 145.15 102.137C143.596 102.137 142.017 100.733 142.017 100.075C142.017 98.9736 146.507 96.9361 146.507 95.3941C146.506 94.8162 146.23 94.7894 146.009 94.7894ZM149 93.0838C148.611 93.0838 148.195 93.3878 148.195 94.1279C148.195 94.9541 148.834 95.4771 149.194 95.6418C149.439 95.7798 149.715 95.8554 149.997 95.8621C150.801 95.8621 151.438 95.6418 151.438 94.981C151.438 94.1279 150.192 93.0838 149 93.0838ZM113.034 43.4117C113.034 43.9072 114.781 44.9811 115.584 44.9811C116.055 44.9811 116.194 44.3477 116.194 43.6862C116.194 42.8625 115.832 42.8338 115.112 42.8338C114.2 42.8338 113.034 43.0822 113.034 43.4117ZM115.917 48.8608C115.917 47.209 111.374 44.1543 111.374 42.9174C111.374 42.8625 111.374 42.8344 111.401 42.7795C111.734 41.8709 115.501 41.2375 115.501 40.4942C115.501 40.136 114.837 40.136 114.505 40.136C111.927 40.136 108.159 41.0721 108.159 41.9813C108.159 42.9174 111.54 45.2014 111.54 46.3303C111.54 46.6324 111.347 46.7434 111.042 46.7434C110.1 46.7434 108.048 45.6145 107.079 45.6145C106.635 45.6145 106.47 45.9166 106.47 46.3572C106.47 47.677 108.048 50.1826 108.048 50.9245C108.048 51.0069 108.02 51.1174 107.911 51.1174C107.412 51.1174 105.056 48.366 104.226 48.366C103.921 48.366 103.893 48.7791 103.893 49.3838V50.3198C103.893 50.952 103.865 51.337 103.56 51.337C102.84 51.337 102.507 49.3289 101.814 49.3289C101.093 49.3289 100.956 52.9071 100.263 52.9071C99.4598 52.9071 100.152 48.9707 99.3749 48.9707C98.5166 48.9707 97.5458 51.5854 96.9382 51.5854C96.7158 51.5854 96.6605 51.3651 96.6605 51.1717C96.6605 50.3754 97.1324 49.0811 97.1324 48.3104C97.1324 47.9248 97.0212 47.7051 96.6882 47.7051C95.8292 47.7051 93.9461 49.0817 93.2247 49.0817C93.1141 49.0817 92.9759 49.0268 92.9759 48.9157C92.9759 48.2549 95.9964 46.1643 95.9964 45.2283C95.9964 44.3196 91.8392 44.925 91.8392 43.8791C91.8392 42.9998 94.8038 42.0906 94.8038 41.1819C94.8038 40.3844 91.2844 40.0275 89.9285 40.0275C88.2922 40.0275 87.4057 40.219 87.4057 40.6871C87.4057 41.4022 91.1185 41.6231 91.1185 42.2559C91.1185 42.8625 87.2668 44.485 87.2668 45.4211C87.2668 46.2461 92.6982 45.4748 92.6982 46.3297C92.6982 47.2639 87.9592 51.309 87.9592 52.6588C87.9592 52.9621 88.1817 53.0994 88.4851 53.0994C89.9278 53.0994 93.6677 50.3754 94.6919 50.3754C95.052 50.3754 95.0802 50.8141 95.0802 51.1991C95.0802 51.9155 94.8314 53.0157 94.8314 53.8145C94.8314 54.4467 94.9967 54.8866 95.5521 54.8866C96.5769 54.8866 97.5188 53.1536 98.2113 53.1536C99.0991 53.1536 98.5713 58.2434 99.9028 58.2434C101.037 58.2434 101.508 52.7405 102.23 52.7405C102.951 52.7405 103.533 54.3356 104.197 54.3356C105.028 54.3356 104.64 51.5561 105.527 51.5561C106.497 51.5561 109.267 54.8585 110.514 54.8585C110.903 54.8585 111.041 54.5552 111.041 54.1702C111.041 52.7131 108.991 49.4106 108.991 48.3641C108.991 48.0883 109.073 48.0059 109.379 48.0059C110.459 48.0059 113.618 49.493 115.114 49.493C115.611 49.4942 115.917 49.219 115.917 48.8608ZM153.74 80.5349C154.183 79.1583 154.736 78.1935 155.649 76.7089C154.736 76.2415 152.327 75.2505 152.327 73.6273C152.327 71.729 154.711 70.2444 155.206 70.2444C155.428 70.2444 155.484 70.4372 155.484 70.7948C155.484 71.7845 155.012 73.3802 155.012 74.2327C155.012 75.0021 155.511 75.746 155.953 75.746C156.425 75.746 157.727 74.0948 157.727 72.4722C157.727 69.5554 155.15 68.6749 154.35 68.6749C153.6 68.6749 152.242 69.8856 149.053 69.8856C143.096 69.8856 141.74 64.0233 141.74 61.4641C141.74 61.3542 141.765 61.3268 141.794 61.3268C141.934 61.3268 142.515 62.0419 144.399 62.0419C145.37 62.0419 146.257 61.7948 147.671 61.7948C150.994 61.7948 152.464 64.0801 154.515 66.9969C155.759 67.7663 158.724 69.005 158.724 72.4997C158.724 75.5806 155.427 77.2874 154.626 80.5892C155.898 80.4525 156.647 78.1941 157.95 78.1941C158.616 78.1941 158.92 78.7183 158.92 79.5433C158.92 80.7558 158.227 82.5705 156.896 83.6994C156.924 83.589 156.924 83.4511 156.924 83.287C156.924 82.5156 156.619 81.4148 155.732 81.4148C154.35 81.4148 153.906 82.9007 153.128 84.1394C152.326 81.3324 151.243 78.8001 149.304 77.2599C147.338 75.6904 143.956 76.5441 143.956 73.6829C143.956 72.9116 144.454 71.8114 144.454 70.9321C144.454 70.63 144.399 70.3542 144.233 70.1339C146.893 71.123 145.951 72.8841 147.587 74.6995C148.609 75.8558 151.437 76.9566 153.074 81.7169C153.099 81.5802 153.128 81.2226 153.128 80.9755C153.128 76.903 147.698 72.9122 147.227 71.2622C150.383 71.6198 150.938 72.3905 152.435 76.5167C152.741 77.3704 153.74 79.4884 153.74 80.5349ZM94.2207 58.1073C94.3836 57.5906 94.4674 57.0525 94.4695 56.511C94.4695 55.1893 93.8612 53.1817 91.9756 53.1817C90.8948 53.1817 90.1201 54.0335 90.1201 55.052C90.1207 57.2274 92.3092 58.1073 94.2207 58.1073ZM91.865 65.0423C90.9508 65.0423 89.9542 63.9147 89.9542 62.8969C89.9542 62.3458 90.3708 61.6569 90.6724 61.6569C90.7843 61.6569 90.8395 61.7393 90.8678 61.9321C91.0337 63.2819 91.9209 64.052 92.7528 64.4358C92.8358 64.4913 92.8917 64.5194 92.8917 64.5737C92.8917 64.7665 92.3639 65.0423 91.865 65.0423ZM95.1355 62.4557C95.1355 62.8407 94.9131 63.3368 94.4695 63.3368C93.5012 63.3368 92.7246 61.8772 92.7246 61.0516C92.7246 60.5299 93.0293 60.4743 93.4453 60.4743C93.6388 60.4743 93.7211 60.5018 93.8612 60.5842C94.1094 60.7221 94.1094 61.2719 94.4136 61.6844C94.5807 61.9596 95.1355 62.2628 95.1355 62.4557ZM94.1647 59.5657C94.0001 59.5383 93.7777 59.5383 93.5559 59.5383C92.6416 59.5383 91.4214 59.7036 90.3425 60.4194C87.9027 61.9883 88.2904 64.4632 87.9027 65.0973C87.8461 65.1885 87.8173 65.294 87.8197 65.4012C87.8197 65.6483 88.0968 65.9229 88.3457 65.9229C88.5687 65.9229 88.707 65.8692 88.8175 65.8692C89.483 65.8692 90.2307 66.3372 91.3114 66.3372C91.9486 66.3372 92.6969 66.1438 93.6394 65.6757C95.6344 64.6854 96.4111 62.236 96.4111 61.8229C96.4111 61.2999 95.9951 61.3823 95.6351 60.8868C95.2467 60.3102 95.4403 60.0905 95.1914 59.7592C95.0237 59.6213 94.6643 59.6213 94.1647 59.5657ZM97.1035 63.9971C96.494 64.711 95.8556 65.9222 95.8556 67.1622C95.8556 68.6468 96.7698 69.8856 98.183 69.8856C99.5415 69.8856 100.179 68.7292 100.179 67.5473C100.179 65.7026 98.4871 64.4089 97.1035 63.9971ZM91.1726 58.7126C91.1726 58.7126 90.3708 59.318 89.3717 59.318C88.1804 59.318 87.2379 58.4368 87.2379 57.1993C87.2379 56.3463 87.6802 55.4657 88.707 55.0252C88.6793 55.1905 88.6793 55.3278 88.6793 55.4932C88.6793 57.062 89.5665 58.244 91.1726 58.7126ZM140.467 74.7269C140.467 74.1777 140.964 73.7091 141.519 73.7091C142.127 73.7091 142.6 74.1777 142.6 74.7269C142.6 75.3597 142.127 75.8003 141.519 75.8003C140.964 75.8003 140.467 75.3597 140.467 74.7269ZM141.186 106.377C141.325 106.377 141.49 106.459 141.49 106.955C141.49 107.558 141.213 108.356 140.219 108.99C139.525 109.458 138.583 109.842 137.196 109.87C137.417 109.209 137.584 108.522 137.584 107.861C137.584 107.64 137.556 107.474 137.529 107.23H137.888C140.079 107.23 141.019 106.377 141.186 106.377ZM141.407 103.651C141.629 103.458 141.682 103.156 141.682 102.853V102.219C141.682 101.421 140.466 100.952 138.803 100.952C136.781 100.952 135.699 101.861 135.699 102.247V103.513C135.699 104.036 136.918 104.559 138.416 104.559C139.608 104.559 140.689 104.257 141.407 103.651ZM142.849 103.954C142.127 104.504 140.438 105.743 137.639 105.743C136.143 105.743 135.479 105.275 135.257 105.275C134.981 105.275 134.675 105.55 134.37 105.908C133.704 106.679 132.845 108.108 132.845 109.676C132.845 110.779 133.704 111.879 135.312 111.879C140.495 111.879 144.373 108.658 144.373 106.046C144.373 104.559 143.486 103.954 142.849 103.954ZM143.817 80.8101C143.817 81.4972 144.04 82.2947 144.734 82.2947C145.316 82.2947 145.815 81.4142 145.815 80.4519C145.815 79.3505 145.62 78.4974 145.62 78.0562C145.62 77.8652 145.703 77.7822 145.815 77.7822C146.23 77.8097 146.618 78.9386 147.062 78.9386C147.561 78.9386 148.307 78.03 148.611 78.03C148.694 78.03 148.722 78.1398 148.722 78.1673C148.722 78.5804 148.084 79.4884 148.084 79.8466C148.084 80.1492 149.693 80.2042 149.693 80.48C149.693 80.8931 148.002 80.8931 147.201 81.2501C146.425 81.5796 145.953 81.9921 145.953 82.5425C145.953 83.0929 146.506 83.2033 147.283 83.2033C149.138 83.2033 150.442 82.2123 150.857 82.2123C150.94 82.2123 150.996 82.2666 150.996 82.3496C150.996 82.6255 150.053 83.5341 150.053 83.9472C150.053 84.4152 151.772 84.9638 151.744 85.2396C151.717 85.3213 151.607 85.3488 151.412 85.3488C151.108 85.3488 150.636 85.267 150.275 85.267C150.053 85.267 149.859 85.2933 149.777 85.4037C149.581 85.6246 149.832 87.083 149.443 87.083C149.084 87.083 148.14 83.8355 146.009 83.8355C145.704 83.8355 145.481 84.0832 145.481 84.4963C145.481 85.5965 146.564 86.8621 147.589 87.4681C148.058 87.772 148.834 88.074 148.834 88.2394C148.834 88.5676 147.062 88.2662 147.062 88.8154C147.062 89.3115 147.284 90.0547 147.284 90.4953C147.284 90.6326 147.258 90.7973 147.089 90.7973C146.758 90.7973 145.953 89.284 145.565 89.284C145.234 89.284 144.512 90.192 144.208 90.192C144.124 90.192 144.068 90.1096 144.068 90.0266C144.068 89.3932 145.094 87.9635 145.094 86.5594C145.094 85.8986 145.011 84.4683 144.208 84.4683C143.541 84.4683 142.794 85.5123 142.46 86.5594C142.266 87.1654 142.406 89.5037 141.962 89.5037C141.547 89.5037 141.657 87.9355 141.103 87.9355C140.69 87.9355 139.804 88.6775 139.498 88.6775C139.442 88.6775 139.387 88.65 139.387 88.5951C139.387 88.2656 140.19 87.1922 140.19 86.9726C140.19 86.5594 138.36 86.5045 138.36 86.1738C138.36 85.9803 139.08 85.8437 139.747 85.7332C141.159 85.4855 143.237 84.4683 143.237 83.0367C143.237 81.4398 141.683 80.7533 140.662 80.0925C140.134 79.7617 139.552 79.4859 139.552 79.2662C139.552 79.0453 140.219 79.0453 140.495 79.0453C140.907 79.0453 141.324 79.0185 141.324 78.6877C141.324 78.44 141.267 77.9464 141.267 77.5613C141.267 77.2855 141.295 77.0658 141.407 77.0658C141.823 77.0658 142.406 78.4132 142.683 78.4132C143.125 78.4132 143.736 77.3136 144.152 77.3136C144.289 77.3136 144.345 77.396 144.345 77.6431C144.345 78.6621 143.817 79.8185 143.817 80.8101ZM130.601 72.7481C130.906 75.0857 134.066 73.9019 134.066 76.7363C134.066 77.1495 133.954 77.7554 133.954 78.2771C133.954 78.8831 134.009 79.406 134.48 79.406C134.952 79.406 135.064 79.0759 135.064 78.6347C135.064 78.1935 134.952 77.645 134.952 77.3423C134.952 76.3788 135.645 76.1585 136.06 76.1585C137.113 76.1585 137.917 77.2325 139.498 77.2325C139.137 78.9929 135.479 78.5249 135.479 80.4525C135.479 81.4148 136.448 81.6357 137.086 81.6357C137.668 81.6357 137.862 81.5521 137.862 81.0585C137.862 80.7827 137.806 80.4806 137.806 80.2872C137.806 80.1773 137.889 80.0681 138.029 80.0681C138.639 80.0681 141.629 82.3234 141.629 83.0124C141.629 83.6452 138.472 84.2779 137.556 84.2779C137.281 84.2779 137.225 84.0857 137.225 83.9759C137.225 83.7824 137.696 83.2046 137.696 82.8738C137.696 82.6267 137.282 82.4613 136.172 82.4613C135.645 82.4613 135.258 82.5163 135.258 82.9294C135.258 83.672 136.475 84.5806 136.475 85.2683C136.475 85.8181 136.144 86.1482 135.258 86.1482C134.509 86.1482 133.373 85.5703 133.373 84.6087C133.373 83.8374 134.178 83.0667 134.178 82.5993C134.178 82.4613 134.066 82.241 133.733 82.241C132.707 82.241 132.431 84.9376 128.8 85.2408C129.383 84.7185 129.882 84.14 129.882 82.9568C129.882 82.3783 129.743 81.9097 129.743 81.2781C129.743 80.4525 130.13 80.0394 130.685 80.0394C131.711 80.0394 132.209 81.4697 132.874 81.4697C133.234 81.4697 133.621 81.1409 133.621 80.646C133.621 78.5529 129.576 78.8556 129.576 75.912C129.576 75.1126 129.852 74.1228 130.601 72.7481ZM135.866 90.6338C135.866 91.0195 136.143 91.3228 136.53 91.3228C136.974 91.3228 137.253 90.9371 137.253 90.4972C137.253 89.9187 136.725 89.1205 136.225 89.1205C136.004 89.1205 136.088 89.45 136.031 89.8076C136.005 90.0834 135.866 90.4142 135.866 90.6338ZM134.425 86.9744C137.335 87.5242 138.915 89.6984 138.915 91.7353C138.915 93.1394 138.028 94.4299 136.474 94.4299C135.063 94.4299 134.037 93.467 134.037 91.9275C134.037 90.7718 134.951 89.5605 134.951 88.376C134.952 87.9099 134.814 87.4418 134.425 86.9744ZM130.74 91.6535C131.017 91.9275 131.101 92.2033 131.101 92.4785C131.101 92.8904 130.906 93.3316 130.906 93.7971C130.906 94.458 131.405 95.0346 132.126 95.0346C132.901 95.0346 133.427 94.4293 133.427 93.7141C133.427 92.6714 132.346 91.6535 130.74 91.6535ZM139.912 89.8912C140.106 90.1933 140.189 90.4972 140.189 90.7724C140.189 91.5425 139.662 92.2589 139.662 93.0564C139.662 93.9625 140.357 94.7064 141.406 94.7064C142.544 94.7064 143.319 93.7978 143.319 92.7269C143.32 91.2685 141.99 90.0285 139.912 89.8912ZM131.405 88.4322C132.678 88.5976 132.984 89.0375 132.984 89.3951C132.984 90.0017 132.431 90.1939 131.904 90.1939C131.517 90.1939 131.074 90.1115 130.601 90.1115C129.991 90.1115 129.383 90.2494 128.883 90.8273C129.243 90.8822 129.77 91.1293 129.77 91.6804C129.77 93.2773 125.308 91.9549 125.308 96.0556C125.308 98.2304 127.582 100.595 131.017 100.595C132.79 100.595 133.926 100.019 133.926 99.3586C133.926 98.8357 132.984 99.1933 132.984 98.7533C132.984 98.5592 133.317 98.2023 133.317 97.8996C133.317 97.7623 133.206 97.5146 132.984 97.5146C132.485 97.5146 131.545 98.3121 129.632 98.3121C128.135 98.3121 126.666 97.459 126.666 96.3027C126.666 96.0556 126.778 95.917 126.943 95.917C127.109 95.917 127.331 96.0281 127.525 96.0281C127.692 96.0281 127.719 95.917 127.719 95.6144C127.719 95.3123 127.719 94.458 128.247 94.458C128.771 94.458 129.77 96.3851 133.594 96.3851C134.869 96.3851 137.335 96.1379 138.249 95.3117C138.222 98.3408 135.838 102.328 130.852 102.328C125.669 102.328 122.899 98.2023 122.899 94.4025C122.899 90.1933 126.362 86.3679 131.101 86.3679C132.32 86.3679 133.346 86.7816 133.346 87.3033C133.345 88.0203 131.545 87.5798 131.405 88.4322ZM111.346 60.254C111.346 59.786 111.235 59.6762 111.124 59.6762C110.847 59.6762 110.541 60.0063 110.099 60.7483C110.154 61.7386 110.321 62.1798 110.597 62.1798C110.902 62.1805 111.346 61.2163 111.346 60.254ZM107.548 61.3817C107.854 61.3817 108.241 61.0516 108.962 60.254C109.017 59.8965 109.017 59.5651 109.017 59.1526C109.017 58.6022 108.795 57.9956 108.462 57.9956C107.633 57.9956 107.217 60.1985 107.217 60.7757C107.217 61.1071 107.384 61.3817 107.548 61.3817ZM112.066 63.8311C112.759 63.8311 113.534 61.1889 113.534 59.5383C113.534 59.1807 113.479 58.7956 113.313 58.7956C112.731 58.7956 111.759 61.519 111.759 63.0067C111.76 63.5839 111.898 63.8311 112.066 63.8311ZM105.276 62.3178C106.219 62.3178 107.3 57.2549 107.3 56.4012C107.3 56.1809 107.217 56.0155 107.024 56.0155C106.164 56.0155 104.972 60.8313 104.972 61.904C104.971 62.0968 105.027 62.3178 105.276 62.3178ZM108.297 64.4089C107.105 64.4089 107.051 65.8411 107.051 68.7298C106.164 66.8315 104.694 64.7946 102.977 64.7946C101.813 64.7946 101.369 65.5653 101.369 66.9139C101.369 67.1903 101.397 67.6028 101.452 67.8499C101.591 67.3838 102.034 67.1909 102.59 67.1909C103.781 67.1909 105.221 68.0977 106.164 69.3364C105.083 69.1436 104.03 68.9507 103.143 68.9507C102.59 68.9507 102.09 69.0057 101.675 69.1985C100.872 69.5561 99.7897 70.7399 99.7897 72.5284C99.7897 72.8036 99.8179 73.1044 99.8745 73.4351C100.844 71.2884 103.421 70.3268 105.083 70.3268C105.415 70.3268 105.665 70.3542 105.859 70.3823C104.999 71.1505 104.806 72.5003 104.75 73.4077C104.723 73.8483 104.556 73.8763 104.253 73.8763C104.253 74.7824 104.972 76.1316 104.972 76.82C104.972 77.0677 104.833 77.288 104.695 77.3429C104.695 78.5529 105.913 79.4335 105.913 80.2042C105.913 80.397 105.859 80.5617 105.775 80.6454C105.859 81.1402 107.189 81.9927 107.356 82.3503C107.633 82.9287 107.827 82.983 107.964 82.983C108.435 82.983 109.183 82.4333 109.183 81.9365C109.183 81.7724 109.045 81.5796 108.935 81.4966C108.407 81.1122 108.131 80.2859 107.91 79.7355C107.792 79.7367 107.677 79.6998 107.582 79.6304C107.487 79.5609 107.417 79.4627 107.384 79.3505C107.272 78.9923 107.216 77.6992 106.995 77.0671C106.634 76.9841 106.469 76.8468 106.469 76.1029C106.469 75.7454 106.69 74.3419 106.69 73.847C106.523 73.847 106.302 73.7366 106.302 73.4064C106.302 72.5272 107.189 71.8382 107.438 70.7112C109.017 71.8663 109.405 73.0489 109.405 74.0948C109.405 74.6439 109.322 75.1669 109.211 75.663C110.376 75.0851 112.12 74.2327 112.12 72.4997C112.12 71.4819 111.649 70.3542 108.517 69.913C109.487 69.5554 110.708 69.3626 111.733 69.3626C113.506 69.3626 114.531 69.913 114.754 71.1505C115.112 70.602 115.39 69.9686 115.39 69.3907C115.39 68.0415 114.255 67.1629 112.813 67.1629C111.123 67.1629 109.626 68.0421 108.018 69.1155C108.739 67.6303 109.238 66.7497 110.125 66.7497C110.263 66.7497 110.402 66.7759 110.54 66.804C110.209 65.5927 108.962 64.4089 108.297 64.4089ZM90.6184 47.2639C90.6184 47.8137 88.5122 49.659 87.7644 49.659C87.4873 49.659 87.4044 49.3282 87.4044 49.0262C87.4044 48.4752 87.6532 47.7045 87.958 47.4561C88.318 47.126 89.1499 46.9625 89.7871 46.9625C90.176 46.9631 90.6184 47.0436 90.6184 47.2639ZM154.985 84.2492C156.371 84.2492 157.479 86.0384 157.479 88.1308C157.479 90.358 156.426 92.7818 154.545 94.4305C154.516 90.7168 149.943 91.9007 149.943 89.2029C149.943 88.0478 150.773 87.2765 151.772 87.2765C152.658 87.2765 153.353 87.5248 153.852 88.0203C153.353 87.5529 153.102 86.8921 153.102 86.2587C153.101 85.2128 153.767 84.2492 154.985 84.2492ZM134.425 56.0985C134.204 55.7403 133.372 55.5481 132.984 55.5481C131.766 55.5481 130.935 56.4018 130.768 57.1719C130.645 56.8748 130.579 56.5576 130.573 56.2364C130.573 55.0245 131.405 53.5393 133.427 53.5393C135.202 53.5393 135.894 54.4747 136.143 54.4747C136.419 54.4747 136.698 54.1995 136.918 54.1995C137.224 54.1995 137.224 54.6676 137.224 54.9977C137.224 56.0991 136.724 57.9969 135.479 58.6858C135.256 58.2172 134.813 57.6954 134.093 57.3641C134.01 57.3321 133.939 57.2755 133.889 57.2019C133.84 57.1283 133.814 57.0414 133.816 56.9528C133.816 56.6495 134.093 56.2633 134.425 56.0985ZM130.242 58.1073C130.963 58.795 131.599 59.0977 132.375 59.0977C132.679 59.0977 133.04 59.0147 133.235 59.0147C133.484 59.0147 133.65 59.1251 133.65 59.3173C133.65 59.6206 133.373 60.1161 133.04 60.3913C133.372 60.5292 133.733 60.5835 134.121 60.5835C135.699 60.5835 137.501 59.5925 137.501 57.117C137.833 57.5557 138.029 58.4643 138.029 58.8768C138.029 61.8759 135.81 63.0323 133.762 63.0323C132.431 63.0323 131.766 62.5923 131.599 62.5923C131.074 62.5923 131.101 63.6376 130.741 63.6102C130.103 63.5009 129.522 62.0962 129.522 60.611C129.521 59.7305 129.743 58.795 130.242 58.1073ZM110.985 50.0996C110.985 51.0618 114.449 55.7684 115.113 55.7684C115.667 55.7684 116.083 54.8049 116.083 53.9786C116.083 53.7596 116.027 53.5393 115.917 53.3746C115.417 52.6862 111.898 49.9342 111.124 49.9342C111.041 49.9348 110.985 50.0172 110.985 50.0996ZM150.967 47.8418C150.967 45.8891 146.258 45.3936 146.258 44.9524C146.258 44.5949 148.89 43.9889 150.248 43.9608C148.168 41.3205 145.206 41.5957 145.206 41.1277C145.206 40.8518 147.423 40.3002 149.471 40.3002C151.189 40.3002 152.798 40.6865 152.798 41.9801C152.798 42.6959 152.215 43.4397 152.215 44.5393C152.215 45.1446 152.52 45.6682 153.325 45.6682C154.184 45.6682 154.378 44.7596 154.378 43.7961C154.378 42.9998 154.239 42.3932 154.239 42.0082C154.239 40.8518 155.04 40.0818 156.177 40.0818C157.12 40.0818 157.341 40.4936 158.726 40.4936C157.979 40.9342 157.701 41.733 157.701 42.118C157.701 43.2744 158.451 44.0719 158.451 46.4395C158.451 50.7866 154.351 52.328 149.333 52.328C147.947 52.328 146.481 52.2176 145.04 51.9973C144.817 51.9698 144.761 51.9155 144.761 51.7776C144.761 51.4194 146.73 51.2272 146.73 49.4655C146.73 48.7778 146.507 48.1163 146.507 47.8692C146.507 47.8401 146.512 47.8111 146.523 47.7841C146.534 47.7571 146.551 47.7326 146.572 47.712C146.592 47.6915 146.617 47.6752 146.644 47.6643C146.671 47.6533 146.701 47.6479 146.73 47.6483C147.146 47.6483 147.974 49.2459 149.525 49.2459C149.942 49.2465 150.967 49.1086 150.967 47.8418ZM155.649 45.0629C155.649 47.5123 153.851 49.3838 150.607 49.9074C150.967 49.9348 151.301 49.9348 151.634 49.9348C155.428 49.9348 156.814 48.228 156.814 46.7977C156.814 45.999 156.371 45.2838 155.649 45.0629ZM153.019 67.1897C153.019 66.6112 151.55 66.5563 151.411 64.9319C151.383 64.6848 151.301 64.2442 150.995 64.2442C150.497 64.2442 150.883 65.7575 150.33 65.7575C149.054 65.7575 148.639 63.2819 148.168 63.2819C148.057 63.2819 147.919 63.3643 147.919 63.6944C147.919 63.9971 147.974 64.1899 147.974 64.5468C147.974 64.9038 147.891 65.1522 147.562 65.1522C146.814 65.1522 146.148 63.4186 145.51 63.4186C145.371 63.4186 145.234 63.5022 145.234 63.6389C145.234 63.9702 145.787 64.5737 145.787 64.8763C145.787 65.5378 143.985 65.1784 143.985 65.73C143.985 65.9784 144.235 66.0608 144.568 66.0608C145.151 66.0608 146.065 65.8124 146.535 65.8124C146.814 65.8124 147.23 65.8686 147.23 66.2255C147.23 66.6112 146.23 67.1073 146.23 67.4643C146.23 67.6303 146.398 67.7114 146.535 67.7114C147.283 67.7114 148.611 66.419 149.554 66.419C149.721 66.419 150.138 66.502 150.138 66.7497C150.138 67.1073 149.194 67.7388 149.194 68.2618C149.194 68.3997 149.278 68.5651 149.443 68.5651C149.943 68.5651 150.608 67.2714 151.551 67.2714C151.91 67.2714 152.438 67.41 152.714 67.41C152.937 67.41 153.019 67.2714 153.019 67.1897ZM133.178 46.1918C133.178 45.8891 132.098 45.3106 132.098 44.9811C132.098 44.9256 132.154 44.8981 132.235 44.8981C132.539 44.8981 133.066 45.008 133.483 45.008C133.843 45.008 133.898 43.4684 134.177 43.4684C134.37 43.4684 134.703 44.9256 135.008 44.9256C135.367 44.9256 136.031 44.5125 136.31 44.5125C136.365 44.5125 136.419 44.5399 136.419 44.5955C136.419 44.7889 135.726 45.5309 135.726 45.7518C135.726 45.9996 137.28 46.3022 137.28 46.5232C137.28 46.7977 135.698 46.7709 135.698 47.0168C135.698 47.2096 136.281 47.9797 136.281 48.2287C136.281 48.2836 136.253 48.311 136.198 48.311C135.977 48.311 135.119 47.9254 134.869 47.9254C134.565 47.9254 134.065 49.0543 133.816 49.0543C133.732 49.0543 133.677 48.9432 133.677 48.8059L133.62 47.7051C133.62 47.5946 133.566 47.4848 133.426 47.4848C133.094 47.4848 132.457 47.4567 132.262 47.4567C132.125 47.4567 132.069 47.4293 132.069 47.3737C132.071 47.1541 133.178 46.384 133.178 46.1918ZM138.583 51.42C136.641 51.42 135.368 50.4565 135.368 49.9623C135.368 49.7145 135.535 49.5492 135.754 49.5492C136.365 49.5492 137.696 50.4833 138.139 50.4833C138.249 50.4833 138.333 50.4291 138.333 50.2643C138.333 49.7694 137.862 48.9432 137.862 48.5307C137.862 48.4209 137.945 48.3379 138.112 48.3379C138.859 48.3379 139.968 48.6412 140.55 48.6412C140.746 48.6412 140.799 48.5301 140.799 48.4203C140.799 47.8137 138.999 46.6317 138.999 46.2742C138.999 45.944 141.241 45.4485 141.241 44.925C141.241 44.3746 138.193 44.7596 138.193 44.236C138.193 43.851 138.775 43.1914 138.775 42.8893C138.775 42.7508 138.665 42.6965 138.471 42.6965C138.222 42.6965 136.89 43.2195 136.337 43.2195C136.06 43.2195 135.727 43.1645 135.727 42.7789C135.727 42.1461 136.808 41.4571 138.499 41.4571C141.241 41.4571 142.877 43.3293 142.877 46.467C142.877 50.4291 140.079 51.42 138.583 51.42ZM119.824 99.0298C119.824 99.2763 119.74 99.5521 119.518 99.8267C119.215 99.2756 118.354 99.0004 117.969 99.0004C115.113 99.0004 116.194 103.1 113.146 103.1C111.871 103.1 111.759 102.935 111.29 102.935C111.095 102.935 110.985 103.018 110.985 103.182C110.985 103.897 112.01 105.661 114.863 105.661C117.719 105.661 120.46 103.926 120.46 101.777C120.455 101.388 120.369 101.005 120.21 100.649C120.322 100.484 120.598 100.374 120.847 100.374C121.292 100.374 121.541 100.87 121.956 100.87C122.4 100.87 122.732 100.54 122.732 100.102C122.732 99.7443 122.538 99.4965 122.205 99.3299C122.427 99.1658 122.593 98.8906 122.593 98.5886C122.593 98.1199 122.26 97.6799 121.707 97.6799C121.457 97.6799 121.292 97.7629 121.098 97.9545C121.042 97.459 120.766 96.991 120.238 96.991C119.824 96.991 119.518 97.2943 119.518 97.7623C119.518 98.2023 119.824 98.5598 119.824 99.0298ZM112.37 100.074C111.539 100.074 110.293 99.1933 110.293 98.6978C110.293 98.2846 110.681 98.0644 110.985 98.0644C111.679 98.0644 112.925 98.918 112.925 99.6338C112.925 99.8267 112.786 100.074 112.37 100.074ZM104.639 93.9076C106.857 94.4586 107.964 95.6418 108.186 97.0459C108.408 98.3951 108.684 99.4972 109.212 100.047C109.905 100.815 111.263 101.503 112.453 101.503C113.451 101.503 114.256 101.174 114.256 100.268C114.256 99.2763 112.898 97.0465 110.902 97.0465C110.708 97.0465 110.458 97.0746 110.182 97.0746C109.932 97.0746 109.571 97.0191 109.349 96.8269C108.905 96.4425 108.767 94.3769 107.935 93.1406C107.023 91.764 106.025 91.379 104.667 91.379C103.697 91.379 102.617 91.9019 102.617 92.6726C102.617 93.1394 102.867 93.4676 104.639 93.9076ZM118.549 90.5521C118.549 89.314 115.973 89.2859 115.973 87.415C115.973 86.947 116.276 86.1482 116.888 85.2945C117.136 86.7261 117.72 87.4693 118.965 87.9373C121.43 88.8447 121.763 90.2201 121.763 91.6804C121.763 94.1553 120.018 97.2394 115.53 97.2394C111.927 97.2394 109.35 94.0455 109.35 91.3496C109.35 90.6064 109.544 89.7801 110.016 89.7801C110.431 89.7801 110.569 90.1103 110.903 90.441C112.149 91.6797 113.507 92.0099 115.474 92.0099C117.248 92.0105 118.549 91.2953 118.549 90.5521ZM118.659 92.5341C117.691 92.9185 117.331 92.8904 117.331 93.852C117.331 94.2102 117.248 94.6783 117.248 94.926C117.248 95.2568 117.303 95.4496 117.692 95.4496C118.688 95.4496 120.267 93.7709 120.267 92.3406C120.267 91.9556 120.046 91.7908 119.797 91.7908C119.574 91.7908 119.325 92.2308 118.659 92.5341ZM109.821 78.6347C109.821 76.8743 114.034 75.9382 114.034 73.7646C114.034 73.4071 113.895 72.7755 113.645 72.3069C115.113 73.1038 116.194 74.4536 116.194 75.5532C116.194 77.4527 114.2 78.332 114.2 79.5158C114.2 80.8931 116.333 81.1128 116.333 82.8189C116.333 84.2224 114.311 85.8455 114.311 87.6628C114.311 89.065 115.306 90.2207 116.832 90.4142C116.333 90.5246 115.889 90.607 115.418 90.607C112.62 90.607 109.738 88.3224 109.738 85.5984C109.738 84.2499 110.321 83.0667 111.207 82.2136C111.982 82.8738 112.759 83.315 113.256 83.315C113.701 83.315 113.895 83.0941 113.895 82.7646C113.895 81.7443 109.821 80.8101 109.821 78.6347ZM115.535 137.509C116.319 137.509 117.664 137.256 118.723 135.57C118.118 134.237 117.686 131.534 117.625 130.552C117.313 125.527 119.263 120.799 121.398 120.669C122.963 120.576 124.215 122.047 124.358 124.425C124.745 130.691 122.641 133.307 121.593 135.559C121.77 136.436 123.261 137.925 124.673 137.925C125.195 137.925 125.823 137.666 125.98 137.456C125.835 136.969 125.764 136.462 125.769 135.954C125.769 132.326 128.122 129.262 130.156 129.262C131.777 129.262 132.712 131.388 132.712 132.793C132.712 134.449 131.304 135.8 129.216 137.097C129.584 137.456 130.259 137.718 130.837 137.718C133.813 137.718 135.377 134.142 136.528 130.87C136.737 130.248 137.105 129.367 137.833 129.367C139.087 129.367 139.611 137.56 141.696 137.56C142.585 137.56 143.314 135.745 143.314 134.349C143.314 133.31 142.95 133.207 142.95 131.7C142.95 130.043 143.837 128.642 145.041 128.642C145.77 128.642 146.033 129.367 146.033 130.248C146.033 133.569 143.631 139.741 140.081 139.741C137.415 139.741 137.622 135.173 136.686 135.173C135.639 135.173 134.176 139.794 129.008 139.794C128.17 139.794 127.284 139.379 126.555 138.545C125.301 139.379 124.254 139.741 123.053 139.741C121.123 139.741 120.286 137.769 119.505 137.769C118.563 137.769 117.523 139.794 114.387 139.794C111.878 139.794 111.461 136.476 110.576 136.476C109.792 136.476 108.591 139.794 107.286 139.794C105.088 139.794 104.623 134.037 102.689 134.037C101.174 134.037 96.3903 139.883 95.0903 139.749C94.5681 139.694 94.3495 139.308 94.4041 138.788C94.4776 138.071 95.0985 136.151 95.3529 135.239C95.7752 133.666 96.1629 131.933 96.379 131.382C96.5933 130.827 97.1758 130.431 97.6388 130.473C97.8732 130.495 97.9436 130.93 98.0165 131.287C98.2785 132.573 98.6492 133.88 99.0652 133.88C99.7978 133.88 102.221 129.262 103.629 129.262C105.354 129.262 105.562 136.525 107.912 136.525C108.696 136.525 109.273 135.591 109.793 134.45C109.846 132.529 110.367 129.783 111.934 129.783C113.033 129.783 113.554 132.218 112.769 134.348C112.768 136.886 114.438 137.509 115.535 137.509ZM154.491 132.635C154.491 131.339 153.292 129.522 151.517 129.522C149.167 129.522 146.871 132.064 146.871 135.59C146.871 138.751 148.851 139.793 150.836 139.793C154.283 139.793 156.374 136.987 157.469 134.656C157.993 136.212 158.301 139.793 159.61 139.793C160.132 139.793 160.498 139.533 161.127 138.132C162.689 134.656 164.204 130.663 166.295 130.663C167.076 130.663 166.608 132.064 168.487 132.064C169.375 132.064 170 131.339 170 130.505C170 129.312 168.904 128.38 167.233 128.38C162.327 128.38 161.283 135.694 160.498 135.694C159.192 135.694 159.61 129.834 158.669 129.834C157.833 129.834 157.415 130.821 157.311 131.285C156.631 133.982 154.702 137.874 151.774 137.874C151.097 137.874 149.896 137.613 149.896 136.939C149.896 136.212 154.491 136.111 154.491 132.635ZM122.667 125.826C122.577 124.379 122.223 123.725 121.441 123.776C120.4 123.84 119.92 127.088 120.132 130.502C120.267 132.732 120.6 133.073 120.913 133.053C121.488 133.019 122.867 129.038 122.667 125.826ZM114.176 122.783C114.127 121.95 113.448 121.381 112.56 121.381C111.567 121.381 110.625 122.418 110.733 123.714C110.733 124.491 111.306 125.27 112.301 125.27C113.449 125.27 114.284 123.977 114.176 122.783ZM130.419 133.36C130.419 132.482 129.948 131.752 129.375 131.752C128.903 131.752 127.809 132.271 127.809 133.93C127.809 135.227 128.277 135.847 128.489 136.111C130 135.642 130.419 134.396 130.419 133.36ZM150.836 131.599C151.933 131.599 152.248 132.892 151.987 133.672C151.724 134.449 150.787 135.33 149.323 135.589C149.01 134.81 148.851 131.599 150.836 131.599ZM79.011 132.429C78.9588 130.298 79.0638 128.174 79.9529 125.167C80.4216 123.562 80.8414 122.988 82.301 122.679C83.4496 122.471 83.3472 123.661 83.0864 125.063C82.5128 128.173 82.2476 129.677 82.4593 133.206C82.6642 136.938 84.3909 138.391 86.269 138.391C89.089 138.445 90.3432 136.112 90.8647 132.739C91.2806 130.042 90.9671 128.742 90.7057 127.916C90.5505 127.449 90.1327 126.41 89.9756 125.635C89.7682 123.662 90.7057 122.733 91.4911 122.471C92.4318 122.211 92.7987 122.68 93.1613 123.77C93.6332 125.428 93.6853 127.603 93.5276 130.713C93.3196 134.965 91.1776 140.104 85.8518 139.998C81.2561 139.897 79.2228 136.939 79.011 132.429Z" fill="#2267AE"/>
</svg>
