<svg width="17" height="10" viewBox="0 0 17 10" fill="none" xmlns="http://www.w3.org/2000/svg">
<path d="M14.321 0.000115018C14.0895 0.000115018 13.8682 0.02649 13.6578 0.08949C13.4473 0.15249 13.2682 0.242365 13.1105 0.36299C12.9548 0.478109 12.8256 0.625296 12.7316 0.794615C12.637 0.963115 12.5895 1.15787 12.5895 1.37911C12.5895 1.65249 12.679 1.91036 12.8527 2.14224C13.026 2.37911 13.3102 2.55774 13.6945 2.67886L14.4577 2.91574C14.7155 3.00011 14.8947 3.08962 14.9895 3.18962C15.0841 3.28974 15.1315 3.41024 15.1315 3.55774C15.1315 3.77349 15.0367 3.94199 14.8576 4.05774C14.6788 4.17337 14.4211 4.23162 14.0895 4.23162C13.8786 4.23162 13.6735 4.21061 13.4631 4.16861C13.2641 4.12766 13.07 4.06582 12.884 3.98411C12.8313 3.96311 12.7838 3.94212 12.7526 3.93186C12.7221 3.9213 12.6901 3.91581 12.6578 3.91561C12.5786 3.91561 12.5367 3.96849 12.5367 4.07874V4.34736C12.5369 4.39821 12.5477 4.44845 12.5685 4.49486C12.5895 4.54237 12.6471 4.59486 12.7316 4.64236C12.8683 4.72086 13.0733 4.78974 13.3366 4.85274C13.5997 4.91574 13.8737 4.94749 14.1471 4.94749C14.4158 4.94749 14.6632 4.91037 14.9001 4.83712C15.1261 4.76824 15.321 4.67349 15.4841 4.54212C15.6471 4.41587 15.7736 4.25799 15.8683 4.07874C15.9576 3.90012 16.0051 3.69499 16.0051 3.46849C16.0051 3.19499 15.926 2.94749 15.7628 2.73161C15.5998 2.51574 15.3265 2.34736 14.9475 2.22624L14.2 1.98936C13.9212 1.90024 13.7262 1.79986 13.6207 1.69986C13.5157 1.60024 13.4631 1.47386 13.4631 1.32636C13.4631 1.11061 13.547 0.957615 13.7106 0.858115C13.8737 0.75799 14.1105 0.710615 14.4103 0.710615C14.7838 0.710615 15.1207 0.77899 15.4211 0.915615C15.5103 0.95774 15.5787 0.979115 15.6207 0.979115C15.6998 0.979115 15.7418 0.92124 15.7418 0.81074V0.56324C15.7418 0.48949 15.7262 0.431865 15.6945 0.389365C15.6632 0.342115 15.6105 0.29999 15.5367 0.25799C15.484 0.22624 15.4103 0.19499 15.3155 0.16324C15.2167 0.131256 15.1167 0.103068 15.0157 0.07874C14.905 0.05774 14.7946 0.0367399 14.6735 0.0212399C14.5566 0.00642242 14.4388 -0.000634538 14.321 0.000115018ZM3.46822 0.0103649C3.17872 0.0103649 2.90472 0.0421149 2.64697 0.11049C2.3891 0.173615 2.1681 0.252615 1.9841 0.347365C1.91035 0.38449 1.86285 0.421115 1.8366 0.45774C1.81022 0.49474 1.79997 0.55774 1.79997 0.64224V0.900115C1.79997 1.01036 1.8366 1.06312 1.91035 1.06312C1.93135 1.06312 1.9576 1.05774 1.9946 1.04749C2.03122 1.03674 2.0941 1.01574 2.1786 0.979115C2.36355 0.90595 2.55349 0.84609 2.74697 0.79999C2.9331 0.754555 3.124 0.7316 3.3156 0.731615C3.72085 0.731615 4.00472 0.81074 4.17347 0.973865C4.33647 1.13674 4.42097 1.41562 4.42097 1.81562V2.19986C4.2106 2.15249 4.0106 2.11049 3.8156 2.08411C3.62085 2.05786 3.43672 2.04211 3.25797 2.04211C2.71547 2.04211 2.28922 2.17886 1.96847 2.45286C1.6471 2.72624 1.48947 3.08949 1.48947 3.53674C1.48947 3.95774 1.62072 4.29462 1.8786 4.54749C2.13685 4.79999 2.48947 4.92649 2.93135 4.92649C3.5526 4.92649 4.06847 4.68424 4.47872 4.19986C4.52878 4.30555 4.58316 4.40914 4.64172 4.51037C4.69699 4.59863 4.76043 4.68149 4.83122 4.75786C4.88397 4.80537 4.93672 4.83162 4.98947 4.83162C5.03122 4.83162 5.07872 4.81561 5.1261 4.78436L5.45772 4.56312C5.52597 4.51062 5.55772 4.45774 5.55772 4.40549C5.55697 4.36246 5.54429 4.32049 5.5211 4.28424C5.45572 4.16231 5.39944 4.03571 5.35272 3.90549C5.3156 3.78986 5.2946 3.63174 5.2946 3.43674H5.28385V1.73161C5.28385 1.15249 5.13685 0.720865 4.84735 0.436615C4.55235 0.15249 4.09422 0.0103649 3.46822 0.0103649ZM5.91572 0.136865C5.83122 0.136865 5.78922 0.18424 5.78922 0.26824C5.78922 0.305365 5.80535 0.37374 5.8366 0.479115L7.07335 4.54749C7.1051 4.64749 7.14172 4.72086 7.18422 4.75261C7.22622 4.78974 7.28922 4.80536 7.38397 4.80536H7.83647C7.93135 4.80536 8.00485 4.78974 8.04697 4.75261C8.08947 4.71599 8.12085 4.64762 8.1471 4.54212L8.95772 1.15249L9.7736 4.54749C9.7946 4.65249 9.8311 4.72086 9.8736 4.75799C9.91572 4.79449 9.98397 4.81074 10.0841 4.81074H10.5367C10.6261 4.81074 10.6945 4.78987 10.7365 4.75799C10.779 4.72637 10.8156 4.65799 10.8473 4.55299L12.1158 0.484115C12.1368 0.426615 12.1471 0.38449 12.1525 0.35274C12.1578 0.32099 12.1632 0.29449 12.1632 0.26824C12.1632 0.178865 12.1158 0.13699 12.0313 0.13699H11.5422C11.4476 0.13699 11.3787 0.15774 11.3367 0.189615C11.3001 0.220865 11.263 0.289615 11.2317 0.394615L10.321 3.92124L9.48935 0.394865C9.4686 0.294865 9.43135 0.221115 9.38935 0.189865C9.34735 0.152615 9.27885 0.13699 9.17885 0.13699H8.75797C8.66322 0.13699 8.58947 0.157865 8.54697 0.18974C8.5051 0.22099 8.47347 0.28974 8.44747 0.39474L7.62622 3.87924L6.74185 0.394865C6.7106 0.294865 6.67885 0.221115 6.63685 0.189865C6.59972 0.152615 6.53135 0.13699 6.43135 0.13699L5.91572 0.136865ZM3.45222 2.66861C3.61771 2.66872 3.78303 2.67916 3.94722 2.69986C4.11014 2.72056 4.27174 2.75056 4.43122 2.78974V3.01036C4.43122 3.18974 4.41022 3.34199 4.37847 3.46849C4.34722 3.59474 4.28372 3.70536 4.19972 3.80536C4.0576 3.96311 3.88922 4.07874 3.69972 4.14224C3.51022 4.20524 3.3311 4.23699 3.15772 4.23699C2.9156 4.23699 2.73147 4.17349 2.60497 4.04212C2.47322 3.91587 2.41022 3.73161 2.41022 3.48411C2.41022 3.22086 2.4946 3.02111 2.66797 2.87911C2.84185 2.73699 3.09972 2.66861 3.45222 2.66861ZM15.4972 5.90012C14.9432 5.90799 14.2892 6.03162 13.7946 6.37912C13.6417 6.48949 13.6681 6.63686 13.8366 6.61586C14.4001 6.54749 15.6416 6.40012 15.8628 6.68424C16.0841 6.96299 15.6158 8.13674 15.405 8.65799C15.342 8.81549 15.4787 8.87912 15.6207 8.75799C16.547 7.97912 16.7892 6.35274 16.5997 6.11586C16.5051 6.00024 16.0512 5.89212 15.4972 5.90012ZM0.950971 6.21399C0.835221 6.22849 0.782596 6.36849 0.904971 6.47912C2.96847 8.34187 5.69985 9.46311 8.7316 9.46311C10.8947 9.46311 13.4103 8.78436 15.1417 7.50562C15.4258 7.29449 15.179 6.97387 14.8892 7.10511C12.9476 7.92636 10.8366 8.32637 8.91572 8.32637C6.06847 8.32637 3.31572 7.54224 1.0841 6.24724C1.03535 6.21837 0.989721 6.20924 0.951096 6.21399H0.950971Z" fill="#FF9900"/>
</svg>
