<svg width="16" height="16" viewBox="0 0 16 16" fill="none" xmlns="http://www.w3.org/2000/svg">
<path d="M1.09497 0.125L2.35185 14.2354L7.9916 15.8079L13.6471 14.2296L14.905 0.125H1.09497ZM12.2938 3.35775L11.8755 8.05838L11.8767 8.08375L11.875 8.14213V8.14163L11.5777 11.4284L11.545 11.7204L7.99997 12.7009L7.99722 12.7034L4.45835 11.7174L4.21872 9H5.9541L6.07722 10.3818L8.00047 10.903L7.99997 10.904V10.9038L9.93035 10.3751L10.1343 8.125H6.09897L6.06435 7.74463L5.98547 6.8535L5.9441 6.375H10.2877L10.4457 4.625H3.82997L3.79535 4.24487L3.7166 3.3535L3.6751 2.875H12.3352L12.2938 3.35775Z" fill="#1572B6"/>
</svg>
