<svg width="16" height="16" viewBox="0 0 16 16" fill="none" xmlns="http://www.w3.org/2000/svg">
<path d="M5.66667 16C7.14264 16 8.33333 14.8093 8.33333 13.3334V10.6667H5.66667C4.1907 10.6667 3 11.8574 3 13.3334C3 14.8093 4.1907 16 5.66667 16Z" fill="#0ACF83"/>
<path d="M3 7.99998C3 6.52401 4.1907 5.33331 5.66667 5.33331H8.33333V10.6666H5.66667C4.1907 10.6666 3 9.47595 3 7.99998Z" fill="#A259FF"/>
<path d="M3 2.66667C3 1.1907 4.1907 0 5.66667 0H8.33333V5.33333H5.66667C4.1907 5.33333 3 4.14264 3 2.66667Z" fill="#F24E1E"/>
<path d="M8.33337 0H11C12.476 0 13.6667 1.1907 13.6667 2.66667C13.6667 4.14264 12.476 5.33333 11 5.33333H8.33337V0Z" fill="#FF7262"/>
<path d="M13.6667 7.99998C13.6667 9.47595 12.476 10.6666 11 10.6666C9.52407 10.6666 8.33337 9.47595 8.33337 7.99998C8.33337 6.52401 9.52407 5.33331 11 5.33331C12.476 5.33331 13.6667 6.52401 13.6667 7.99998Z" fill="#1ABCFE"/>
</svg>
