<svg width="17" height="16" viewBox="0 0 17 16" fill="none" xmlns="http://www.w3.org/2000/svg">
<path d="M15.9973 7.31181L9.10778 0.422563C8.71128 0.0258125 8.06778 0.0258125 7.67065 0.422563L6.24015 1.85331L8.0549 3.66806C8.47678 3.52569 8.96028 3.62119 9.2964 3.95731C9.63428 4.29556 9.72903 4.78319 9.58315 5.20644L11.3322 6.95556C11.7553 6.80969 12.2437 6.90394 12.5814 7.24244C13.0539 7.71456 13.0539 8.47994 12.5814 8.95231C12.4691 9.06465 12.3358 9.15377 12.1891 9.21457C12.0423 9.27537 11.885 9.30666 11.7262 9.30666C11.5674 9.30666 11.4101 9.27537 11.2634 9.21457C11.1166 9.15377 10.9833 9.06465 10.871 8.95231C10.7023 8.78351 10.5873 8.56857 10.5405 8.33456C10.4937 8.10054 10.5171 7.85791 10.6079 7.63719L8.9769 6.00619L8.97665 10.2988C9.09499 10.3571 9.20303 10.4343 9.29653 10.5273C9.76878 10.9994 9.76878 11.7646 9.29653 12.2377C8.82415 12.7098 8.05853 12.7098 7.58665 12.2377C7.1144 11.7647 7.1144 10.9996 7.58665 10.5273C7.6998 10.414 7.83437 10.3243 7.98253 10.2636V5.93119C7.83425 5.87059 7.69964 5.78086 7.58665 5.66731C7.2289 5.30981 7.14278 4.78481 7.32628 4.34531L5.53715 2.55619L0.813153 7.27994C0.622568 7.47058 0.515503 7.72912 0.515503 7.99869C0.515503 8.26826 0.622568 8.52679 0.813153 8.71744L7.70278 15.6067C8.09953 16.0034 8.74278 16.0034 9.14015 15.6067L15.9974 8.74944C16.1879 8.55874 16.295 8.30018 16.2949 8.0306C16.2949 7.76102 16.1879 7.50248 15.9973 7.31181Z" fill="#F34F29"/>
</svg>
