<svg width="15" height="16" viewBox="0 0 15 16" fill="none" xmlns="http://www.w3.org/2000/svg">
<path d="M1.83721 11.9385L1.26221 11.6064L7.66846 0.511292L8.24308 0.843292L1.83721 11.9385Z" fill="#E434AA"/>
<path d="M1.13037 10.7202H13.9424V11.384H1.13037V10.7202Z" fill="#E434AA"/>
<path d="M7.7924 14.7931L1.38428 11.0933L1.71628 10.5181L8.12453 14.2183L7.7924 14.7931ZM13.3593 5.14994L6.95115 1.44969L7.28315 0.875061L13.6914 4.57469L13.3593 5.14994Z" fill="#E434AA"/>
<path d="M1.71787 5.14743L1.38574 4.57231L7.79449 0.872559L8.12649 1.44731L1.71787 5.14743Z" fill="#E434AA"/>
<path d="M13.2413 11.9385L6.83555 0.843292L7.4103 0.511292L13.8165 11.6064L13.2413 11.9385ZM1.63867 4.13179H2.3028V11.5323H1.6388L1.63867 4.13179Z" fill="#E434AA"/>
<path d="M12.7744 4.13184H13.4384V11.5323H12.7744V4.13184Z" fill="#E434AA"/>
<path d="M7.67965 14.5122L7.38965 14.0097L12.9629 10.7916L13.2529 11.2941L7.67965 14.5122Z" fill="#E434AA"/>
<path d="M14.3183 11.7481C13.9346 12.4161 13.0786 12.6441 12.4107 12.2603C11.7427 11.8761 11.5147 11.0201 11.8984 10.3521C12.2827 9.68406 13.1387 9.45606 13.8067 9.83994C14.4786 10.2281 14.7066 11.0801 14.3183 11.7481ZM3.17481 5.31206C2.79056 5.98006 1.93456 6.20806 1.26656 5.82419C0.598556 5.43994 0.370556 4.58406 0.754431 3.91606C1.13868 3.24806 1.99456 3.02006 2.66256 3.40381C3.33056 3.79206 3.55856 4.64406 3.17481 5.31206ZM0.758806 11.7481C0.374431 11.0801 0.602556 10.2281 1.27043 9.83981C1.93843 9.45606 2.79043 9.68406 3.17868 10.3521C3.56243 11.0201 3.33443 11.8721 2.66643 12.2603C1.99456 12.6441 1.14256 12.4161 0.758806 11.7481ZM11.9023 5.31206C11.5186 4.64406 11.7466 3.79206 12.4146 3.40381C13.0826 3.02006 13.9346 3.24806 14.3227 3.91606C14.7064 4.58406 14.4786 5.43606 13.8106 5.82431C13.1426 6.20806 12.2866 5.98006 11.9023 5.31206ZM7.53856 15.6641C7.35518 15.6642 7.17358 15.6282 7.00414 15.5581C6.83469 15.488 6.68073 15.3852 6.55107 15.2555C6.4214 15.1259 6.31858 14.9719 6.24849 14.8025C6.17839 14.633 6.14239 14.4514 6.14256 14.2681C6.14239 14.0847 6.17839 13.9031 6.24849 13.7336C6.31858 13.5642 6.4214 13.4102 6.55107 13.2806C6.68073 13.1509 6.83469 13.0481 7.00414 12.978C7.17358 12.9079 7.35518 12.8719 7.53856 12.8721C7.72193 12.8719 7.90353 12.9079 8.07298 12.978C8.24242 13.0481 8.39638 13.1509 8.52604 13.2806C8.65571 13.4102 8.75853 13.5642 8.82863 13.7336C8.89872 13.9031 8.93472 14.0847 8.93456 14.2681C8.93456 15.0362 8.31056 15.6641 7.53856 15.6641ZM7.53856 2.79206C7.35518 2.79223 7.17358 2.75623 7.00414 2.68613C6.83469 2.61603 6.68073 2.51321 6.55107 2.38355C6.4214 2.25389 6.31858 2.09993 6.24849 1.93048C6.17839 1.76104 6.14239 1.57943 6.14256 1.39606C6.14239 1.21269 6.17839 1.03109 6.24849 0.861641C6.31858 0.692196 6.4214 0.538237 6.55107 0.408574C6.68073 0.278911 6.83469 0.176088 7.00414 0.105991C7.17358 0.0358936 7.35518 -0.000102819 7.53856 6.15958e-05C7.72193 -0.000102819 7.90353 0.0358936 8.07298 0.105991C8.24242 0.176088 8.39638 0.278911 8.52604 0.408574C8.65571 0.538237 8.75853 0.692196 8.82863 0.861641C8.89872 1.03109 8.93472 1.21269 8.93456 1.39606C8.93472 1.57943 8.89872 1.76104 8.82863 1.93048C8.75853 2.09993 8.65571 2.25389 8.52604 2.38355C8.39638 2.51321 8.24242 2.61603 8.07298 2.68613C7.90353 2.75623 7.72193 2.79223 7.53856 2.79206Z" fill="#E434AA"/>
</svg>
