<svg width="14" height="16" viewBox="0 0 14 16" fill="none" xmlns="http://www.w3.org/2000/svg">
<path d="M13.1597 1.48756C13.1597 0.662561 12.4972 6.10352e-05 11.6722 6.10352e-05H2.14717C1.32217 6.10352e-05 0.659668 0.662561 0.659668 1.48756V14.0251C0.659668 14.8501 1.32217 15.5126 2.14717 15.5126H11.6847C12.5097 15.5126 13.1722 14.8501 13.1722 14.0251V1.48756H13.1597ZM12.6597 1.50006V13.9126C12.6597 14.5001 12.2222 15.0001 11.6347 15.0001H2.22217C1.63467 15.0001 1.15967 14.5001 1.15967 13.9126V1.50006C1.15967 0.912561 1.64717 0.500061 2.22217 0.500061H11.6222C12.2097 0.500061 12.6722 0.950061 12.6722 1.53756L12.6597 1.50006ZM3.53467 13.3376L5.29717 11.5751L3.53467 9.81256V13.3376ZM5.28467 5.72506V2.05006L3.54717 2.06256C3.54717 2.06256 3.55967 7.80006 3.57217 7.77506C8.92217 5.68756 8.53467 7.17506 8.53467 7.17506V13.3501L8.52217 13.3751H10.1597V7.18756C10.1597 3.80006 5.28467 5.72506 5.28467 5.72506ZM7.65967 4.25006H9.50967C10.5097 3.00006 10.8472 2.12506 10.8472 2.12506H8.93467C8.93467 2.12506 8.32217 3.50006 7.65967 4.25006Z" fill="#6762A6"/>
</svg>
