<svg width="17" height="17" viewBox="0 0 17 17" fill="none" xmlns="http://www.w3.org/2000/svg">
<path d="M8.5155 16.125C12.9338 16.125 16.5155 12.5433 16.5155 8.125C16.5155 3.70672 12.9338 0.125 8.5155 0.125C4.09722 0.125 0.515503 3.70672 0.515503 8.125C0.515503 12.5433 4.09722 16.125 8.5155 16.125Z" fill="#FF7A59"/>
<path fill-rule="evenodd" clip-rule="evenodd" d="M10.2623 9.88969C9.66499 9.88969 9.18046 9.41047 9.18046 8.81922C9.18046 8.22797 9.66483 7.7486 10.2623 7.7486C10.8598 7.7486 11.3445 8.22782 11.3445 8.81922C11.3445 9.41063 10.8601 9.88969 10.2623 9.88969ZM10.5864 6.75813V5.805C10.7131 5.74697 10.8206 5.65395 10.8963 5.53689C10.9719 5.41983 11.0126 5.2836 11.0134 5.14422V5.12219C11.0134 4.71938 10.6803 4.39 10.2736 4.39H10.2512C9.84499 4.39 9.5114 4.71953 9.5114 5.12219V5.14422C9.51229 5.28359 9.55295 5.4198 9.6286 5.53686C9.70424 5.65391 9.81173 5.74694 9.93843 5.805V6.75813C9.57359 6.81316 9.22955 6.96288 8.94062 7.19235L6.29843 5.15844C6.31692 5.09153 6.32684 5.02254 6.32796 4.95313C6.32796 4.49672 5.95468 4.12625 5.49358 4.125C5.03249 4.12375 4.65843 4.4936 4.65796 4.95016C4.65749 5.40672 5.03062 5.77641 5.49171 5.77719C5.63613 5.77657 5.77791 5.73839 5.90312 5.66641L8.5028 7.66797C8.26893 8.01634 8.14674 8.42769 8.15252 8.84724C8.1583 9.26679 8.29177 9.67462 8.53515 10.0164L7.74421 10.7992C7.65063 10.7699 7.55181 10.7612 7.45455 10.7737C7.35729 10.7863 7.2639 10.8197 7.18082 10.8718C7.09774 10.924 7.02695 10.9935 6.97331 11.0755C6.91968 11.1576 6.88448 11.2504 6.87014 11.3474C6.8558 11.4444 6.86267 11.5434 6.89026 11.6375C6.91785 11.7316 6.96552 11.8186 7.02998 11.8925C7.09443 11.9664 7.17414 12.0255 7.26362 12.0656C7.3531 12.1058 7.45021 12.126 7.54827 12.125C7.92702 12.125 8.23421 11.8209 8.23421 11.4461C8.23354 11.3802 8.223 11.3148 8.20296 11.252L8.98421 10.4783C9.35198 10.757 9.80086 10.9078 10.2623 10.9075C11.4281 10.9075 12.3726 9.97266 12.3726 8.81922C12.3726 7.77516 11.5973 6.91297 10.5862 6.75813" fill="white"/>
</svg>
