<svg width="17" height="16" viewBox="0 0 17 16" fill="none" xmlns="http://www.w3.org/2000/svg">
<path d="M3.58333 0H13.9167C15.4833 0 16.75 1.29915 16.75 2.90598V13.094C16.75 14.7009 15.4833 16 13.9167 16H3.58333C2.01667 16 0.75 14.7009 0.75 13.094V2.90598C0.75 1.29915 2.01667 0 3.58333 0Z" fill="#330000"/>
<path d="M8.48331 9.57264H6.00331L5.49665 11.1795C5.48331 11.241 5.42998 11.282 5.36998 11.2752H4.11665C4.04331 11.2752 4.02331 11.2342 4.04331 11.1521L6.18998 4.81366C6.20998 4.74529 6.22998 4.67007 6.25665 4.58802C6.28331 4.44443 6.29665 4.294 6.29665 4.14358C6.28998 4.10939 6.31665 4.0752 6.34998 4.06836H8.07665C8.12998 4.06836 8.15665 4.08888 8.16331 4.12306L10.5966 11.1658C10.6166 11.241 10.5966 11.2752 10.53 11.2752H9.13665C9.08998 11.282 9.04331 11.2479 9.02998 11.2L8.48331 9.57264ZM6.38998 8.1846H8.08331C8.04331 8.04101 7.98998 7.87007 7.92998 7.6923C7.86998 7.50768 7.80998 7.30939 7.74998 7.10426C7.68331 6.8923 7.62331 6.68717 7.55665 6.4752C7.48998 6.26324 7.42998 6.06495 7.37665 5.86665C7.32331 5.6752 7.27665 5.49742 7.22998 5.33332H7.21665C7.15665 5.62734 7.08331 5.92136 6.98998 6.21537C6.88998 6.54358 6.78998 6.88546 6.68331 7.22734C6.58998 7.57606 6.48998 7.89742 6.38998 8.1846ZM12.0833 5.26495C11.8633 5.27178 11.65 5.18289 11.49 5.02563C11.3366 4.85469 11.2566 4.62905 11.2633 4.39657C11.2566 4.16409 11.3433 3.94529 11.5033 3.78802C11.6633 3.63076 11.8766 3.54871 12.0966 3.54871C12.3566 3.54871 12.5566 3.63076 12.7033 3.78802C12.85 3.95212 12.93 4.17093 12.9233 4.39657C12.93 4.62905 12.85 4.85469 12.69 5.02563C12.5366 5.18973 12.31 5.27862 12.0833 5.26495ZM11.3366 11.2V5.93503C11.3366 5.86665 11.3633 5.8393 11.4233 5.8393H12.7433C12.8033 5.8393 12.83 5.87349 12.83 5.93503V11.2C12.83 11.2752 12.8033 11.3094 12.7433 11.3094H11.4366C11.37 11.3094 11.3366 11.2684 11.3366 11.2Z" fill="#FF9A00"/>
</svg>
