<svg width="17" height="16" viewBox="0 0 17 16" fill="none" xmlns="http://www.w3.org/2000/svg">
<g clip-path="url(#clip0_2_276)">
<path d="M3.58333 0H13.9167C15.4833 0 16.75 1.29915 16.75 2.90598V13.094C16.75 14.7009 15.4833 16 13.9167 16H3.58333C2.01667 16 0.75 14.7009 0.75 13.094V2.90598C0.75 1.29915 2.01667 0 3.58333 0Z" fill="#49021F"/>
<path d="M6.56333 4.18466V11.2274C6.56333 11.3026 6.52999 11.3368 6.46999 11.3368H5.16333C5.10333 11.3368 5.07666 11.3026 5.07666 11.2274V4.18466C5.07666 4.12312 5.10999 4.09577 5.16999 4.09577H6.46999C6.50999 4.08893 6.54999 4.11628 6.55666 4.16414C6.56333 4.17098 6.56333 4.17782 6.56333 4.18466Z" fill="#FF3366"/>
<path d="M10.4167 11.4188C9.92332 11.4257 9.42999 11.3231 8.98332 11.1111C8.56332 10.9128 8.21666 10.5846 7.97666 10.1812C7.72999 9.76413 7.60999 9.24447 7.60999 8.62225C7.60332 8.11626 7.72999 7.61712 7.97666 7.17951C8.22999 6.73507 8.59666 6.36583 9.03666 6.11968C9.50332 5.85301 10.0633 5.7231 10.7233 5.7231C10.7567 5.7231 10.8033 5.7231 10.8633 5.72994C10.9233 5.73678 10.99 5.73678 11.07 5.74361V3.58293C11.07 3.53507 11.09 3.50772 11.1367 3.50772H12.49C12.5233 3.50088 12.55 3.52823 12.5567 3.55558V3.56925V10.0787C12.5567 10.2017 12.5633 10.3385 12.57 10.4889C12.5833 10.6325 12.59 10.7693 12.5967 10.8855C12.5967 10.9334 12.5767 10.9744 12.53 10.9949C12.1833 11.1453 11.8167 11.2547 11.4433 11.3231C11.11 11.3846 10.7633 11.4188 10.4167 11.4188ZM11.07 10.0513V7.04276C11.01 7.02908 10.95 7.01541 10.89 7.00857C10.8167 7.00173 10.7433 6.99489 10.67 6.99489C10.41 6.99489 10.15 7.0496 9.91666 7.17267C9.68999 7.28891 9.49666 7.45985 9.34999 7.67866C9.20332 7.89746 9.12999 8.19148 9.12999 8.54703C9.12332 8.78635 9.16332 9.02566 9.24332 9.25131C9.30999 9.43592 9.40999 9.60002 9.54332 9.73677C9.66999 9.85985 9.82332 9.95558 9.99666 10.0103C10.1767 10.0718 10.3633 10.0992 10.55 10.0992C10.65 10.0992 10.7433 10.0923 10.83 10.0855C10.9167 10.0923 10.9967 10.0787 11.07 10.0513Z" fill="#FF3366"/>
</g>
<defs>
<clipPath id="clip0_2_276">
<rect width="16" height="16" fill="white" transform="translate(0.75)"/>
</clipPath>
</defs>
</svg>
