<svg width="16" height="16" viewBox="0 0 16 16" fill="none" xmlns="http://www.w3.org/2000/svg">
<path d="M0 0V15.625H15.625V0H0ZM8.26488 13.3141C8.03425 13.7828 7.594 14.0906 7.08388 14.2393C6.3 14.4193 5.55025 14.3166 4.9925 13.9819C4.61925 13.7529 4.32775 13.4004 4.12988 12.9943L5.31987 12.2655C5.33025 12.2699 5.3615 12.3264 5.40325 12.3994C5.555 12.6536 5.68587 12.8336 5.94312 12.96C6.19587 13.0463 6.75075 13.1014 6.965 12.6566C7.09588 12.4304 7.05425 11.7031 7.05425 10.8985C7.05412 9.63413 7.06 8.375 7.06 7.125H8.52363C8.52363 8.5 8.53113 9.80225 8.52363 11.144C8.52675 11.9665 8.59813 12.6997 8.26488 13.3141ZM14.3366 12.9006C13.8279 14.6409 10.9914 14.6974 9.85787 13.5476C9.61837 13.277 9.46825 13.1356 9.32537 12.8232C9.92775 12.4767 9.92775 12.4767 10.5139 12.1376C10.8322 12.627 11.1266 12.8961 11.6562 13.0063C12.3748 13.094 13.0976 12.8471 12.9355 12.084C12.7689 11.4607 11.4642 11.3091 10.5764 10.6426C9.675 10.0372 9.46375 8.56625 10.2045 7.72575C10.4514 7.41488 10.8724 7.18287 11.3141 7.07137L11.7751 7.01175C12.6602 6.99388 13.2135 7.22763 13.6196 7.68113C13.7326 7.79563 13.8249 7.91913 13.9974 8.18675C13.5259 8.48725 13.5274 8.48438 12.852 8.92163C12.7078 8.61088 12.4684 8.41588 12.2154 8.33113C11.8226 8.21212 11.3274 8.3415 11.2246 8.7565C11.189 8.88438 11.1964 9.00338 11.253 9.21463C11.4121 9.5775 11.9461 9.73525 12.4251 9.95537C13.804 10.5146 14.2696 11.1143 14.3841 11.828C14.4944 12.4425 14.3575 12.8411 14.3366 12.9006Z" fill="#F0DB4F"/>
</svg>
