<svg width="12" height="13" viewBox="0 0 12 13" fill="none" xmlns="http://www.w3.org/2000/svg">
<path d="M11.5028 0.125H5.72559C5.72559 1.565 6.89109 2.731 8.33146 2.731H9.39396V3.75925C9.39396 5.19925 10.56 6.36525 12 6.36525V0.622125C11.9999 0.49031 11.9475 0.363922 11.8542 0.270714C11.761 0.177507 11.6347 0.125099 11.5028 0.125Z" fill="#2684FF"/>
<path d="M8.64017 3.00501H2.86279C2.86279 4.44488 4.02842 5.61088 5.46829 5.61088H6.53129V6.63913C6.53129 8.07913 7.69729 9.24513 9.13729 9.24513V3.50201C9.13709 3.37022 9.08466 3.24389 8.99147 3.15071C8.89828 3.05752 8.77195 3.00521 8.64017 3.00501Z" fill="url(#paint0_linear_2_322)"/>
<path d="M5.77738 5.88477H0C0 7.32527 1.1655 8.49077 2.606 8.49077H3.6685V9.51952C3.6685 10.9595 4.8345 12.125 6.27437 12.125V6.38239C6.27424 6.25057 6.22185 6.12418 6.12869 6.03093C6.03553 5.93767 5.90919 5.88503 5.77738 5.88477Z" fill="url(#paint1_linear_2_322)"/>
<defs>
<linearGradient id="paint0_linear_2_322" x1="9.01704" y1="3.01151" x2="6.55904" y2="5.54601" gradientUnits="userSpaceOnUse">
<stop offset="0.176" stop-color="#0052CC"/>
<stop offset="1" stop-color="#2684FF"/>
</linearGradient>
<linearGradient id="paint1_linear_2_322" x1="6.3205" y1="5.90702" x2="3.4785" y2="8.67202" gradientUnits="userSpaceOnUse">
<stop offset="0.176" stop-color="#0052CC"/>
<stop offset="1" stop-color="#2684FF"/>
</linearGradient>
</defs>
</svg>
