<svg width="16" height="16" viewBox="0 0 16 16" fill="none" xmlns="http://www.w3.org/2000/svg">
<path d="M3.18814 0.0139C3.16314 0.02365 2.46064 0.4239 1.62727 0.9029C0.617517 1.4834 0.0988919 1.78915 0.0711419 1.8179C0.0473919 1.84602 0.0286419 1.87815 0.0163919 1.9129C-0.00448313 1.9834 -0.00598313 12.286 0.0151419 12.3601C0.0227669 12.3889 0.0476419 12.4312 0.0701419 12.4544C0.124642 12.5119 6.15314 15.9781 6.22639 15.9949C6.26039 16.003 6.29852 16.0016 6.33639 15.9911C6.41864 15.9705 12.4314 12.5119 12.4849 12.4554C12.5068 12.431 12.5318 12.3889 12.5399 12.3603C12.5504 12.3261 12.5543 11.7878 12.5543 10.6534V8.9959L14.02 8.15403C15.402 7.3594 15.4866 7.30965 15.5221 7.25515L15.5584 7.1964V5.41103C15.5584 3.46753 15.5621 3.5769 15.4853 3.50665C15.4646 3.4884 14.7605 3.07753 13.919 2.5929L12.3905 1.7139H12.2206L10.7253 2.57265C9.90202 3.04615 9.20227 3.45103 9.16814 3.47303C9.13414 3.49553 9.09352 3.53702 9.07689 3.56715L9.04664 3.61927L9.03989 5.30115L9.03389 6.98365L7.79902 7.6949C7.11977 8.0854 6.55439 8.40865 6.54239 8.41165C6.52052 8.41778 6.51902 8.25765 6.51902 5.1659V1.91177L6.48652 1.8559C6.44577 1.78777 6.62852 1.8964 4.79352 0.84165C3.25464 -0.04335 3.29164 -0.02485 3.18814 0.0139ZM4.60277 1.30227C5.24652 1.67165 5.77327 1.97728 5.77327 1.98102C5.77327 1.9849 5.20877 2.31115 4.51889 2.70765L3.26377 3.42827L2.01089 2.70777C1.32252 2.31115 0.758392 1.9849 0.758392 1.98102C0.758392 1.97728 1.32152 1.65102 2.01002 1.2554L3.25989 0.5364L3.34614 0.5834C3.76577 0.821775 4.18464 1.0614 4.60277 1.30227ZM13.5613 2.9599C14.239 3.35015 14.7998 3.67265 14.805 3.6779C14.8193 3.69078 12.3333 5.11978 12.2993 5.11828C12.2653 5.11728 9.80989 3.7014 9.81089 3.68415C9.81214 3.66453 12.2825 2.24327 12.3075 2.24715C12.3189 2.2499 12.8834 2.5709 13.5613 2.9599ZM1.81677 3.16615L3.01152 3.85402L3.01839 7.2599L3.02464 10.6664L3.05377 10.7124C3.06902 10.7366 3.09777 10.7698 3.11877 10.785C3.13852 10.7994 3.80339 11.1783 4.59602 11.6255L6.03602 12.4388V13.8797C6.03602 14.6704 6.03064 15.3191 6.02389 15.3191C6.01877 15.3191 4.77389 14.6068 3.25839 13.7346L0.503392 12.1503L0.499642 7.27953L0.497267 2.41027L0.558517 2.44415C0.593892 2.4629 1.15939 2.78765 1.81664 3.16602L1.81677 3.16615ZM6.03602 5.56365V8.70227L5.98764 8.7339C5.92202 8.7754 3.52927 10.1508 3.52114 10.1508C3.51739 10.1508 3.51439 8.73378 3.51439 7.00165L3.51589 3.8539L4.76589 3.1349C5.45327 2.73927 6.02014 2.41828 6.02689 2.42065C6.03177 2.42365 6.03602 3.83815 6.03602 5.56365ZM10.8048 4.84178L12.0576 5.56215V6.99015C12.0576 8.3449 12.0563 8.41765 12.0356 8.40977C12.0223 8.40465 11.4554 8.07977 10.7753 7.68802L9.53652 6.97678V5.54928C9.53652 4.7634 9.54052 4.12128 9.54427 4.12128C9.54964 4.12128 10.1164 4.44528 10.8048 4.84178ZM15.0753 5.54015C15.0753 6.3219 15.07 6.96665 15.0648 6.9729C15.0558 6.98728 12.5778 8.41515 12.562 8.41515C12.5581 8.41515 12.5543 7.77328 12.5543 6.98728V5.55978L13.8043 4.84028C14.4926 4.44528 15.0595 4.12128 15.0648 4.12128C15.0714 4.12128 15.0753 4.7594 15.0753 5.54015ZM11.7784 8.86677L6.27989 12.0051L3.78627 10.5868C3.78627 10.5868 9.27927 7.40977 9.30127 7.41803L11.7784 8.86677ZM12.0553 10.7201L12.051 12.1504L9.29752 13.7349C7.78252 14.6069 6.53727 15.3193 6.53102 15.3193C6.52439 15.3193 6.51914 14.737 6.51914 13.8798V12.4389L9.27914 10.8649C10.7956 9.99953 12.0418 9.29115 12.0484 9.28965C12.0538 9.28965 12.0561 9.93315 12.0551 10.72L12.0553 10.7201Z" fill="#F0513F"/>
</svg>
