<svg width="16" height="16" viewBox="0 0 16 16" fill="none" xmlns="http://www.w3.org/2000/svg">
<path fill-rule="evenodd" clip-rule="evenodd" d="M15.2876 7.32937C15.2126 7.167 15.1764 6.97487 15.1686 6.794C15.1494 6.34887 15.1658 5.90212 15.1456 5.457C15.1276 5.05837 14.9854 4.69912 14.6026 4.49362C14.2656 4.31275 13.875 4.29475 13.5 4.2905V5.00187C13.625 5.00612 13.5942 5.01 13.6248 5.01162C14.1284 5.03637 14.2971 5.19612 14.3035 5.69575C14.3083 6.06725 14.305 6.439 14.311 6.81037C14.3184 7.261 14.3856 7.69112 14.7978 7.97562C14.8048 7.9805 14.8041 7.99837 14.8081 8.01912C14.5984 8.16812 14.4324 8.36 14.3841 8.62187C14.3455 8.83459 14.323 9.0499 14.3166 9.266C14.3046 9.65575 14.317 10.0464 14.3059 10.4361C14.2971 10.7414 14.1525 10.8846 13.8554 10.9526C13.7435 10.9784 13.625 10.9875 13.5 11.0034V11.713C13.75 11.698 13.8771 11.6881 14.0484 11.6696C14.6929 11.5999 15.0557 11.2645 15.1301 10.6392C15.1534 10.4432 15.1507 10.2435 15.1551 10.0455C15.1634 9.67437 15.1591 9.3015 15.1924 8.93262C15.2263 8.55625 15.5 8.34825 15.875 8.369V7.62512C15.625 7.66987 15.3946 7.56175 15.2876 7.32937ZM3.53925 8.846C3.53912 7.40237 3.5 5.95875 3.5 4.51525V4.28812C3.125 4.28812 2.72175 4.2845 2.32612 4.28987C2.1655 4.292 2.02387 4.30575 1.86462 4.3275C1.255 4.4105 0.961125 4.69662 0.853125 5.304C0.821875 5.47925 0.828125 5.66137 0.8255 5.84062C0.820625 6.18137 0.830375 6.52225 0.824875 6.86287C0.818 7.29187 0.615875 7.62437 0.178375 7.64962C0.162875 7.6505 0.25 7.66837 0.125 7.67912V8.34225C0.625 8.42075 0.784125 8.62262 0.817375 9.08712C0.822625 9.16112 0.824 9.23575 0.82475 9.31012C0.829 9.72512 0.82425 10.1407 0.843 10.555C0.860625 10.9416 0.9465 11.2871 1.31187 11.49C1.65313 11.6795 2.125 11.6949 2.375 11.7047V10.9967C2.375 10.9907 2.34875 10.9852 2.32437 10.9837C1.782 10.9506 1.65975 10.8034 1.6565 10.2606C1.65437 9.90125 1.66975 9.54187 1.664 9.1825C1.65675 8.731 1.59075 8.30275 1.182 8.017C1.17575 8.01262 1.18187 7.99412 1.17988 7.96912C1.45475 7.79537 1.60088 7.52962 1.64062 7.20737C1.66262 7.02962 1.67 6.84937 1.67313 6.67C1.67938 6.29837 1.67275 5.92637 1.68288 5.555C1.69 5.294 1.85663 5.10375 2.06925 5.061C2.27075 5.02037 2.375 5.02162 2.75 5.00275V5.25975C2.75 6.5485 2.70412 7.83712 2.71088 9.12587C2.71325 9.56725 2.76213 10.0024 3.23525 10.193C3.4925 10.2966 3.76812 10.3285 4.06362 10.3982C4.113 10.1092 4.12912 9.8695 4.1695 9.63225C3.62487 9.476 3.53925 9.395 3.53925 8.846ZM6.8735 6.35937C5.956 5.92062 4.8425 6.30425 4.41525 7.2245C4.0935 7.9175 4.105 8.63075 4.38825 9.3335C4.54187 9.7145 4.8195 9.99975 5.19737 10.1675C5.93537 10.4951 6.68225 10.4155 7.42637 10.1855C7.4665 10.173 7.51775 10.0957 7.51288 10.0547C7.4875 9.84712 7.44537 9.6415 7.40775 9.42712C7.23063 9.47175 7.08262 9.51737 6.93138 9.54575C6.53175 9.62087 6.13125 9.62075 5.74237 9.46612C5.35838 9.31362 5.1005 8.87487 5.16463 8.49987H7.77362C7.8055 8.12487 7.79288 7.60925 7.63325 7.18287C7.49075 6.80175 7.24475 6.537 6.8735 6.35937ZM6.868 7.875H5.1535C5.15438 7.375 5.5615 6.92625 6.09562 6.9365C6.56475 6.9455 6.88925 7.375 6.868 7.875ZM13.8815 9.40987C13.943 8.77812 13.7522 8.42262 13.1897 8.14812C12.9902 8.05075 12.7785 7.97862 12.5752 7.88837C12.4231 7.82087 12.27 7.7525 12.1278 7.667C11.9893 7.58387 11.9312 7.44587 11.9517 7.28425C11.9719 7.12462 12.0745 7.01937 12.2227 6.98937C12.4024 6.95287 12.5906 6.92162 12.7712 6.93637C13.0265 6.95725 13.2782 7.02262 13.5416 7.07075L13.7081 6.3435C13.3518 6.28925 13.0195 6.21912 12.6838 6.19262C12.3104 6.16325 11.9467 6.22525 11.605 6.40137C10.8829 6.7735 10.8696 7.91587 11.5332 8.29087C11.7315 8.40287 11.9436 8.49037 12.1499 8.58837C12.367 8.69175 12.592 8.78162 12.7998 8.90137C12.9575 8.99225 13.0139 9.15087 12.9716 9.33575C12.9325 9.50762 12.8024 9.58425 12.6495 9.59887C12.417 9.621 12.1785 9.64225 11.9484 9.61487C11.6712 9.58187 11.4 9.49775 11.1161 9.4335L10.9714 10.1572C11.638 10.4075 12.2976 10.4485 12.9636 10.3009C13.521 10.1774 13.8385 9.85137 13.8815 9.40987ZM10.3296 8.22837C10.0848 8.0985 9.82138 8.00375 9.56863 7.888C9.41175 7.81612 9.24563 7.75375 9.10738 7.65412C8.8415 7.4625 8.891 7.09512 9.20063 6.99687C9.37825 6.94037 9.57912 6.92287 9.76575 6.93687C10.02 6.956 10.2709 7.02175 10.536 7.06975L10.6932 6.3765C10.5586 6.33987 10.4368 6.3 10.3119 6.27375C9.8155 6.16925 9.3165 6.12875 8.82763 6.30062C8.40763 6.44837 8.11625 6.72462 8.05863 7.18937C7.99413 7.70837 8.16625 8.11812 8.64563 8.36462C8.8375 8.46337 9.04313 8.535 9.239 8.6265C9.4345 8.71775 9.63412 8.80487 9.81575 8.91937C9.95463 9.00687 10.0094 9.155 9.97025 9.32625C9.93138 9.496 9.80762 9.5815 9.65362 9.59737C9.42112 9.62125 9.1825 9.64337 8.95225 9.6165C8.674 9.584 8.40187 9.49962 8.113 9.43462C8.07037 9.63625 8.02038 9.83937 7.98925 10.0452C7.9825 10.09 8.03238 10.176 8.07438 10.1906C8.74738 10.4239 9.43237 10.4574 10.1169 10.2557C10.5256 10.1355 10.8115 9.87437 10.8691 9.42787C10.9345 8.921 10.8136 8.48487 10.3296 8.22837Z" fill="#2A4D80"/>
</svg>
