<svg width="17" height="16" viewBox="0 0 17 16" fill="none" xmlns="http://www.w3.org/2000/svg">
<path d="M15.2202 12.1294C14.3486 12.1055 13.6831 12.187 13.1137 12.4268C12.9521 12.4952 12.6943 12.4967 12.6679 12.6993C12.7568 12.7925 12.7704 12.9317 12.8413 13.0464C12.9771 13.2657 13.2066 13.5605 13.4112 13.7154C13.6348 13.8839 13.8653 14.0645 14.1051 14.2105C14.5318 14.4708 15.0079 14.6193 15.4181 14.8795C15.6603 15.0333 15.9004 15.2267 16.1368 15.4C16.2536 15.4855 16.3322 15.6188 16.4834 15.6725V15.6482C16.4038 15.5467 16.3833 15.4069 16.3101 15.301L15.9878 14.9788C15.6728 14.5608 15.2729 14.1937 14.8482 13.8889C14.5093 13.6453 13.7506 13.3167 13.6094 12.9227L13.5846 12.8978C13.8248 12.8704 14.1061 12.7835 14.3282 12.7239C14.7007 12.6243 15.0338 12.6502 15.4181 12.5505L15.9386 12.4022V12.303C15.7442 12.1038 15.6056 11.8397 15.3937 11.659C14.8386 11.1864 14.2331 10.7147 13.6096 10.3212C13.2638 10.1029 12.8366 9.96079 12.4699 9.77579C12.3464 9.71379 12.1301 9.68104 12.0486 9.57754C11.8562 9.33241 11.7512 9.02141 11.6028 8.73529C11.2918 8.13616 10.9866 7.48241 10.7107 6.85204C10.5227 6.42241 10.4002 5.99854 10.1658 5.61329C9.0408 3.76366 7.82993 2.64704 5.95393 1.54979C5.55455 1.31641 5.07405 1.22416 4.56618 1.10354L3.7483 1.05416C3.5818 0.984787 3.40893 0.781162 3.25268 0.682037C2.6313 0.289162 1.03705 -0.564838 0.576553 0.558162C0.286053 1.26666 1.01118 1.95804 1.27043 2.31741C1.45255 2.56891 1.68543 2.85154 1.8153 3.13479C1.9013 3.32129 1.91593 3.50779 1.98918 3.70466C2.16893 4.19004 2.32605 4.71829 2.55905 5.16654C2.67668 5.39354 2.80655 5.63241 2.95555 5.83554C3.04643 5.96004 3.20305 6.01529 3.22805 6.20716C3.07468 6.42154 3.06593 6.75404 2.98005 7.02504C2.5928 8.24629 2.7393 9.76379 3.3023 10.6672C3.47518 10.945 3.88243 11.5397 4.44193 11.3117C4.93168 11.1119 4.8223 10.4943 4.96243 9.94891C4.99418 9.82541 4.97468 9.73454 5.03668 9.65154V9.67641L5.48293 10.568C5.81305 11.0998 6.39843 11.6554 6.89505 12.0304C7.15243 12.2248 7.35505 12.5607 7.68805 12.6744V12.6495H7.66318C7.59868 12.5489 7.49768 12.5074 7.41568 12.4269C7.2218 12.2365 7.00605 12.0002 6.8458 11.7824C6.39418 11.1697 5.99518 10.4987 5.63193 9.80054C5.45805 9.46704 5.30718 9.09941 5.16068 8.76004C5.10405 8.62916 5.10505 8.43091 4.9873 8.36354C4.82718 8.61204 4.5908 8.81329 4.4668 9.10666C4.26905 9.57591 4.24318 10.1487 4.16993 10.7419C4.12643 10.7575 4.14555 10.7468 4.12018 10.7668C3.77493 10.6833 3.65393 10.3283 3.52543 10.0232C3.20118 9.25266 3.14068 8.01191 3.4263 7.12429C3.50005 6.89479 3.83405 6.17216 3.6988 5.95979C3.6343 5.74841 3.42143 5.62579 3.3023 5.46416C3.1548 5.26441 3.00793 5.00129 2.9058 4.77029C2.64018 4.16966 2.51668 3.49491 2.2368 2.88754C2.10305 2.59704 1.87743 2.30304 1.69193 2.04529C1.4863 1.75916 1.25643 1.54816 1.09718 1.20254C1.04055 1.07954 0.963928 0.882662 1.04743 0.756787C1.0743 0.671287 1.11193 0.635662 1.1963 0.607912C1.3398 0.497037 1.7403 0.645037 1.88968 0.707037C2.28718 0.872037 2.61868 1.02929 2.95555 1.25241C3.11668 1.35929 3.2803 1.56641 3.47555 1.62404H3.69868C4.0473 1.70416 4.43793 1.64841 4.76405 1.74754C5.34018 1.92279 5.8563 2.19529 6.32505 2.49116C7.7528 3.39304 8.9208 4.67616 9.71955 6.20791C9.84793 6.45454 9.90368 6.68941 10.0169 6.95104C10.2449 7.47841 10.5326 8.02091 10.7596 8.53704C10.9866 9.05116 11.2073 9.57079 11.5281 9.99891C11.6966 10.224 12.3469 10.3447 12.6428 10.4697C12.8503 10.557 13.1902 10.6484 13.3864 10.767C13.7614 10.9932 14.1247 11.2627 14.4768 11.5102C14.6521 11.6342 15.1931 11.9062 15.2199 12.1298L15.2202 12.1294ZM4.14455 2.68941C3.96293 2.68604 3.83455 2.70891 3.6988 2.73879V2.76366H3.72318C3.81005 2.94141 3.96293 3.05616 4.0703 3.20941L4.3178 3.72991L4.34268 3.70554C4.49605 3.59716 4.5663 3.42429 4.5653 3.16016C4.5038 3.09516 4.49505 3.01466 4.4413 2.93704C4.37105 2.83404 4.2338 2.77591 4.14443 2.68954L4.14455 2.68941Z" fill="#00618A"/>
</svg>
