<svg width="17" height="15" viewBox="0 0 17 15" fill="none" xmlns="http://www.w3.org/2000/svg">
<path d="M10.8912 9.32566H9.79407L9.70232 9.23403V6.66578C9.70232 6.20878 9.52282 5.85466 8.97182 5.84228C8.6882 5.83478 8.36382 5.84228 8.01707 5.85603L7.96507 5.90916V9.23278L7.87345 9.32441H6.7762L6.68457 9.23278V4.84553L6.7762 4.75391H9.24532C10.2049 4.75391 10.9827 5.53141 10.9827 6.49116V9.23403L10.8912 9.32566Z" fill="#014847"/>
<path d="M8.20149 13.9878V10.6966L8.29312 10.6048H9.39274L9.48437 10.6964V13.9878L9.39274 14.0794H8.29324L8.20149 13.9878ZM8.20149 3.38306V0.0918111L8.29312 6.10352e-05H9.39274L9.48437 0.091686V3.38306L9.39274 3.47469H8.29324L8.20149 3.38306ZM16.7434 7.68119H12.3549L12.2632 7.58956V6.49006L12.3549 6.39844H16.7434L16.835 6.49006V7.58969L16.7434 7.68119ZM5.31387 7.68119H0.925365L0.83374 7.58956V6.49006L0.925365 6.39844H5.31387L5.40549 6.49006V7.58969L5.31387 7.68119ZM4.25262 3.22706V3.07594L5.00687 2.32181H5.15787L6.31074 3.47469V4.27344L6.20424 4.37994H5.40549L4.25262 3.22706ZM5.15787 11.7564H5.00687L4.25274 11.0023V10.8512L5.40562 9.69844H6.20437L6.31074 9.80481V10.6036L5.15787 11.7564Z" fill="#05BDBA"/>
</svg>
