<svg width="17" height="13" viewBox="0 0 17 13" fill="none" xmlns="http://www.w3.org/2000/svg">
<path d="M5.26699 11.6676L5.23149 11.5968C5.16062 11.4549 5.16062 11.313 5.19612 11.1356H1.36599L7.04037 1.06387L9.41649 5.35513L10.1966 4.78763L7.82049 0.496375C7.78512 0.4255 7.50137 0 7.04037 0C6.82749 0 6.50837 0.0708751 6.26012 0.531875L0.514869 10.7101C0.479369 10.8166 0.231119 11.2776 0.443869 11.6676C0.585744 11.8805 0.798619 12.0933 1.29512 12.0933H6.11824C5.62174 12.0933 5.37349 11.8804 5.26699 11.6676Z" fill="#00C58E"/>
<path d="M16.1899 10.7451L11.5795 2.44649C11.5086 2.37561 11.2604 1.91449 10.7993 1.91449C10.5865 1.91449 10.2674 2.02086 10.0191 2.44649L9.41626 3.43949V5.35461L10.7994 2.97849L15.3743 11.1352H13.6365C13.6656 11.3041 13.6407 11.4778 13.5655 11.6317L13.53 11.6672C13.3173 12.0572 12.7853 12.0927 12.7144 12.0927H15.4096C15.516 12.0927 16.0125 12.0574 16.2608 11.6672C16.3671 11.4899 16.4381 11.1707 16.1899 10.7451Z" fill="#108775"/>
<path d="M13.6725 11.6676V11.6321L13.708 11.5613C13.7434 11.4194 13.7789 11.2775 13.7434 11.1356L13.6016 10.7101L9.98438 4.3975L9.45238 3.44H9.41688L8.88488 4.3975L5.26763 10.71L5.12588 11.1356C5.09152 11.316 5.11638 11.5026 5.19676 11.6676C5.33863 11.8804 5.55138 12.0933 6.04788 12.0933H12.7861C12.8925 12.0933 13.4245 12.0578 13.6728 11.6676H13.6725ZM9.41676 5.355L12.715 11.1356H6.11863L9.41676 5.355Z" fill="#2F495E"/>
</svg>
