<svg width="17" height="16" viewBox="0 0 17 16" fill="none" xmlns="http://www.w3.org/2000/svg">
<path d="M3.58337 0H13.9166C15.4834 0 16.75 1.26662 16.75 2.83337V12.7666C16.75 14.3334 15.4834 15.6 13.9166 15.6H3.58337C2.01662 15.6 0.75 14.3334 0.75 12.7666V2.83337C0.75 1.26662 2.01662 0 3.58337 0Z" fill="#001E36"/>
<path d="M6.48335 3.96661C6.28335 3.96661 6.08335 3.96661 5.87673 3.97336C5.66998 3.97999 5.4766 3.97999 5.2966 3.98674C5.1166 3.99336 4.94998 3.99336 4.78998 3.99999C4.6366 4.00661 4.52998 4.00661 4.4166 4.00661C4.36998 4.00661 4.34998 4.03324 4.34998 4.07999V10.94C4.34998 11 4.3766 11.0267 4.42998 11.0267H5.72335C5.76998 11.02 5.80335 10.98 5.7966 10.9334V8.79336C5.92323 8.79336 6.0166 8.79336 6.08335 8.79999C6.14998 8.80661 6.2566 8.80661 6.4166 8.80661C6.96335 8.80661 7.46335 8.74661 7.9166 8.57999C8.34998 8.41999 8.72335 8.13999 8.98998 7.76661C9.2566 7.39336 9.38998 6.91999 9.38998 6.34661C9.38998 6.04661 9.33673 5.75999 9.23673 5.47999C9.13083 5.19469 8.96483 4.9355 8.74998 4.71999C8.49646 4.47369 8.19128 4.28692 7.8566 4.17324C7.48323 4.03324 7.02998 3.96661 6.48335 3.96661ZM6.6321 5.27974C6.8696 5.28424 7.10085 5.32574 7.3166 5.41324C7.50998 5.48661 7.66998 5.61999 7.78335 5.79324C7.88981 5.97249 7.94302 6.17835 7.93673 6.38674C7.93673 6.67999 7.86998 6.90674 7.72998 7.07336C7.58323 7.23999 7.3966 7.36674 7.18335 7.42674C6.9366 7.50674 6.6766 7.54661 6.4166 7.54661H6.06323C5.98323 7.54661 5.89673 7.53999 5.80335 7.53336V5.29336C5.84998 5.28661 5.94335 5.27999 6.07673 5.28674C6.20335 5.27999 6.3566 5.27999 6.52998 5.27999C6.5641 5.27911 6.59823 5.27899 6.6321 5.27974ZM12.2234 5.62011C11.75 5.62011 11.3566 5.69336 11.0434 5.85336C10.7567 5.98674 10.51 6.19999 10.3434 6.46661C10.1967 6.71336 10.1166 6.98661 10.1166 7.27336C10.1109 7.50921 10.1636 7.74281 10.27 7.95336C10.3947 8.17755 10.5678 8.37112 10.7767 8.51999C11.07 8.72054 11.3882 8.8819 11.7234 8.99999C12.05 9.12661 12.27 9.22661 12.3767 9.31324C12.4834 9.39999 12.5367 9.48661 12.5367 9.57999C12.5367 9.69999 12.4634 9.81336 12.3567 9.85999C12.2367 9.91999 12.0567 9.95336 11.8034 9.95336C11.5367 9.95336 11.27 9.91999 11.0166 9.85336C10.7257 9.78832 10.4468 9.67811 10.19 9.52674C10.17 9.51336 10.15 9.50674 10.13 9.52011C10.11 9.53336 10.1034 9.55999 10.1034 9.57999V10.74C10.0967 10.7934 10.13 10.84 10.1767 10.8666C10.3929 10.9676 10.6216 11.0394 10.8567 11.08C11.1567 11.14 11.4566 11.1666 11.7632 11.1666C12.2432 11.1666 12.6434 11.0934 12.97 10.9534C13.27 10.8334 13.53 10.6267 13.7166 10.36C13.8913 10.0977 13.982 9.78845 13.9766 9.47336C13.9831 9.23533 13.9305 8.99941 13.8234 8.78674C13.6966 8.55999 13.5166 8.37336 13.2966 8.23336C12.9747 8.03127 12.6301 7.86789 12.27 7.74661C12.1091 7.68007 11.9512 7.60667 11.7966 7.52661C11.71 7.47999 11.63 7.41999 11.57 7.34661C11.53 7.29324 11.5034 7.23336 11.5034 7.17336C11.5034 7.11336 11.5234 7.04674 11.5566 6.99336C11.6034 6.92674 11.6766 6.87999 11.7632 6.85999C11.89 6.82674 12.03 6.80661 12.1632 6.81324C12.4166 6.81324 12.6632 6.84661 12.91 6.89999C13.1367 6.94661 13.35 7.01999 13.55 7.12674C13.5766 7.13999 13.61 7.13999 13.67 7.12674C13.6804 7.11905 13.6889 7.10898 13.6947 7.09738C13.7005 7.08578 13.7035 7.07296 13.7034 7.05999V5.97336C13.7034 5.94661 13.6966 5.91999 13.69 5.89336C13.6766 5.86674 13.65 5.83999 13.6234 5.83336C13.4395 5.75816 13.2468 5.70663 13.05 5.67999C12.7762 5.64012 12.5 5.6202 12.2234 5.62011Z" fill="#31A8FF"/>
</svg>
