<svg width="16" height="9" viewBox="0 0 16 9" fill="none" xmlns="http://www.w3.org/2000/svg">
<path d="M0 4.20844C0 6.53256 3.58175 8.41681 8 8.41681C12.4183 8.41681 16 6.53256 16 4.20844C16 1.88431 12.4181 6.10352e-05 8 6.10352e-05C3.58175 6.10352e-05 0 1.88431 0 4.20844Z" fill="url(#paint0_radial_2_447)"/>
<path d="M8 8.10431C12.2456 8.10431 15.6875 6.35994 15.6875 4.20844C15.6875 2.05669 12.2456 0.312561 8 0.312561C3.75437 0.312561 0.3125 2.05669 0.3125 4.20844C0.3125 6.35994 3.75437 8.10431 8 8.10431Z" fill="#777BB3"/>
<path d="M4.34657 4.69143C4.69569 4.69143 4.95619 4.62705 5.12107 4.50018C5.28432 4.37443 5.39694 4.1568 5.45607 3.8533C5.51107 3.56955 5.49007 3.37155 5.39357 3.26455C5.29507 3.1553 5.08194 3.09993 4.76019 3.09993H4.20219L3.89307 4.69143H4.34657ZM2.52169 6.6518C2.50889 6.65178 2.49625 6.64893 2.48468 6.64345C2.47311 6.63797 2.46289 6.63 2.45477 6.62011C2.44664 6.61021 2.44081 6.59864 2.43768 6.58623C2.43456 6.57381 2.43422 6.56086 2.43669 6.5483L3.25632 2.33105C3.26019 2.31134 3.27078 2.29357 3.28628 2.28079C3.30177 2.268 3.32122 2.26098 3.34132 2.26093H5.10807C5.66332 2.26093 6.07657 2.41168 6.33644 2.70905C6.59744 3.0078 6.67819 3.4258 6.57607 3.95093C6.53444 4.1648 6.46294 4.36343 6.36357 4.54143C6.26012 4.72451 6.12813 4.88992 5.97257 5.03143C5.78119 5.21043 5.56457 5.34043 5.32919 5.4168C5.09769 5.4923 4.80019 5.53055 4.44544 5.53055H3.72994L3.52569 6.58155C3.52183 6.60133 3.51122 6.61915 3.49567 6.63197C3.48012 6.64479 3.46059 6.6518 3.44044 6.6518H2.52169Z" fill="black"/>
<path d="M4.27378 3.1867H4.76016C5.14853 3.1867 5.28341 3.27195 5.32928 3.32282C5.40516 3.40707 5.41966 3.58495 5.37066 3.83682C5.31578 4.11895 5.21403 4.31907 5.06816 4.43132C4.91891 4.54632 4.67591 4.60457 4.34653 4.60457H3.99828L4.27391 3.18682L4.27378 3.1867ZM5.10803 2.1742H3.34141C3.30112 2.1742 3.26209 2.1882 3.23099 2.21381C3.19988 2.23942 3.17865 2.27504 3.17091 2.31457L2.35128 6.53195C2.34644 6.55707 2.34721 6.58295 2.35353 6.60774C2.35985 6.63253 2.37156 6.65562 2.38784 6.67536C2.40412 6.6951 2.42455 6.711 2.44768 6.72193C2.47081 6.73285 2.49607 6.73854 2.52166 6.73857H3.44041C3.48069 6.73853 3.51971 6.7245 3.55079 6.69887C3.58187 6.67324 3.60307 6.63761 3.61078 6.59807L3.80141 5.61732H4.44528C4.80928 5.61732 5.11578 5.57757 5.35616 5.49932C5.60328 5.41907 5.83066 5.28295 6.03191 5.0947C6.19395 4.9471 6.33146 4.77465 6.43928 4.58382C6.54316 4.39795 6.61791 4.19045 6.66116 3.96745C6.76866 3.41457 6.68128 2.97195 6.40166 2.65195C6.12466 2.33482 5.68941 2.17407 5.10803 2.17407V2.1742ZM3.78766 4.77807H4.34653C4.71691 4.77807 4.99278 4.70845 5.17403 4.5687C5.35541 4.4292 5.47753 4.1962 5.54128 3.86982C5.60191 3.55632 5.57428 3.3352 5.45816 3.20632C5.34178 3.07757 5.10928 3.01307 4.76016 3.01307H4.13066L3.78766 4.77807ZM5.10816 2.34745C5.63966 2.34745 6.02728 2.48707 6.27103 2.76595C6.51478 3.04495 6.58803 3.43432 6.49103 3.9342C6.45078 4.1402 6.38316 4.32845 6.28791 4.49895C6.19241 4.6697 6.06791 4.8257 5.91403 4.96732C5.73053 5.13895 5.52691 5.26132 5.30253 5.3342C5.07828 5.4072 4.79253 5.44357 4.44541 5.44357H3.65841L3.44053 6.56482H2.52178L3.34153 2.34745H5.10816Z" fill="white"/>
<path d="M8.68226 5.53058C8.66945 5.5306 8.6568 5.52778 8.6452 5.52232C8.63361 5.51687 8.62338 5.50891 8.61522 5.49903C8.60707 5.48914 8.60121 5.47758 8.59806 5.46516C8.59492 5.45274 8.59456 5.43978 8.59701 5.42721L8.95951 3.56121C8.99414 3.38371 8.98564 3.25646 8.93576 3.20246C8.90514 3.16958 8.81339 3.11446 8.54201 3.11446H7.88501L7.42926 5.46046C7.42535 5.48021 7.4147 5.498 7.39912 5.51076C7.38355 5.52353 7.36402 5.53049 7.34389 5.53046H6.43264C6.41983 5.53047 6.40719 5.52765 6.39561 5.5222C6.38402 5.51675 6.37378 5.50881 6.36563 5.49894C6.35747 5.48908 6.35159 5.47753 6.34842 5.46513C6.34524 5.45273 6.34485 5.43978 6.34726 5.42721L7.16701 1.20983C7.17089 1.19008 7.18152 1.17228 7.19707 1.15949C7.21262 1.1467 7.23213 1.13971 7.25226 1.13971H8.16351C8.17631 1.1397 8.18896 1.14252 8.20054 1.14797C8.21212 1.15342 8.22236 1.16136 8.23052 1.17122C8.23868 1.18109 8.24455 1.19264 8.24773 1.20504C8.2509 1.21744 8.2513 1.23039 8.24889 1.24296L8.05114 2.26096H8.75776C9.29614 2.26096 9.66114 2.35571 9.87376 2.55108C10.0904 2.75021 10.1581 3.06858 10.0748 3.49771L9.69339 5.46046C9.68948 5.48019 9.67884 5.49796 9.6633 5.51073C9.64775 5.52349 9.62825 5.53047 9.60814 5.53046H8.68226V5.53058Z" fill="black"/>
<path d="M8.1637 1.0528H7.25232C7.21202 1.0528 7.17297 1.06682 7.14186 1.09246C7.11076 1.11809 7.08953 1.15374 7.08182 1.1933L6.2622 5.41054C6.25733 5.43568 6.25809 5.46157 6.2644 5.48638C6.2707 5.51118 6.28242 5.53429 6.2987 5.55404C6.31497 5.5738 6.33541 5.58971 6.35856 5.60064C6.3817 5.61158 6.40697 5.61726 6.43257 5.6173H7.34395C7.38425 5.61729 7.4233 5.60327 7.4544 5.57763C7.48551 5.552 7.50673 5.51636 7.51445 5.4768L7.95657 3.20117H8.54182C8.81282 3.20117 8.86982 3.25905 8.87195 3.26167C8.88845 3.27917 8.91007 3.36105 8.87432 3.54467L8.51182 5.41054C8.50696 5.43569 8.50771 5.46159 8.51403 5.48641C8.52034 5.51122 8.53207 5.53433 8.54836 5.55409C8.56465 5.57385 8.58511 5.58976 8.60827 5.60068C8.63143 5.61161 8.65671 5.61728 8.68232 5.6173H9.60832C9.6486 5.61726 9.68762 5.60322 9.7187 5.57759C9.74978 5.55197 9.77099 5.51633 9.7787 5.4768L10.1601 3.5143C10.2494 3.05354 10.1729 2.70805 9.93257 2.48717C9.70307 2.27642 9.31882 2.17405 8.75782 2.17405H8.15657L8.3342 1.25967C8.33908 1.23452 8.33834 1.2086 8.33204 1.18377C8.32573 1.15894 8.31401 1.13581 8.29771 1.11604C8.28142 1.09627 8.26095 1.08035 8.23779 1.06941C8.21462 1.05848 8.18932 1.0528 8.1637 1.0528ZM8.1637 1.22655L7.94582 2.34755H8.75782C9.2687 2.34755 9.6212 2.4368 9.81495 2.61505C10.0091 2.7933 10.0671 3.08192 9.9897 3.4813L9.6082 5.44367H8.68232L9.04495 3.57767C9.0862 3.36542 9.07095 3.22067 8.99932 3.14342C8.9277 3.0663 8.7752 3.02767 8.54207 3.02767H7.81345L7.34395 5.44354H6.43245L7.2522 1.22617H8.1637V1.22655Z" fill="white"/>
<path d="M11.5171 4.69143C11.8662 4.69143 12.1268 4.62705 12.2918 4.50018C12.4548 4.37443 12.5676 4.1568 12.6267 3.8533C12.6817 3.56955 12.6608 3.37155 12.5642 3.26455C12.4657 3.1553 12.2526 3.09993 11.9308 3.09993H11.373L11.0636 4.69143H11.5171ZM9.6926 6.6518C9.67977 6.65182 9.6671 6.649 9.6555 6.64353C9.6439 6.63807 9.63366 6.6301 9.6255 6.6202C9.61735 6.61031 9.61149 6.59872 9.60835 6.58629C9.60521 6.57386 9.60487 6.56088 9.60735 6.5483L10.427 2.33105C10.4309 2.31129 10.4415 2.2935 10.457 2.28071C10.4726 2.26792 10.4921 2.26092 10.5122 2.26093H12.2788C12.8341 2.26093 13.2473 2.41168 13.5071 2.70905C13.7682 3.0078 13.8488 3.4258 13.7467 3.95093C13.7077 4.15778 13.636 4.3571 13.5343 4.54143C13.4309 4.72449 13.2989 4.88989 13.1433 5.03143C12.9521 5.21043 12.7352 5.34043 12.5 5.4168C12.2685 5.4923 11.971 5.53055 11.6161 5.53055H10.9007L10.6966 6.58155C10.6927 6.60135 10.6821 6.61919 10.6665 6.63201C10.6509 6.64483 10.6314 6.65182 10.6112 6.6518H9.6926Z" fill="black"/>
<path d="M11.4444 3.1867H11.9308C12.3192 3.1867 12.4541 3.27195 12.4998 3.32282C12.5761 3.40707 12.5903 3.58495 12.5414 3.83682C12.4864 4.11895 12.3847 4.31907 12.2388 4.43132C12.0894 4.54632 11.8464 4.60457 11.5172 4.60457H11.1689L11.4444 3.1867ZM12.2787 2.1742H10.5121C10.4718 2.17423 10.4328 2.18825 10.4017 2.21385C10.3706 2.23945 10.3494 2.27506 10.3417 2.31457L9.52194 6.53195C9.51709 6.55708 9.51786 6.58297 9.52419 6.60777C9.53052 6.63257 9.54224 6.65567 9.55853 6.67541C9.57482 6.69515 9.59527 6.71105 9.61842 6.72197C9.64157 6.73289 9.66684 6.73856 9.69244 6.73857H10.6112C10.6515 6.73853 10.6905 6.7245 10.7216 6.69887C10.7526 6.67324 10.7739 6.63761 10.7816 6.59807L10.9722 5.61732H11.6159C11.9798 5.61732 12.2864 5.57757 12.5267 5.49932C12.7739 5.41907 13.0013 5.28295 13.2027 5.09457C13.3647 4.94701 13.5021 4.7746 13.6099 4.58382C13.7139 4.39795 13.7884 4.19045 13.8318 3.96745C13.9393 3.41457 13.8521 2.97195 13.5723 2.65195C13.2953 2.33482 12.8602 2.17407 12.2786 2.17407L12.2787 2.1742ZM10.9583 4.77807H11.5171C11.8876 4.77807 12.1633 4.70845 12.3448 4.5687C12.5261 4.4292 12.6483 4.1962 12.7118 3.86982C12.7727 3.55632 12.7451 3.3352 12.6287 3.20632C12.5124 3.07757 12.2798 3.01307 11.9308 3.01307H11.3014L10.9583 4.77807ZM12.2787 2.34745C12.8101 2.34745 13.1979 2.48707 13.4416 2.76595C13.6853 3.04495 13.7587 3.43432 13.6614 3.9342C13.6214 4.1402 13.5537 4.32845 13.4584 4.49895C13.3631 4.6697 13.2384 4.8257 13.0844 4.96732C12.9011 5.13895 12.6973 5.26132 12.4729 5.3342C12.2488 5.4072 11.9632 5.44357 11.6159 5.44357H10.8291L10.6109 6.56482H9.69219L10.5119 2.34745H12.2787Z" fill="white"/>
<defs>
<radialGradient id="paint0_radial_2_447" cx="0" cy="0" r="1" gradientUnits="userSpaceOnUse" gradientTransform="translate(4.80325 1.47956) scale(10.5052)">
<stop stop-color="#AEB2D5"/>
<stop offset="0.3" stop-color="#AEB2D5"/>
<stop offset="0.75" stop-color="#484C89"/>
<stop offset="1" stop-color="#484C89"/>
</radialGradient>
</defs>
</svg>
