<svg width="16" height="16" viewBox="0 0 16 16" fill="none" xmlns="http://www.w3.org/2000/svg">
<path d="M11.6016 11.171C11.6997 10.3544 11.6703 10.2345 12.2786 10.3669L12.433 10.3804C12.9007 10.4017 13.5126 10.3052 13.8721 10.1382C14.646 9.77904 15.1047 9.17967 14.3418 9.33704C12.6013 9.69617 12.4817 9.10679 12.4817 9.10679C14.3196 6.37992 15.0878 2.91829 14.4246 2.07092C12.6158 -0.24021 9.48496 0.852665 9.43258 0.880915L9.41583 0.88404C9.07196 0.812665 8.68708 0.77004 8.25471 0.76304C7.46708 0.75004 6.86946 0.96954 6.41608 1.31329C6.41608 1.31329 0.830707 -0.987835 1.09058 4.20717C1.14583 5.31229 2.67458 12.5694 4.49808 10.3774C5.16458 9.57592 5.80858 8.89817 5.80858 8.89817C6.12833 9.11054 6.51133 9.21904 6.91283 9.18004L6.94396 9.15354C6.93421 9.25304 6.93846 9.35042 6.95633 9.46567C6.48671 9.99054 6.62471 10.0827 5.68558 10.2759C4.73533 10.4717 5.29358 10.8203 5.65796 10.9114C6.09983 11.0219 7.12196 11.1784 7.81271 10.2117L7.78521 10.3219C7.96946 10.4694 7.95708 11.3815 7.98308 12.0332C8.00921 12.6849 8.05283 13.293 8.18571 13.6517C8.31858 14.0102 8.47533 14.9337 9.70958 14.6692C10.7411 14.4487 11.5297 14.1305 11.6016 11.171Z" fill="black"/>
<path d="M9.30768 15.314C8.7618 15.314 8.4063 15.1029 8.19043 14.899C7.86455 14.5915 7.7353 14.1954 7.65805 13.9588L7.62468 13.86C7.46918 13.4403 7.41643 12.8359 7.38518 12.0576C7.38043 11.9408 7.37718 11.8204 7.37355 11.6928C7.37093 11.5994 7.36768 11.4823 7.36293 11.3598C7.16627 11.4535 6.95752 11.5195 6.74268 11.5558C6.3578 11.6215 5.94405 11.6003 5.51268 11.4924C5.2083 11.4163 4.89205 11.2585 4.7118 11.0149C4.18643 11.475 3.6853 11.4126 3.4123 11.3215C2.93068 11.1609 2.49968 10.7095 2.09455 9.9419C1.80593 9.39502 1.5268 8.68252 1.2648 7.82402C0.808554 6.32902 0.518679 4.7544 0.492929 4.2374C0.411929 2.61927 0.847554 1.46202 1.78743 0.798145C3.27005 -0.249105 5.51643 0.36677 6.33543 0.646395C6.88568 0.31477 7.53305 0.153395 8.26455 0.16502C8.65743 0.171395 9.03155 0.205895 9.37905 0.267895C9.74155 0.153895 10.4576 -0.00972989 11.2772 0.000520109C12.7873 0.0185201 14.0387 0.60702 14.8958 1.7024C15.5076 2.4839 15.2051 4.12502 14.9704 5.03377C14.6402 6.31202 14.0616 7.67152 13.3508 8.85502C13.5438 8.8564 13.8234 8.83327 14.2209 8.75115C15.0052 8.58927 15.2346 9.00977 15.2968 9.19802C15.5462 9.95327 14.4622 10.524 14.1241 10.681C13.6908 10.8821 12.9844 11.0046 12.4059 10.9781L12.3807 10.9765L12.2287 10.9631L12.2137 11.0899L12.1992 11.2138C12.1603 12.7136 11.9461 13.6635 11.5052 14.2911C11.0431 14.9491 10.4008 15.1335 9.83505 15.2548C9.64205 15.296 9.46668 15.314 9.30768 15.314ZM8.15893 9.85515C8.5113 10.1371 8.54218 10.6678 8.5698 11.6594C8.5733 11.7831 8.57655 11.9003 8.58093 12.0096C8.59418 12.3409 8.6253 13.1165 8.7468 13.4443C8.76393 13.4906 8.7793 13.5376 8.79555 13.5875C8.93093 14.002 8.9988 14.2099 9.58418 14.0848C10.0756 13.9794 10.3282 13.8849 10.5259 13.6034C10.8133 13.1941 10.9741 12.3709 11.0036 11.1565L11.6014 11.171L11.0077 11.0998L11.0252 10.9515C11.0821 10.4628 11.1231 10.1098 11.4497 9.87627C11.7118 9.68902 12.0104 9.70715 12.2483 9.75002C11.9869 9.55252 11.9147 9.3209 11.8954 9.2259L11.8456 8.98027L11.9857 8.7724C12.7928 7.57489 13.4583 6.10315 13.8118 4.7344C14.1751 3.32802 14.0643 2.58115 13.9536 2.4399C12.4874 0.56652 9.94505 1.34002 9.67955 1.42777L9.63468 1.45202L9.40968 1.4939L9.29443 1.47002C8.97668 1.40402 8.62368 1.36752 8.2453 1.3614C7.6508 1.3514 7.17118 1.4919 6.77793 1.79027L6.50505 1.99715L6.18843 1.86677C5.51193 1.59014 3.52493 1.03402 2.47643 1.77665C1.89443 2.1889 1.6293 2.99665 1.6883 4.17752C1.7078 4.5674 1.97268 6.04327 2.40968 7.47465C3.01355 9.45277 3.5623 10.1099 3.79143 10.1863C3.83143 10.1998 3.93518 10.1191 4.03843 9.99515C4.46893 9.47907 4.91471 8.97593 5.37518 8.4864L5.72143 8.12202L6.14005 8.40015C6.3088 8.51227 6.49493 8.5759 6.68605 8.5879L7.68443 7.7364L7.5398 9.2124C7.53655 9.24552 7.53493 9.29065 7.54793 9.3744L7.59143 9.65415L7.40268 9.86515L7.38093 9.88965L7.92943 10.1428L8.15893 9.85515Z" fill="black"/>
<path d="M14.342 9.33704C12.6013 9.69616 12.4817 9.10679 12.4817 9.10679C14.3196 6.37979 15.0878 2.91804 14.4248 2.07091C12.6161 -0.24009 9.48495 0.852785 9.4327 0.88116L9.41583 0.884161C9.07195 0.812786 8.68708 0.770286 8.25445 0.763286C7.46683 0.750411 6.86945 0.969785 6.41608 1.31354C6.41608 1.31354 0.83058 -0.987464 1.09033 4.20741C1.14558 5.31266 2.67433 12.5698 4.49783 10.3778C5.16433 9.57629 5.8082 8.89854 5.8082 8.89854C6.12808 9.11091 6.51095 9.21941 6.91233 9.18041L6.94358 9.15391C6.93383 9.25341 6.93833 9.35079 6.95608 9.46604C6.48633 9.99091 6.62433 10.083 5.6852 10.2763C4.73495 10.472 5.2932 10.8207 5.6577 10.9118C6.09945 11.0223 7.1217 11.1788 7.81233 10.212L7.7847 10.3223C7.96883 10.4698 8.09808 11.2813 8.07646 12.0169C8.05471 12.7525 8.0402 13.2577 8.18533 13.6522C8.33033 14.0467 8.47483 14.9342 9.70933 14.6697C10.7408 14.4487 11.2753 13.8758 11.3498 12.9203C11.4026 12.2409 11.522 12.3414 11.5296 11.734L11.6255 11.4465C11.736 10.5257 11.643 10.2287 12.2786 10.3668L12.433 10.3803C12.9007 10.4015 13.5128 10.305 13.8722 10.138C14.646 9.77916 15.1048 9.17966 14.342 9.33704Z" fill="#336791"/>
<path d="M9.37023 14.9454C8.34123 14.9454 8.01523 14.1306 7.88186 13.7973C7.68661 13.3089 7.64448 11.4137 7.68798 9.85943C7.68863 9.83322 7.69445 9.8074 7.70512 9.78345C7.71579 9.7595 7.7311 9.7379 7.75015 9.71989C7.76921 9.70188 7.79164 9.68782 7.81615 9.67851C7.84066 9.66921 7.86678 9.66485 7.89298 9.66568C7.91916 9.66639 7.94494 9.67226 7.96885 9.68294C7.99276 9.69363 8.01433 9.70892 8.03233 9.72795C8.05032 9.74698 8.06439 9.76937 8.07373 9.79384C8.08306 9.81831 8.08748 9.84438 8.08673 9.87056C8.03661 11.6632 8.10773 13.2877 8.25223 13.6492C8.47773 14.2128 8.81973 14.7058 9.78661 14.4987C10.7045 14.3018 11.0482 13.9538 11.2014 13.0662C11.3189 12.3851 11.5512 10.4473 11.5799 10.0649C11.5818 10.0388 11.5888 10.0133 11.6006 9.9899C11.6124 9.9665 11.6287 9.94566 11.6485 9.92857C11.6684 9.91147 11.6914 9.89847 11.7163 9.89029C11.7412 9.88212 11.7675 9.87894 11.7936 9.88093C11.8463 9.88493 11.8953 9.90968 11.9298 9.94975C11.9643 9.98983 11.9815 10.0419 11.9776 10.0947C11.9477 10.4928 11.7165 12.4268 11.5945 13.1341C11.4137 14.1824 10.9464 14.6579 9.87023 14.8887C9.68736 14.9278 9.52123 14.9453 9.37023 14.9454ZM3.79073 10.9653C3.70079 10.965 3.61148 10.9502 3.52623 10.9216C2.85786 10.6986 2.22123 9.61006 1.63398 7.68593C1.18698 6.22131 0.903731 4.69256 0.878856 4.19568C0.805231 2.72268 1.18448 1.68056 2.00636 1.09843C3.63223 -0.0535694 6.36736 1.04343 6.48298 1.09068C6.53196 1.11069 6.57099 1.14933 6.59148 1.19812C6.61197 1.2469 6.61224 1.30182 6.59223 1.35081C6.57222 1.39979 6.53358 1.43882 6.48479 1.4593C6.43601 1.47979 6.38109 1.48006 6.33211 1.46006C6.30573 1.44931 3.68298 0.398556 2.23611 1.42443C1.53336 1.92268 1.21073 2.84843 1.27711 4.17581C1.29798 4.59443 1.56261 6.08643 2.01536 7.56943C2.53961 9.28718 3.13623 10.3711 3.65236 10.5432C3.73336 10.5702 3.97986 10.6523 4.33223 10.2286C4.74316 9.73503 5.1695 9.25455 5.61061 8.78781C5.64752 8.75099 5.69737 8.73009 5.7495 8.72956C5.80163 8.72904 5.85189 8.74895 5.88953 8.78502C5.92717 8.82109 5.94919 8.87046 5.95089 8.92256C5.95258 8.97467 5.93382 9.02536 5.89861 9.06381C5.89261 9.07006 5.29273 9.69718 4.63898 10.4837C4.32936 10.8561 4.03261 10.9653 3.79073 10.9653ZM12.4694 9.28468C12.4332 9.28463 12.3977 9.27476 12.3667 9.25611C12.3358 9.23746 12.3104 9.21075 12.2935 9.17882C12.2765 9.14689 12.2685 9.11095 12.2704 9.07484C12.2723 9.03873 12.2839 9.00381 12.3041 8.97381C14.162 6.21693 14.8141 2.88581 14.2556 2.17206C13.5526 1.27381 12.56 0.80468 11.3051 0.777555C10.376 0.757555 9.63748 0.994806 9.51673 1.03618L9.48636 1.04856C9.36498 1.08668 9.27186 1.02018 9.23673 0.94243C9.2167 0.897885 9.21367 0.84755 9.2282 0.80092C9.24273 0.754291 9.27382 0.71459 9.31561 0.689306C9.32135 0.685931 9.33961 0.67818 9.36923 0.667305C9.57436 0.59218 10.3241 0.36718 11.2527 0.377805C12.6412 0.392555 13.7882 0.92793 14.5695 1.92631C14.9391 2.39868 14.94 3.48693 14.5719 4.91218C14.1966 6.36531 13.4905 7.92693 12.6347 9.19681C12.5965 9.25393 12.5335 9.28468 12.4694 9.28468ZM12.5644 10.5609C12.2471 10.5609 11.9627 10.5162 11.7925 10.4142C11.6175 10.3093 11.5841 10.1668 11.5797 10.0912C11.532 9.25243 11.9947 9.10643 12.2307 9.03981C12.1979 8.99006 12.1511 8.93156 12.1027 8.87118C11.9651 8.69918 11.7766 8.46368 11.6314 8.11143C11.6086 8.05643 11.5374 7.92856 11.4549 7.78043C11.0075 6.97818 10.0766 5.30881 10.6746 4.45393C10.9514 4.05831 11.5025 3.90256 12.3145 3.98943C12.0756 3.26168 10.9381 0.98518 8.23898 0.94093C7.42723 0.927431 6.76148 1.17706 6.26123 1.68218C5.14123 2.81331 5.18173 4.85993 5.18236 4.88043C5.18304 4.90661 5.17857 4.93267 5.16919 4.95713C5.15981 4.98158 5.1457 5.00395 5.12767 5.02295C5.10965 5.04195 5.08805 5.05721 5.06413 5.06787C5.0402 5.07853 5.01441 5.08437 4.98823 5.08506C4.96205 5.08574 4.93599 5.08127 4.91153 5.07189C4.88708 5.06251 4.86471 5.0484 4.84571 5.03037C4.82671 5.01235 4.81145 4.99075 4.80079 4.96683C4.79013 4.9429 4.7843 4.91711 4.78361 4.89093C4.78111 4.80006 4.73936 2.65231 5.97786 1.40143C6.55748 0.816055 7.32048 0.527055 8.24561 0.54218C9.97236 0.570555 11.0839 1.44843 11.7121 2.17981C12.397 2.97693 12.7327 3.85618 12.7604 4.14968C12.781 4.36793 12.6244 4.41156 12.5927 4.41806L12.5207 4.41968C11.7239 4.29206 11.2126 4.38068 11.0012 4.68268C10.5464 5.33281 11.427 6.91193 11.803 7.58631C11.899 7.75831 11.9682 7.88268 12 7.95943C12.1235 8.25893 12.2846 8.46018 12.414 8.62193C12.5279 8.76418 12.6265 8.88756 12.6617 9.03231C12.6781 9.06106 12.9105 9.40481 14.2894 9.12018C14.635 9.04893 14.8422 9.10981 14.9056 9.30143C15.0302 9.67831 14.331 10.1179 13.9439 10.2977C13.597 10.4589 13.0434 10.5609 12.5644 10.5609ZM11.9774 10.0583C12.0211 10.1024 12.24 10.1786 12.6932 10.1591C13.0962 10.1418 13.5212 10.0542 13.7762 9.93581C14.1024 9.78431 14.3201 9.61493 14.4329 9.49931L14.3704 9.51081C13.4887 9.69281 12.8651 9.66856 12.5169 9.43868C12.4935 9.42321 12.4709 9.40648 12.4494 9.38856C12.4116 9.40343 12.3767 9.41318 12.3519 9.42018C12.1544 9.47556 11.9501 9.53293 11.9774 10.0583ZM6.28211 11.1727C6.06311 11.1727 5.83261 11.1428 5.59723 11.0839C5.35336 11.0229 4.94223 10.8393 4.94848 10.5377C4.95561 10.1993 5.44773 10.0978 5.63298 10.0597C6.30223 9.92181 6.34586 9.86656 6.55498 9.60093C6.61598 9.52356 6.69186 9.42718 6.79536 9.31168C6.94898 9.13968 7.11686 9.05256 7.29436 9.05256C7.41798 9.05256 7.51936 9.09443 7.58636 9.12231C7.79986 9.21081 7.97798 9.42481 8.05123 9.68068C8.11736 9.91156 8.08573 10.1338 7.96248 10.3064C7.55786 10.8731 6.97673 11.1727 6.28211 11.1727ZM5.37936 10.5548C5.43948 10.6013 5.55998 10.6634 5.69411 10.6969C5.89798 10.7479 6.09573 10.7738 6.28223 10.7738C6.85048 10.7738 7.30673 10.5386 7.63811 10.0746C7.70723 9.97781 7.68648 9.85493 7.66798 9.79031C7.62923 9.65493 7.53298 9.53181 7.43386 9.49068C7.38011 9.46843 7.33548 9.45143 7.29448 9.45143C7.27248 9.45143 7.20548 9.45143 7.09273 9.57756C7.01493 9.66506 6.94013 9.7552 6.86848 9.84781C6.60798 10.1786 6.48861 10.2908 5.71361 10.4504C5.52448 10.4892 5.42748 10.5287 5.37936 10.5548ZM6.91298 9.63481C6.86537 9.63473 6.81935 9.61763 6.78324 9.58659C6.74714 9.55555 6.72333 9.51262 6.71611 9.46556C6.71115 9.43245 6.70781 9.39912 6.70611 9.36568C6.19811 9.35618 5.70798 9.13818 5.33586 8.74993C4.86536 8.25906 4.65123 7.57893 4.74848 6.88406C4.85411 6.12943 4.81461 5.46331 4.79336 5.10543C4.78748 5.00593 4.78323 4.93406 4.78348 4.88431C4.78386 4.82118 4.78511 4.65381 5.34461 4.37018C5.54361 4.26931 5.94261 4.09331 6.37848 4.04818C7.10061 3.97356 7.57661 4.29518 7.71911 4.95393C8.10373 6.73243 7.74961 7.51905 7.49098 8.09355C7.44286 8.20055 7.39736 8.30156 7.36098 8.39943L7.32886 8.48568C7.19223 8.85206 7.07411 9.16856 7.11036 9.40493C7.11434 9.43082 7.11318 9.45724 7.10694 9.48268C7.10071 9.50812 7.08953 9.53208 7.07403 9.55319C7.05853 9.57431 7.03903 9.59216 7.01663 9.60574C6.99423 9.61931 6.96937 9.62834 6.94348 9.63231L6.91298 9.63481ZM5.18361 4.93956L5.19136 5.08193C5.21336 5.45368 5.25436 6.14543 5.14336 6.93943C5.06323 7.51256 5.23823 8.07193 5.62373 8.47393C5.92836 8.79168 6.32923 8.96706 6.74123 8.96706H6.74973C6.79586 8.77268 6.87248 8.56743 6.95498 8.34631L6.98686 8.26056C7.02798 8.15006 7.07611 8.04306 7.12711 7.92981C7.37598 7.37681 7.68586 6.68843 7.32898 5.03831C7.25836 4.71143 7.08698 4.52231 6.80536 4.45993C6.22686 4.33218 5.36473 4.76731 5.18361 4.93956ZM6.38736 4.85493C6.37736 4.92543 6.51648 5.11368 6.69798 5.13881C6.87911 5.16418 7.03411 5.01693 7.04398 4.94643C7.05386 4.87593 6.91486 4.79818 6.73336 4.77293C6.55198 4.74768 6.39698 4.78443 6.38736 4.85493ZM6.73961 5.20818L6.68873 5.20468C6.57623 5.18906 6.46248 5.11818 6.38461 5.01493C6.35723 4.97868 6.31261 4.90843 6.32148 4.84568C6.33411 4.75368 6.44636 4.69856 6.62148 4.69856C6.66061 4.69856 6.70136 4.70143 6.74236 4.70718C6.83811 4.72043 6.92698 4.74806 6.99261 4.78468C7.10636 4.84818 7.11473 4.91906 7.10961 4.95568C7.09561 5.05731 6.93398 5.20818 6.73961 5.20818ZM6.45348 4.86668C6.45911 4.91018 6.56686 5.05368 6.70711 5.07306L6.73973 5.07531C6.86923 5.07531 6.96598 4.97343 6.97736 4.94006C6.96536 4.91731 6.88211 4.86081 6.72423 4.83881C6.69024 4.83393 6.65594 4.83146 6.62161 4.83143C6.52011 4.83143 6.46623 4.85431 6.45348 4.86668ZM11.9041 4.71106C11.914 4.78156 11.775 4.96981 11.5936 4.99506C11.4124 5.02031 11.2572 4.87318 11.2472 4.80268C11.2377 4.73218 11.3767 4.65431 11.558 4.62918C11.7392 4.60381 11.8941 4.64068 11.9041 4.71106ZM11.5517 5.03106C11.3772 5.03106 11.2266 4.89531 11.2142 4.80718C11.1999 4.70143 11.374 4.62106 11.5532 4.59618C11.5927 4.59068 11.6319 4.58793 11.6695 4.58793C11.8242 4.58793 11.9267 4.63331 11.937 4.70656C11.9436 4.75393 11.9072 4.82706 11.8446 4.89306C11.8032 4.93643 11.7164 5.01156 11.598 5.02793L11.5517 5.03106ZM11.6696 4.65443C11.6351 4.65443 11.5991 4.65706 11.5626 4.66206C11.3825 4.68718 11.275 4.75943 11.2802 4.79818C11.2862 4.84081 11.4012 4.96468 11.5519 4.96468L11.589 4.96206C11.6874 4.94843 11.7612 4.88418 11.7965 4.84718C11.8519 4.78906 11.8739 4.73431 11.8712 4.71568C11.8677 4.69093 11.8012 4.65443 11.6696 4.65443ZM12.1652 8.75981C12.1291 8.75983 12.0936 8.75002 12.0626 8.73144C12.0317 8.71285 12.0063 8.68619 11.9893 8.65431C11.9723 8.62242 11.9643 8.58651 11.9661 8.55042C11.968 8.51433 11.9796 8.47942 11.9997 8.44943C12.4245 7.81506 12.3467 7.16818 12.2716 6.54256C12.2395 6.27606 12.2065 6.00043 12.215 5.73593C12.2237 5.46381 12.2584 5.23931 12.2917 5.02218C12.3314 4.76493 12.3689 4.52193 12.3534 4.23343C12.3519 4.20728 12.3557 4.18111 12.3644 4.15641C12.3731 4.13171 12.3866 4.10897 12.4041 4.08948C12.4216 4.06999 12.4427 4.05414 12.4663 4.04283C12.49 4.03152 12.5156 4.02497 12.5417 4.02356C12.5679 4.02214 12.5941 4.0259 12.6188 4.0346C12.6434 4.0433 12.6662 4.05678 12.6857 4.07428C12.7052 4.09177 12.721 4.11293 12.7323 4.13655C12.7436 4.16017 12.7502 4.18578 12.7516 4.21193C12.7694 4.54168 12.727 4.81668 12.686 5.08281C12.6544 5.28818 12.6216 5.50056 12.6137 5.74868C12.6061 5.98293 12.636 6.23168 12.6676 6.49493C12.7476 7.16018 12.8382 7.91418 12.3312 8.67131C12.313 8.69857 12.2883 8.72091 12.2593 8.73635C12.2304 8.75179 12.198 8.75984 12.1652 8.75981Z" fill="white"/>
</svg>
