<svg width="16" height="16" viewBox="0 0 16 16" fill="none" xmlns="http://www.w3.org/2000/svg">
<path d="M13.8975 3.14134C11.2789 -0.249656 6.40673 -0.875656 3.01561 1.74347C-0.375019 4.36259 -1.00039 9.23472 1.61873 12.6253C4.23836 16.0158 9.11086 16.6408 12.501 14.0212C15.8902 11.4021 16.5157 6.53147 13.8975 3.14134Z" fill="#F37036"/>
<path d="M11.1425 2.90363C10.8755 2.92497 10.6222 3.03124 10.4199 3.20688C10.1831 3.41249 10.0319 3.6994 9.9963 4.011C9.96067 4.3226 10.0431 4.63623 10.2274 4.89001C10.4115 5.14389 10.684 5.31958 10.9912 5.3824C11.2984 5.44523 11.618 5.39063 11.8869 5.22938H11.8872L11.9067 5.24888C11.9952 5.1981 12.0777 5.13728 12.1523 5.06763C12.3825 4.82411 12.5091 4.50071 12.5055 4.16563C12.5019 3.83054 12.3682 3.50997 12.1328 3.27151V3.27126L11.0273 4.36988L11.0078 4.35051L12.1133 3.25138C11.9853 3.128 11.8326 3.03322 11.6653 2.97331C11.4979 2.9134 11.3197 2.88974 11.1425 2.90388V2.90363ZM9.68705 4.70201C9.15705 4.70113 8.29167 5.30188 6.17867 7.41488L6.18917 7.42563C6.17767 7.42163 6.16605 7.42126 6.16605 7.42126L5.37055 8.20975C5.35012 8.22919 5.3366 8.25476 5.33204 8.28258C5.32748 8.3104 5.33214 8.33895 5.3453 8.36389C5.35846 8.38882 5.3794 8.40877 5.40495 8.42071C5.43049 8.43264 5.45923 8.43591 5.4868 8.43001L6.85105 8.139C6.85707 8.13334 6.8611 8.12589 6.86255 8.11775L6.8928 8.149L6.4278 8.61026H6.4053L3.64455 11.3928L4.5303 12.2458C4.55507 12.2681 4.58632 12.2819 4.6195 12.2853C4.65268 12.2886 4.68606 12.2813 4.7148 12.2644C4.74378 12.2476 4.767 12.2224 4.78139 12.1921C4.79578 12.1619 4.80068 12.128 4.79542 12.0949L4.66605 11.5324C4.65798 11.5211 4.65365 11.5075 4.65365 11.4936C4.65365 11.4797 4.65798 11.4662 4.66605 11.4549C5.87532 10.8784 6.99987 10.1389 8.0083 9.257L7.44142 8.68988L7.45217 8.68813L7.11592 8.35201L7.13742 8.33026L7.16017 8.35351L7.14842 8.36488L8.04055 9.27651V9.27613C9.75055 7.65688 10.9643 6.35526 10.6487 5.47926C10.6343 5.3745 10.5856 5.27745 10.5103 5.20326V5.20376C10.4912 5.1895 10.471 5.17671 10.4499 5.16551C10.4395 5.15451 10.4304 5.14326 10.4194 5.13251L10.4112 5.14076C10.388 5.1266 10.3637 5.11448 10.3384 5.10451L10.3745 5.06801C10.15 4.86801 9.96455 4.70251 9.68705 4.70176V4.70201ZM3.6253 11.4094L2.97892 12.0559V12.0564C2.95573 12.0707 2.9377 12.0921 2.92744 12.1174C2.91717 12.1427 2.91519 12.1705 2.9218 12.197C2.92818 12.2235 2.94273 12.2472 2.9634 12.2649C2.98407 12.2827 3.0098 12.2934 3.03692 12.2956L4.62092 12.405L3.6253 11.4094Z" fill="white"/>
<path d="M11.2516 2.79688C10.8888 2.79643 10.5404 2.93877 10.2817 3.19313C10.0976 3.3815 9.97162 3.61882 9.91865 3.87682C9.86568 4.13481 9.88801 4.40259 9.98297 4.64825C9.39034 4.3945 8.58859 4.837 6.09472 7.33038C6.09296 7.33421 6.09142 7.33813 6.09009 7.34213C6.085 7.34444 6.08003 7.34703 6.07522 7.34988L5.28659 8.14538C5.24879 8.18248 5.22396 8.23078 5.21579 8.28311C5.20761 8.33544 5.21653 8.38901 5.24122 8.43588C5.26325 8.47295 5.29445 8.50374 5.33182 8.52528C5.36918 8.54682 5.41146 8.55839 5.45459 8.55888L5.49372 8.5335L6.54672 8.30888L6.04296 8.81725C6.04003 8.82393 6.03777 8.83088 6.03622 8.838L3.56747 11.3129C3.55762 11.3212 3.54947 11.3313 3.54347 11.3426L2.90772 11.9789C2.87603 12.0123 2.85438 12.054 2.84523 12.0991C2.83608 12.1443 2.8398 12.1911 2.85597 12.2343C2.87254 12.2771 2.90065 12.3146 2.93718 12.3425C2.97371 12.3704 3.01724 12.3877 3.06297 12.3924L4.64021 12.5024C4.66712 12.4929 4.69003 12.4746 4.70521 12.4505C4.71877 12.4317 4.72607 12.409 4.72607 12.3858C4.72607 12.3626 4.71877 12.34 4.70521 12.3211L4.70197 12.318C4.736 12.3001 4.766 12.2755 4.79009 12.2455C4.81542 12.2126 4.83312 12.1745 4.84189 12.134C4.85067 12.0934 4.85031 12.0514 4.84084 12.011L4.71784 11.4876C5.89789 10.9237 7.00356 10.2157 8.00959 9.38C8.01935 9.38555 8.02977 9.38988 8.04059 9.39288C8.07234 9.3905 8.10209 9.37688 8.12459 9.35438C9.81834 7.75063 10.814 6.65163 10.814 5.77913C10.8176 5.6581 10.7994 5.5374 10.7601 5.42288C10.9127 5.48617 11.0756 5.52132 11.2407 5.52663L11.2388 5.52713C11.4663 5.52017 11.6887 5.45797 11.8867 5.34588C11.8869 5.34592 11.887 5.34596 11.8872 5.346C11.9129 5.35368 11.9405 5.35122 11.9643 5.33913C12.0599 5.28285 12.147 5.21333 12.2231 5.13263C12.352 5.00615 12.4544 4.85525 12.5243 4.68874C12.5942 4.52224 12.6303 4.34347 12.6303 4.16288C12.6303 3.98229 12.5943 3.80353 12.5244 3.63702C12.4545 3.47052 12.3521 3.31962 12.2232 3.19313C12.2186 3.18895 12.2137 3.18514 12.2085 3.18175C11.9512 2.93468 11.6082 2.7968 11.2515 2.797L11.2516 2.79688ZM11.2407 3.01838C11.4933 3.01988 11.7385 3.1039 11.939 3.25763L10.9305 4.27225C10.927 4.27609 10.9238 4.28019 10.921 4.2845C10.9028 4.30289 10.8921 4.32741 10.8911 4.35325C10.8911 4.36886 10.8946 4.38427 10.9014 4.39834C10.9082 4.4124 10.918 4.42476 10.9302 4.4345H10.9305L11.693 5.197C11.4842 5.28801 11.2529 5.31388 11.0292 5.27121C10.8056 5.22855 10.6 5.11933 10.4395 4.95788C10.1162 4.63288 10.0225 4.14488 10.1953 3.7215C10.3682 3.29775 10.7803 3.02088 11.2407 3.01838ZM12.1307 3.44738C12.2956 3.64688 12.3855 3.89779 12.3848 4.15663C12.3844 4.45985 12.2635 4.75048 12.0488 4.96463C12.0058 5.00512 11.9599 5.0425 11.9116 5.0765L11.2962 4.47063L11.1758 4.35025L11.209 4.31713L12.1306 3.44713L12.1307 3.44738ZM12.085 3.9715C12.0623 3.96435 12.0379 3.96573 12.0162 3.97538C11.9948 3.98648 11.9786 4.00563 11.9712 4.02863C11.9676 4.04011 11.9663 4.0522 11.9674 4.06419C11.9684 4.07618 11.9719 4.08784 11.9775 4.0985C11.9997 4.1452 12.0084 4.19717 12.0028 4.24857C11.9971 4.29997 11.9772 4.34877 11.9453 4.3895C11.9372 4.39736 11.9308 4.40687 11.9266 4.41738C11.9224 4.4279 11.9205 4.43919 11.921 4.4505C11.9215 4.4735 11.9297 4.4955 11.9453 4.512C11.962 4.51837 11.9804 4.51837 11.9971 4.512C12.0121 4.51575 12.0279 4.51532 12.0427 4.51076C12.0575 4.5062 12.0708 4.49768 12.0811 4.48613C12.1343 4.4209 12.168 4.34198 12.1782 4.25845C12.1885 4.17491 12.175 4.09018 12.1392 4.014V4.0145C12.127 3.99399 12.1077 3.97869 12.085 3.9715ZM9.67534 4.81188C9.8262 4.81688 9.97137 4.87065 10.0891 4.96513C9.96225 4.98338 9.8447 5.04213 9.75397 5.13263L6.90309 7.97075L6.34359 7.41125C7.82209 5.93975 8.72609 5.17113 9.28809 4.91925C9.40384 4.84623 9.53851 4.80897 9.67534 4.81188ZM10.171 5.18188C10.2667 5.18188 10.3585 5.21982 10.4263 5.28738C10.4624 5.32122 10.4909 5.36238 10.5099 5.40809C10.5288 5.45381 10.5378 5.50304 10.5362 5.5525C10.5346 5.60178 10.5228 5.65019 10.5016 5.69471C10.4804 5.73923 10.4503 5.7789 10.4131 5.81125L7.38184 8.4495L7.05472 8.12238L9.91559 5.28738C9.98343 5.21986 10.0753 5.18185 10.171 5.18188ZM10.5452 6.01913C10.334 6.85688 9.21434 7.992 8.04684 9.095L7.57472 8.62338L10.5452 6.01913ZM6.17872 7.5765L6.21297 7.61025L6.65209 8.04938L5.44834 8.30688L6.17872 7.5765ZM6.90284 8.3065L6.90334 8.307L7.04934 8.45638C7.04995 8.4599 7.0507 8.46341 7.05159 8.46688L7.06134 8.46838L7.09234 8.50013L7.19484 8.60513L6.52172 8.68763L6.90297 8.30638L6.90284 8.3065ZM7.38622 8.816L7.83347 9.263C6.8445 10.0854 5.75925 10.7845 4.60159 11.345C4.564 11.3629 4.53379 11.3933 4.51608 11.4309C4.49837 11.4686 4.49426 11.5113 4.50447 11.5516L4.63384 12.1141C4.63861 12.1207 4.64118 12.1287 4.64118 12.1368C4.64118 12.145 4.63861 12.1529 4.63384 12.1595C4.62673 12.1659 4.61752 12.1694 4.60796 12.1694C4.59841 12.1694 4.5892 12.1659 4.58209 12.1595L3.81934 11.3905L6.17034 9.005L7.38622 8.816ZM3.64459 11.5585L3.75322 11.6603L4.31472 12.2218L3.06272 12.1408L3.64459 11.5585Z" fill="#F37036"/>
</svg>
