<svg width="16" height="16" viewBox="0 0 16 16" fill="none" xmlns="http://www.w3.org/2000/svg">
<path fill-rule="evenodd" clip-rule="evenodd" d="M13.5281 1.53406C12.0024 0.781186 10.4396 0.704561 8.83963 1.27019C7.36726 1.79069 6.19276 2.72206 5.31963 3.99056C3.84226 6.13706 2.76913 8.47919 2.16776 11.0234C1.85976 12.3256 1.66026 13.7067 1.71388 15.0514C1.71826 15.1606 1.73451 15.1919 1.74526 15.4419H9.29101C9.26938 15.1919 9.25513 15.2649 9.23638 15.2173C8.83765 14.1958 8.52702 13.142 8.30788 12.0676C7.99563 10.5362 7.83213 8.97644 8.15463 7.43094C8.60601 5.26681 9.83963 3.70531 11.9193 2.89556C13.0973 2.43719 14.2154 2.56756 15.196 3.42831C15.205 3.43619 15.2235 3.43144 15.2475 3.43531L15.5681 2.94994C14.9506 2.36206 14.2721 1.90131 13.5281 1.53406ZM0.234883 11.4912C0.177383 11.9816 0.123633 12.4407 0.0673828 12.9226L1.45888 13.0896L1.71376 11.6029L0.234883 11.4912ZM2.96613 7.21794L1.65726 6.70581L1.23426 7.90669L2.56813 8.33419C2.70313 7.95531 2.83013 7.59894 2.96613 7.21794ZM9.14351 13.9253C9.59038 13.9586 10.0381 13.9814 10.5314 14.0102C10.3523 13.6378 10.1931 13.3011 10.0265 12.9683C10.0083 12.9322 9.94663 12.8973 9.90476 12.8967C9.52563 12.8912 9.14626 12.8936 8.74338 12.8936C8.83413 13.2221 8.91301 13.5252 9.00538 13.8239C9.01926 13.8691 9.09376 13.9217 9.14351 13.9253ZM5.18451 3.57981L4.19013 2.92131L3.39526 3.80944L4.41751 4.49644L5.18451 3.57981ZM8.35126 10.2509C8.34963 10.2911 8.38576 10.3549 8.42101 10.3708C8.77913 10.5318 9.14101 10.6852 9.53501 10.8549C9.51863 10.5434 9.50763 10.2831 9.48901 10.0232C9.48563 9.97644 9.46363 9.90919 9.42901 9.88994C9.10013 9.70794 8.76663 9.53406 8.40201 9.34056C8.38213 9.67369 8.36188 9.96206 8.35126 10.2509ZM8.05663 1.22944L7.37588 0.456811L6.43851 0.944061L7.12038 1.77456L8.05663 1.22944ZM8.48351 7.37644C8.46313 7.42319 8.49001 7.52231 8.53013 7.55844C8.80201 7.80369 9.08313 8.03844 9.39588 8.30606C9.46751 8.00606 9.53501 7.73869 9.59226 7.46944C9.60238 7.42156 9.58826 7.34244 9.55501 7.31569C9.31176 7.11956 9.06063 6.93281 8.80038 6.73431C8.68601 6.96119 8.57513 7.16469 8.48351 7.37644ZM10.0398 0.823436C10.3873 0.832811 10.7351 0.828686 11.1021 0.828686C11.0655 0.573186 11.048 0.379561 11.0044 0.192186C10.9914 0.136436 10.9075 0.062186 10.8509 0.057436C10.5025 0.029186 10.1528 0.018311 9.76951 6.10352e-05C9.82063 0.257936 9.85963 0.485186 9.91476 0.708561C9.92638 0.755936 9.99563 0.822186 10.0398 0.823436ZM10.4629 5.28281C10.4806 5.24956 10.4851 5.18919 10.4665 5.16019C10.2958 4.89306 10.1184 4.63006 9.93476 4.35331L9.33976 4.89981L10.1625 5.81156C10.273 5.61919 10.3719 5.45306 10.4629 5.28281ZM11.1048 3.46694L11.4601 4.12706C12.0163 3.82231 12.0695 3.71206 11.8726 3.27281L11.1048 3.46694ZM13.7656 1.43281C13.997 1.57556 14.2414 1.69719 14.4896 1.83094L14.6559 1.57219C14.3531 1.35081 14.0609 1.13669 13.7293 0.893936C13.7163 1.03194 13.6969 1.12831 13.7019 1.22356C13.7059 1.29619 13.718 1.40356 13.7656 1.43281ZM13.4429 3.52269C13.6929 3.54981 14.0679 3.57569 14.3179 3.60306V3.26331C14.0679 3.20856 13.6929 3.15431 13.4429 3.09794V3.52269Z" fill="#CC0000"/>
</svg>
