<svg width="16" height="14" viewBox="0 0 16 14" fill="none" xmlns="http://www.w3.org/2000/svg">
<path d="M8.1833 8.4125C8.97031 8.4125 9.6083 7.77451 9.6083 6.9875C9.6083 6.20049 8.97031 5.5625 8.1833 5.5625C7.3963 5.5625 6.7583 6.20049 6.7583 6.9875C6.7583 7.77451 7.3963 8.4125 8.1833 8.4125Z" fill="#61DAFB"/>
<path d="M13.5959 4.6375C13.3209 4.5375 13.0334 4.4375 12.7334 4.35C12.8084 4.05 12.8709 3.75 12.9209 3.4625C13.1834 1.8125 12.8959 0.65 12.0959 0.2C11.8584 0.0624999 11.5959 0 11.2959 0C10.4209 0 9.3084 0.65 8.1834 1.7375C7.0584 0.65 5.9459 0 5.0709 0C4.7709 0 4.5084 0.0624999 4.2709 0.2C3.4709 0.6625 3.1834 1.825 3.4459 3.4625C3.4959 3.75 3.5584 4.05 3.6334 4.35C3.3334 4.4375 3.0459 4.525 2.7709 4.6375C1.2084 5.2375 0.358398 6.0625 0.358398 6.9875C0.358398 7.9125 1.2209 8.7375 2.7709 9.3375C3.0459 9.4375 3.3334 9.5375 3.6334 9.625C3.5584 9.925 3.4959 10.225 3.4459 10.5125C3.1834 12.1625 3.4709 13.325 4.2709 13.775C4.5084 13.9125 4.7709 13.975 5.0709 13.975C5.9584 13.975 7.0709 13.325 8.1834 12.2375C9.3084 13.325 10.4209 13.975 11.2959 13.975C11.5959 13.975 11.8584 13.9125 12.0959 13.775C12.8959 13.3125 13.1834 12.15 12.9209 10.5125C12.8709 10.225 12.8084 9.925 12.7334 9.625C13.0334 9.5375 13.3209 9.45 13.5959 9.3375C15.1584 8.7375 16.0084 7.9125 16.0084 6.9875C16.0084 6.0625 15.1584 5.2375 13.5959 4.6375ZM11.7459 0.825C12.2584 1.125 12.4334 2.05 12.2209 3.3625C12.1834 3.625 12.1209 3.9 12.0459 4.1875C11.3959 4.0375 10.7084 3.9375 9.9834 3.875C9.5584 3.275 9.1209 2.7375 8.6834 2.25C9.6084 1.3375 10.5459 0.7125 11.3084 0.7125C11.4709 0.7125 11.6209 0.75 11.7459 0.825ZM10.3459 8.2375C10.1209 8.6375 9.8584 9.0375 9.5834 9.4375C9.1209 9.475 8.6584 9.4875 8.1834 9.4875C7.6959 9.4875 7.2334 9.475 6.7834 9.4375C6.5084 9.0375 6.2584 8.6375 6.0334 8.2375C5.7959 7.825 5.5709 7.4 5.3709 6.9875C5.5709 6.575 5.7959 6.15 6.0334 5.7375C6.2584 5.3375 6.5209 4.9375 6.7959 4.5375C7.2584 4.5 7.7209 4.4875 8.1959 4.4875C8.6834 4.4875 9.1459 4.5 9.5959 4.5375C9.8709 4.9375 10.1209 5.3375 10.3459 5.7375C10.5834 6.15 10.8084 6.575 11.0084 6.9875C10.7959 7.4 10.5834 7.8125 10.3459 8.2375ZM11.3834 7.825C11.5709 8.2625 11.7209 8.6875 11.8584 9.1125C11.4334 9.2125 10.9834 9.2875 10.5084 9.35C10.6584 9.1125 10.8209 8.8625 10.9584 8.6C11.1084 8.3375 11.2459 8.075 11.3834 7.825ZM8.1834 11.2125C7.8834 10.8875 7.5959 10.5375 7.3209 10.175C7.6084 10.1875 7.8959 10.2 8.1834 10.2C8.4709 10.2 8.7584 10.1875 9.0459 10.175C8.7709 10.5375 8.4834 10.8875 8.1834 11.2125ZM5.8584 9.3375C5.3834 9.275 4.9334 9.2 4.5084 9.1C4.6459 8.6875 4.7959 8.25 4.9834 7.8125C5.1209 8.0625 5.2584 8.325 5.4084 8.575C5.5584 8.85 5.7084 9.0875 5.8584 9.3375ZM4.9834 6.15C4.7959 5.7125 4.6459 5.2875 4.5084 4.8625C4.9334 4.7625 5.3834 4.6875 5.8584 4.625C5.7084 4.8625 5.5459 5.1125 5.4084 5.375C5.2584 5.6375 5.1209 5.9 4.9834 6.15ZM8.1834 2.7625C8.4834 3.0875 8.7709 3.4375 9.0459 3.8C8.7584 3.7875 8.4709 3.775 8.1834 3.775C7.8959 3.775 7.6084 3.7875 7.3209 3.8C7.5959 3.4375 7.8834 3.0875 8.1834 2.7625ZM10.9584 5.3875L10.5084 4.6375C10.9834 4.7 11.4334 4.775 11.8584 4.875C11.7209 5.2875 11.5709 5.725 11.3834 6.1625C11.2459 5.9 11.1084 5.6375 10.9584 5.3875ZM4.1459 3.3625C3.9334 2.05 4.1084 1.125 4.6209 0.825C4.7459 0.75 4.8959 0.7125 5.0584 0.7125C5.8084 0.7125 6.7459 1.325 7.6834 2.25C7.2459 2.725 6.8084 3.275 6.3834 3.875C5.6584 3.9375 4.9709 4.05 4.3209 4.1875C4.2459 3.9 4.1959 3.625 4.1459 3.3625ZM1.0584 6.9875C1.0584 6.4 1.7709 5.775 3.0209 5.3125C3.2709 5.2125 3.5459 5.125 3.8209 5.05C4.0209 5.675 4.2709 6.3375 4.5709 7C4.2709 7.6625 4.0084 8.3125 3.8209 8.9375C2.0959 8.4375 1.0584 7.6875 1.0584 6.9875ZM4.6209 13.15C4.1084 12.85 3.9334 11.925 4.1459 10.6125C4.1834 10.35 4.2459 10.075 4.3209 9.7875C4.9709 9.9375 5.6584 10.0375 6.3834 10.1C6.8084 10.7 7.2459 11.2375 7.6834 11.725C6.7584 12.6375 5.8209 13.2625 5.0584 13.2625C4.8959 13.2625 4.7459 13.225 4.6209 13.15ZM12.2209 10.6125C12.4334 11.925 12.2584 12.85 11.7459 13.15C11.6209 13.225 11.4709 13.2625 11.3084 13.2625C10.5584 13.2625 9.6209 12.65 8.6834 11.725C9.1209 11.25 9.5584 10.7 9.9834 10.1C10.7084 10.0375 11.3959 9.925 12.0459 9.7875C12.1209 10.075 12.1709 10.35 12.2209 10.6125ZM13.3459 8.6625C13.0959 8.7625 12.8209 8.85 12.5459 8.925C12.3459 8.3 12.0959 7.6375 11.7959 6.975C12.0959 6.3125 12.3584 5.6625 12.5459 5.0375C14.2709 5.5375 15.3084 6.2875 15.3084 6.9875C15.3084 7.575 14.5834 8.2 13.3459 8.6625Z" fill="#61DAFB"/>
</svg>
