<svg width="17" height="15" viewBox="0 0 17 15" fill="none" xmlns="http://www.w3.org/2000/svg">
<path d="M4.80935 13.3503L15.0541 14.7488C13.8823 12.7981 12.7407 10.8972 11.59 8.98081L4.80935 13.3503ZM16.0231 2.55244L12.0021 8.60144C11.9444 8.68844 11.8695 8.75744 11.9508 8.89156C12.9528 10.5462 13.947 12.2057 14.9436 13.8637C15.1009 14.1256 15.2599 14.3864 15.4632 14.6377L16.0675 2.56519L16.0231 2.55244ZM2.34447 7.71156C2.39135 7.75594 2.50835 7.78181 2.56285 7.75494C3.52397 7.28256 4.49122 6.82069 5.43135 6.30944C5.73797 6.14281 5.97372 5.84406 6.23785 5.60181C7.11247 4.79969 7.98572 3.99594 8.8586 3.19206C8.91197 3.14269 8.97523 3.09494 9.0071 3.03269C9.3206 2.41994 9.62873 1.80406 9.94773 1.17044C9.56735 1.02744 9.20672 0.887561 8.8416 0.760311C8.7921 0.743061 8.7141 0.777311 8.66047 0.807186C7.81535 1.27931 6.95435 1.72631 6.1361 2.24119C5.72672 2.49881 5.39322 2.87844 5.03072 3.20906C4.44647 3.74231 3.86297 4.27681 3.28722 4.81931C3.13362 4.96495 2.99585 5.12643 2.87622 5.30106C2.48247 5.87444 2.10047 6.45606 1.70097 7.05419C1.92422 7.28506 2.12722 7.50581 2.34447 7.71156ZM5.85722 6.92769L4.41272 13.0306L11.2002 8.65719L5.85722 6.92769ZM15.4361 2.57194L9.66735 3.53569L11.6251 8.29769L15.4361 2.57194ZM5.93747 6.51456L11.174 8.21456C10.5177 6.61581 9.88398 5.07294 9.2371 3.49744L5.93747 6.51456ZM2.41685 8.88944L0.5841 13.2704L4.07472 13.1673L2.41685 8.88944ZM4.11597 12.1514L4.15922 12.1419C4.57835 10.3993 5.00347 8.66869 5.43135 6.85794L2.63097 8.31344C3.10835 9.55419 3.61735 10.8631 4.11597 12.1514ZM14.7318 2.28931C14.1745 2.14169 13.6171 1.99356 13.0595 1.84694C12.258 1.63619 11.4558 1.42806 10.6549 1.21544C10.5547 1.18881 10.4824 1.17144 10.4235 1.29206C10.1404 1.87206 9.84848 2.44769 9.56085 3.02556C9.55198 3.04344 9.55385 3.06656 9.54698 3.11144L14.7307 2.32581L14.7318 2.28931ZM11.4982 0.970061L16.0411 2.22681L15.2905 0.088061L11.5049 0.927436L11.4982 0.970061ZM4.5011 13.6849C3.93847 13.6201 3.36085 13.6797 2.79022 13.6896C2.32147 13.6974 1.85272 13.7153 1.38397 13.7299C1.33572 13.7314 1.2876 13.7412 1.23947 13.7932C5.11485 14.1514 8.9901 14.5097 12.8653 14.8682L12.8732 14.8164L9.14635 14.3077C7.59835 14.0963 6.05297 13.8638 4.5011 13.6849ZM0.660725 11.9333C1.1601 10.7746 1.65735 9.61506 2.15872 8.45719C2.20885 8.34106 2.20497 8.26219 2.10685 8.16869C1.8971 7.96906 1.70222 7.75394 1.47297 7.51544C1.1631 9.04544 0.86085 10.5376 0.55835 12.0296L0.592225 12.0454C0.61535 12.0083 0.6436 11.9732 0.660725 11.9333ZM10.5032 0.664186C11.3454 0.446936 12.1997 0.277061 13.0491 0.0875611C13.1041 0.0751861 13.1579 0.0570611 13.212 0.0415611L13.2036 6.10352e-05L9.55435 0.491061C9.89697 0.640686 10.161 0.752436 10.5032 0.664186Z" fill="#D91404"/>
</svg>
