<svg width="16" height="16" viewBox="0 0 16 16" fill="none" xmlns="http://www.w3.org/2000/svg">
<path fill-rule="evenodd" clip-rule="evenodd" d="M0.152344 7.0195C0.152344 7.10737 0.178219 7.16537 0.192719 7.22175C0.287219 7.58837 0.490344 7.903 0.731344 8.19C1.07459 8.599 1.49497 8.92825 1.92559 9.23787C2.29909 9.50637 2.68022 9.76887 3.05522 10.0354C3.11959 10.0811 3.18047 10.1337 3.25034 10.1899C3.19022 10.2224 3.14022 10.251 3.08822 10.2774C2.59334 10.5284 2.11722 10.8098 1.67834 11.1506C1.41384 11.3561 1.15809 11.5745 0.977469 11.8599C0.686844 12.3189 0.583969 12.8079 0.800594 13.33C0.863844 13.4825 0.960344 13.6143 1.09647 13.7116C1.14059 13.7431 1.19009 13.7744 1.24172 13.7866C1.37397 13.8177 1.50872 13.8381 1.64259 13.8628L2.02172 13.8625C2.44097 13.8251 2.82259 13.6815 3.16747 13.4435C3.70647 13.0715 4.06959 12.5728 4.22572 11.9326C4.33922 11.4674 4.34384 11.0016 4.21009 10.5385C4.19729 10.4956 4.18253 10.4533 4.16584 10.4117C4.14959 10.3701 4.13047 10.3296 4.10797 10.2778L4.96747 9.7835L4.98034 9.7945C4.96472 9.84563 4.94809 9.89663 4.93397 9.94825C4.83184 10.3212 4.76397 10.7008 4.78834 11.0879C4.81434 11.5004 4.92947 11.8865 5.17097 12.2311C5.36622 12.5099 5.83147 12.5203 6.03897 12.2405C6.11259 12.1411 6.18397 12.0373 6.23759 11.9264C6.37772 11.637 6.50747 11.3425 6.64134 11.05L6.66472 10.9965C6.65509 11.135 6.64384 11.2566 6.63872 11.3784C6.63072 11.5685 6.64184 11.7575 6.70684 11.9384C6.76247 12.0931 6.85709 12.2087 7.03434 12.2291C7.15559 12.243 7.25222 12.1875 7.34134 12.1171C7.47942 12.008 7.59386 11.872 7.67772 11.7172C7.91534 11.2809 8.15934 10.8471 8.37472 10.3997C8.60772 9.91587 8.81147 9.41787 9.02784 8.92575L9.06359 8.8385C9.11472 9.03937 9.15034 9.23612 9.21597 9.42237C9.29222 9.6385 9.38659 9.8495 9.48934 10.0546C9.53797 10.1515 9.53234 10.2144 9.46497 10.2956C9.18297 10.6356 8.90584 10.9797 8.62847 11.3235C8.56709 11.3994 8.50597 11.4766 8.45484 11.5595C8.42383 11.6118 8.40344 11.6698 8.39484 11.73C8.38624 11.7854 8.39944 11.8421 8.43167 11.888C8.46389 11.9339 8.51265 11.9656 8.56772 11.9764C8.67885 12.0003 8.79281 12.0084 8.90622 12.0005C9.29334 11.972 9.64484 11.8361 9.95559 11.6059C10.3582 11.3076 10.4875 10.9006 10.39 10.4183C10.3636 10.2874 10.317 10.1601 10.2716 10.034C10.2512 9.97713 10.2498 9.93725 10.287 9.88425C10.6088 9.42462 10.8838 8.937 11.1396 8.43812C11.1497 8.4185 11.1601 8.39888 11.1778 8.37788C11.2607 8.80913 11.3855 9.22475 11.609 9.60188C11.495 9.71175 11.3821 9.81138 11.28 9.92113C11.0551 10.1629 10.8601 10.4254 10.7583 10.7455C10.7146 10.8835 10.681 11.0238 10.7005 11.1711C10.7307 11.4 10.9182 11.5487 11.1433 11.4966C11.6251 11.3851 12.041 11.1581 12.3448 10.756C12.5493 10.4852 12.568 10.1832 12.4823 9.86687C12.4588 9.78087 12.431 9.69625 12.401 9.59762C12.5198 9.56075 12.6357 9.5165 12.7556 9.48913C13.378 9.34713 13.9936 9.37188 14.5933 9.59663C14.9435 9.72788 15.2263 9.9475 15.3941 10.293C15.599 10.7154 15.4857 11.1161 15.0876 11.3831C15.0505 11.408 15.008 11.4276 14.9772 11.4587C14.9674 11.4702 14.96 11.4835 14.9556 11.4979C14.9512 11.5123 14.9498 11.5275 14.9516 11.5425C14.9542 11.5579 14.9948 11.5771 15.0182 11.5769C15.1491 11.5759 15.2552 11.5073 15.3571 11.4368C15.6123 11.2601 15.7986 11.0225 15.8387 10.7096L15.8466 10.6861L15.837 10.4824C15.8331 10.4706 15.8398 10.459 15.839 10.4501C15.7847 9.9945 15.5413 9.64113 15.1873 9.36413C14.7773 9.0435 14.2932 8.9115 13.7812 8.89062C13.366 8.87275 12.9513 8.93659 12.5606 9.0785C12.4485 9.11912 12.3373 9.16725 12.2246 9.21262C12.2095 9.18525 12.1932 9.159 12.1798 9.13188C12.0641 8.89488 11.9238 8.66837 11.8928 8.39662C11.8708 8.20362 11.8438 8.01088 11.8897 7.82C11.9338 7.63637 11.9913 7.45588 12.0455 7.27475C12.0733 7.1815 12.0537 7.12925 11.9647 7.08725C11.9337 7.07179 11.9006 7.06092 11.8665 7.055C11.6477 7.02325 11.432 7.04138 11.2201 7.103C11.1451 7.12488 11.0906 7.16687 11.074 7.24988C11.0645 7.2975 11.0451 7.34312 11.0316 7.39012C10.9762 7.5855 10.937 7.78463 10.8475 7.97075C10.6232 8.43762 10.3672 8.88688 10.1052 9.33288C10.0768 9.381 10.047 9.42825 10.0112 9.48662C9.91922 9.29412 9.82109 9.12137 9.79134 8.91887C9.75772 8.68987 9.73122 8.46125 9.78822 8.234C9.83059 8.0645 9.88597 7.89813 9.93697 7.73088C9.96109 7.65137 9.94997 7.60962 9.87797 7.56775C9.84159 7.54663 9.80047 7.52787 9.75947 7.52175C9.53517 7.48758 9.30598 7.50633 9.09022 7.5765C9.02234 7.5985 8.98672 7.64237 8.96597 7.71238C8.90497 7.91888 8.85297 8.13037 8.76734 8.32675C8.42059 9.12175 8.06384 9.91262 7.70747 10.7034C7.63309 10.8685 7.54597 11.0279 7.46209 11.1886C7.44084 11.2294 7.40984 11.2653 7.38334 11.3035C7.36209 11.2784 7.35384 11.2611 7.35397 11.2439C7.35459 11.1422 7.34247 11.0376 7.36184 10.9394C7.42134 10.6422 7.4871 10.3464 7.55909 10.052C7.61784 9.80875 7.68622 9.56775 7.75134 9.32613C7.77322 9.24525 7.77359 9.16963 7.71547 9.10163C7.61784 8.98775 7.41384 8.96275 7.29284 9.0505L7.23934 9.08075L7.24972 8.9945C7.27522 8.80963 7.28034 8.62537 7.22959 8.44325C7.16634 8.21625 7.00434 8.08562 6.76884 8.09287C6.65909 8.09625 6.54384 8.115 6.44222 8.155C6.01484 8.3225 5.68622 8.61912 5.40647 8.976C5.38053 9.00914 5.34839 9.0369 5.31184 9.05775C4.95022 9.25825 4.58747 9.45625 4.22484 9.655L3.82122 9.87613C3.71297 9.77288 3.61459 9.66575 3.50297 9.57487C3.16209 9.29688 2.81572 9.02575 2.47247 8.75088C2.16822 8.50725 1.87347 8.2535 1.64797 7.93087C1.48022 7.69088 1.37209 7.42825 1.36172 7.1315C1.34859 6.75337 1.45584 6.40788 1.64834 6.08625C1.89459 5.67475 2.23047 5.3445 2.59972 5.04537C2.99034 4.72912 3.41284 4.46062 3.85072 4.2155C4.46334 3.87262 5.09347 3.56913 5.76909 3.36875C6.46184 3.16325 7.16472 3.04562 7.88972 3.12762C8.17472 3.15988 8.45147 3.22513 8.70559 3.3645C8.90022 3.47113 9.05984 3.61075 9.13409 3.829C9.20734 4.04375 9.20509 4.26137 9.15434 4.4795C9.05122 4.92125 8.80934 5.28538 8.50497 5.61075C8.00572 6.14412 7.39672 6.50725 6.71109 6.74713C6.31688 6.88523 5.90672 6.97272 5.49047 7.0075C5.14934 7.03613 4.81534 7.00588 4.49234 6.88725C4.27847 6.80862 4.09222 6.68837 3.94247 6.51388C3.91572 6.48263 3.88147 6.44875 3.83159 6.478C3.78272 6.50675 3.77409 6.55325 3.79047 6.60038C3.81784 6.67863 3.84309 6.76012 3.88572 6.83012C3.99284 7.00575 4.14909 7.13312 4.32109 7.24237C4.65147 7.4525 5.02072 7.52313 5.40359 7.5395C5.98459 7.56463 6.55147 7.47788 7.11034 7.322C7.90822 7.0995 8.60197 6.7065 9.15834 6.0865C9.62159 5.57025 9.95247 4.98762 10.0233 4.28412C10.058 3.94075 10.0211 3.60438 9.86034 3.29113C9.68597 2.95175 9.40872 2.69938 9.07722 2.5255C8.59447 2.27238 8.07347 2.125 7.53572 2.125H6.99697C6.34572 2.125 5.71609 2.31163 5.10409 2.53425C4.64084 2.70288 4.18659 2.90187 3.74559 3.12212C2.78522 3.602 1.89084 4.18063 1.15622 4.97625C0.790219 5.37263 0.480344 5.81 0.302094 6.325C0.248294 6.47876 0.201949 6.63502 0.163219 6.79325M3.64309 11.2949C3.60147 11.8523 3.34884 12.3041 2.93597 12.6701C2.70372 12.8759 2.43734 13.0224 2.12709 13.0739C2.01459 13.0925 1.89947 13.097 1.79034 13.0504C1.63472 12.9839 1.59984 12.8457 1.59684 12.6986C1.59222 12.4641 1.67434 12.2521 1.78697 12.0504C1.93397 11.7874 2.14947 11.5869 2.37959 11.3996C2.74209 11.1045 3.13534 10.8548 3.53809 10.619L3.56847 10.6065C3.63072 10.8365 3.66034 11.0636 3.64309 11.2949ZM6.78784 8.8725C6.75847 9.0505 6.72172 9.22862 6.66972 9.40112C6.48997 9.99825 6.25909 10.5769 6.00947 11.1477C5.96334 11.2534 5.89622 11.3497 5.83784 11.4499C5.82791 11.4653 5.81602 11.4793 5.80247 11.4916C5.73022 11.563 5.66172 11.5592 5.62522 11.4659C5.58272 11.3574 5.55659 11.2413 5.53409 11.1264C5.51897 11.0493 5.52259 10.9683 5.51784 10.8892C5.52272 10.3275 5.69409 9.817 5.98484 9.34175C6.10472 9.14575 6.23522 8.959 6.43459 8.835C6.49662 8.79644 6.56372 8.76673 6.63397 8.74675C6.74022 8.71688 6.80547 8.766 6.78784 8.8725ZM8.93334 11.606L9.70447 10.7056C9.73659 11.04 9.16822 11.7075 8.93334 11.606ZM11.3962 11.0001C11.3417 11.0314 11.2823 11.0539 11.2265 11.0828C11.1753 11.1093 11.1585 11.0825 11.157 11.0385C11.1562 11.008 11.1601 10.9776 11.1686 10.9484C11.2727 10.5811 11.4643 10.2676 11.7495 10.0126L11.7695 10.0024C11.9051 10.3818 11.7483 10.7984 11.3962 11.0001Z" fill="#CB6699"/>
</svg>
