<svg width="17" height="15" viewBox="0 0 17 15" fill="none" xmlns="http://www.w3.org/2000/svg">
<path d="M4.24125 0.473375L8.75 0L13.2587 0.4735L16.75 5.12125L8.75 14.3633L0.75 5.12125L4.24125 0.473375Z" fill="#FDB300"/>
<path d="M3.99062 5.12128L8.75 14.3633L0.75 5.12128H3.99062ZM13.5094 5.12128L8.75 14.3633L16.75 5.12128H13.5094Z" fill="#EA6C00"/>
<path d="M3.9906 5.12128H13.5093L8.74998 14.3633L3.9906 5.12128Z" fill="#FDAD00"/>
<path d="M8.74998 0L4.24123 0.473375L3.9906 5.12125L8.74998 0ZM8.74998 0L13.2587 0.473375L13.5093 5.12125L8.74998 0Z" fill="#FDD231"/>
<path d="M16.75 5.12126L13.2588 0.473389L13.5094 5.12126H16.75Z" fill="#FDAD00"/>
<path d="M8.74998 0L3.9906 5.12125H13.5093L8.74998 0Z" fill="#FEEEB7"/>
<path d="M0.75 5.12126L4.24125 0.473389L3.99062 5.12126H0.75Z" fill="#FDAD00"/>
</svg>
