<svg width="16" height="17" viewBox="0 0 16 17" fill="none" xmlns="http://www.w3.org/2000/svg">
<mask id="mask0_2_302" style="mask-type:alpha" maskUnits="userSpaceOnUse" x="0" y="0" width="16" height="17">
<path fill-rule="evenodd" clip-rule="evenodd" d="M11.3459 15.9743C11.4732 16.0239 11.6094 16.0468 11.746 16.0416C11.8825 16.0363 12.0165 16.003 12.1397 15.9438L15.4338 14.3586C15.6034 14.277 15.7466 14.1491 15.8468 13.9897C15.9469 13.8302 16.0001 13.6458 16 13.4575V2.70964C16.0001 2.52134 15.947 2.33686 15.8468 2.17742C15.7466 2.01798 15.6035 1.89006 15.4338 1.80839L12.1397 0.223514C11.9535 0.133952 11.7442 0.104464 11.5405 0.139131C11.3369 0.173798 11.1491 0.270906 11.003 0.417014L4.69679 6.17026L1.95004 4.08514C1.82614 3.99106 1.67321 3.94333 1.51778 3.95022C1.36236 3.95712 1.21426 4.01821 1.09917 4.12289L0.21817 4.92426C0.149513 4.98671 0.0946465 5.0628 0.0570791 5.14766C0.0195116 5.23252 7.07861e-05 5.32429 1.92945e-07 5.4171C-7.04002e-05 5.5099 0.0192308 5.6017 0.0566691 5.68662C0.0941074 5.77154 0.148858 5.84771 0.21742 5.91026L2.59954 8.08351L0.217545 10.2569C0.149021 10.3194 0.0943025 10.3956 0.0568875 10.4805C0.0194725 10.5654 0.000183783 10.6572 0.000254369 10.75C0.000324955 10.8428 0.0197532 10.9345 0.0572974 11.0194C0.0948416 11.1042 0.149676 11.1803 0.218295 11.2428L1.09929 12.0441C1.21436 12.1489 1.36246 12.21 1.51788 12.2169C1.67331 12.2238 1.82626 12.1761 1.95017 12.082L4.69692 9.99701L11.0032 15.7501C11.1007 15.8478 11.2173 15.9241 11.3459 15.9743ZM12.0024 4.45139L7.21755 8.08351L12.0025 11.7158L12.0024 4.45139Z" fill="white"/>
</mask>
<g mask="url(#mask0_2_302)">
<path d="M15.434 1.81098L12.1372 0.223476C11.951 0.133855 11.7415 0.104335 11.5378 0.139002C11.3341 0.173669 11.1462 0.270809 11.0001 0.416976L0.207829 10.2569C0.139254 10.3194 0.0844891 10.3955 0.0470409 10.4804C0.00959275 10.5654 -0.00971396 10.6572 -0.00964336 10.75C-0.00957276 10.8428 0.00987359 10.9345 0.0474509 11.0194C0.0850282 11.1042 0.139909 11.1803 0.208579 11.2427L1.09008 12.0441C1.20524 12.1488 1.35342 12.2099 1.50892 12.2169C1.66443 12.2238 1.81745 12.1761 1.94145 12.082L14.9378 2.2226C15.3738 1.89185 16.0001 2.20285 16.0001 2.7501V2.71185C16.0001 2.52361 15.9469 2.3392 15.8468 2.17981C15.7466 2.02042 15.6035 1.89266 15.434 1.81098Z" fill="#0065A9"/>
<g filter="url(#filter0_d_2_302)">
<path d="M15.434 14.3561L12.1372 15.9434C11.951 16.033 11.7416 16.0626 11.5378 16.028C11.3341 15.9933 11.1462 15.8962 11.0001 15.7501L0.207829 5.91012C0.139254 5.84759 0.0844891 5.77144 0.0470409 5.68653C0.00959275 5.60162 -0.00971396 5.50982 -0.00964336 5.41702C-0.00957276 5.32422 0.00987359 5.23245 0.0474509 5.1476C0.0850282 5.06274 0.139909 4.98667 0.208579 4.92425L1.09008 4.12287C1.20524 4.01815 1.35342 3.95704 1.50892 3.95012C1.66443 3.9432 1.81745 3.99092 1.94145 4.085L14.9378 13.9442C15.3738 14.2751 16.0001 13.9641 16.0001 13.4169V13.4551C16.0001 13.6434 15.9469 13.8278 15.8468 13.9872C15.7466 14.1465 15.6035 14.2744 15.434 14.3561Z" fill="#007ACC"/>
</g>
<g filter="url(#filter1_d_2_302)">
<path d="M12.1374 15.9438C11.9511 16.0333 11.7416 16.0628 11.5379 16.0281C11.3342 15.9934 11.1462 15.8963 11.0001 15.7501C11.3691 16.1191 12.0001 15.8577 12.0001 15.3359V0.831C12.0001 0.309125 11.3691 0.0477496 11.0001 0.416875C11.1462 0.270725 11.3342 0.173589 11.5379 0.138902C11.7416 0.104215 11.9511 0.133689 12.1374 0.22325L15.4335 1.8085C15.6032 1.89012 15.7465 2.01801 15.8467 2.17746C15.9469 2.3369 16.0001 2.52141 16.0001 2.70975V13.4575C16.0001 13.6458 15.9469 13.8303 15.8467 13.9898C15.7465 14.1492 15.6032 14.2771 15.4335 14.3588L12.1374 15.9438Z" fill="#1F9CF0"/>
</g>
<path style="mix-blend-mode:overlay" opacity="0.25" fill-rule="evenodd" clip-rule="evenodd" d="M11.3363 15.9743C11.4636 16.0239 11.5998 16.0468 11.7363 16.0415C11.8729 16.0363 12.0068 16.003 12.13 15.9438L15.4241 14.3586C15.5938 14.277 15.7369 14.149 15.8371 13.9896C15.9373 13.8302 15.9904 13.6457 15.9903 13.4574V2.70964C15.9904 2.52134 15.9373 2.33686 15.8371 2.17742C15.7369 2.01798 15.5938 1.89006 15.4241 1.80839L12.13 0.223514C11.9438 0.133952 11.7345 0.104464 11.5308 0.139131C11.3272 0.173798 11.1394 0.270906 10.9933 0.417014L4.68709 6.17026L1.94034 4.08526C1.81643 3.99118 1.6635 3.94345 1.50808 3.95035C1.35266 3.95724 1.20455 4.01833 1.08947 4.12301L0.208466 4.92439C0.139826 4.98684 0.0849748 5.06293 0.0474184 5.1478C0.00986204 5.23266 -0.00957277 5.32442 -0.00964336 5.41722C-0.00971395 5.51002 0.00958124 5.60182 0.0470085 5.68674C0.0844357 5.77166 0.139171 5.84783 0.207716 5.91039L2.58984 8.08351L0.207841 10.2568C0.139279 10.3193 0.0845282 10.3955 0.0470899 10.4804C0.00965164 10.5653 -0.00964956 10.6571 -0.00957896 10.7499C-0.00950837 10.8427 0.00993246 10.9345 0.0474999 11.0194C0.0850673 11.1042 0.139934 11.1803 0.208591 11.2428L1.08959 12.0441C1.20466 12.1488 1.35276 12.21 1.50818 12.2169C1.6636 12.2238 1.81655 12.1761 1.94047 12.082L4.68734 9.99689L10.9936 15.7501C11.0911 15.8478 11.2078 15.9241 11.3363 15.9743ZM11.9928 4.45126L7.20784 8.08351L11.9928 11.7156V4.45126Z" fill="url(#paint0_linear_2_302)"/>
</g>
<defs>
<filter id="filter0_d_2_302" x="-8.34298" y="-4.38388" width="32.6764" height="28.7593" filterUnits="userSpaceOnUse" color-interpolation-filters="sRGB">
<feFlood flood-opacity="0" result="BackgroundImageFix"/>
<feColorMatrix in="SourceAlpha" type="matrix" values="0 0 0 0 0 0 0 0 0 0 0 0 0 0 0 0 0 0 127 0" result="hardAlpha"/>
<feOffset/>
<feGaussianBlur stdDeviation="4.16667"/>
<feColorMatrix type="matrix" values="0 0 0 0 0 0 0 0 0 0 0 0 0 0 0 0 0 0 0.25 0"/>
<feBlend mode="overlay" in2="BackgroundImageFix" result="effect1_dropShadow_2_302"/>
<feBlend mode="normal" in="SourceGraphic" in2="effect1_dropShadow_2_302" result="shape"/>
</filter>
<filter id="filter1_d_2_302" x="2.66678" y="-8.20858" width="21.6667" height="32.5842" filterUnits="userSpaceOnUse" color-interpolation-filters="sRGB">
<feFlood flood-opacity="0" result="BackgroundImageFix"/>
<feColorMatrix in="SourceAlpha" type="matrix" values="0 0 0 0 0 0 0 0 0 0 0 0 0 0 0 0 0 0 127 0" result="hardAlpha"/>
<feOffset/>
<feGaussianBlur stdDeviation="4.16667"/>
<feColorMatrix type="matrix" values="0 0 0 0 0 0 0 0 0 0 0 0 0 0 0 0 0 0 0.25 0"/>
<feBlend mode="overlay" in2="BackgroundImageFix" result="effect1_dropShadow_2_302"/>
<feBlend mode="normal" in="SourceGraphic" in2="effect1_dropShadow_2_302" result="shape"/>
</filter>
<linearGradient id="paint0_linear_2_302" x1="7.99037" y1="0.124752" x2="7.99037" y2="16.0423" gradientUnits="userSpaceOnUse">
<stop stop-color="white"/>
<stop offset="1" stop-color="white" stop-opacity="0"/>
</linearGradient>
</defs>
</svg>
