<svg width="17" height="16" viewBox="0 0 17 16" fill="none" xmlns="http://www.w3.org/2000/svg">
<path d="M3.58337 0H13.9166C15.4834 0 16.75 1.26662 16.75 2.83337V12.7666C16.75 14.3334 15.4834 15.6 13.9166 15.6H3.58337C2.01662 15.6 0.75 14.3334 0.75 12.7666V2.83337C0.75 1.26662 2.01662 0 3.58337 0Z" fill="#470137"/>
<path d="M9.16336 4.09997L7.16336 7.39997L9.29661 10.9C9.30998 10.9266 9.31661 10.9533 9.30998 10.98C9.30336 11.0066 9.27661 10.9866 9.23661 10.9933H7.70998C7.60336 10.9933 7.52998 10.9866 7.48336 10.92C7.34336 10.64 7.19661 10.3666 7.05661 10.0866C6.91661 9.81335 6.76336 9.53335 6.60336 9.2466C6.44336 8.95997 6.28336 8.67335 6.12336 8.37997H6.10998C5.96998 8.6666 5.81661 8.95335 5.66336 9.23997C5.51101 9.52378 5.35988 9.80824 5.20998 10.0933C5.05661 10.3733 4.90336 10.66 4.74998 10.9333C4.72336 11 4.66998 11.0066 4.59661 11.0066H3.12998C3.10336 11.0066 3.08336 11.02 3.08336 10.9866C3.08037 10.9741 3.08001 10.9612 3.08229 10.9486C3.08457 10.936 3.08944 10.924 3.09661 10.9133L5.16998 7.51335L3.14998 4.09335C3.12998 4.0666 3.12336 4.03997 3.13661 4.0266C3.14998 4.0066 3.17661 3.99997 3.20336 3.99997H4.71661C4.74998 3.99997 4.78336 4.0066 4.80998 4.01335C4.83661 4.0266 4.85661 4.0466 4.87661 4.07335C5.00336 4.35997 5.14998 4.6466 5.30336 4.93335C5.46336 5.21997 5.61661 5.49997 5.78336 5.77997C5.94336 6.05997 6.08998 6.33997 6.22998 6.6266H6.24336C6.38336 6.33335 6.52998 6.0466 6.67661 5.7666C6.82336 5.4866 6.97661 5.2066 7.12998 4.9266C7.28336 4.6466 7.42998 4.35997 7.57661 4.0866C7.58336 4.05997 7.59661 4.03335 7.61661 4.01997C7.64336 4.0066 7.66998 3.99997 7.70336 4.0066H9.10998C9.11787 4.00483 9.12603 4.00464 9.13399 4.00603C9.14196 4.00743 9.14957 4.01038 9.15638 4.01472C9.1632 4.01907 9.16909 4.02472 9.17372 4.03134C9.17835 4.03797 9.18163 4.04545 9.18336 4.05335C9.18998 4.05997 9.17661 4.0866 9.16336 4.09997ZM12.2434 11.1333C11.75 11.14 11.2566 11.04 10.81 10.8333C10.39 10.64 10.0434 10.32 9.80336 9.9266C9.55661 9.51997 9.43661 9.01335 9.43661 8.4066C9.42998 7.91335 9.55661 7.4266 9.80336 6.99997C10.0566 6.5666 10.4234 6.2066 10.8634 5.9666C11.33 5.7066 11.89 5.57997 12.55 5.57997C12.5834 5.57997 12.63 5.57997 12.69 5.5866C12.75 5.59335 12.8166 5.59335 12.8966 5.59997V3.49335C12.8966 3.4466 12.9166 3.41997 12.9634 3.41997H14.3166C14.35 3.41335 14.3766 3.43997 14.3834 3.4666V9.8266C14.3834 9.9466 14.39 10.08 14.3966 10.2266C14.41 10.3666 14.4166 10.5 14.4234 10.6133C14.4234 10.66 14.4034 10.7 14.3566 10.72C14.0074 10.8667 13.643 10.9741 13.27 11.04C12.93 11.1 12.59 11.1333 12.2434 11.1333ZM12.8966 9.79997V6.8666C12.8366 6.85335 12.7766 6.83997 12.7166 6.83335C12.6435 6.82552 12.5701 6.82106 12.4966 6.81997C12.2366 6.81997 11.9766 6.87335 11.7434 6.99335C11.5155 7.10682 11.3204 7.2766 11.1766 7.4866C11.03 7.69997 10.9566 7.9866 10.9566 8.33335C10.9508 8.56732 10.9893 8.80028 11.07 9.01997C11.1366 9.19997 11.2366 9.35997 11.37 9.49335C11.4985 9.616 11.6537 9.70725 11.8234 9.75997C12.0034 9.81997 12.19 9.8466 12.3766 9.8466C12.4766 9.8466 12.57 9.83997 12.6566 9.83335C12.7434 9.83997 12.8166 9.8266 12.8966 9.79997Z" fill="#FF61F6"/>
</svg>
