<svg width="17" height="16" viewBox="0 0 17 16" fill="none" xmlns="http://www.w3.org/2000/svg">
<path d="M8.83374 6.10352e-05C7.25149 6.10352e-05 5.70477 0.469253 4.38918 1.3483C3.07359 2.22736 2.04821 3.47678 1.44271 4.93859C0.837206 6.4004 0.67878 8.00893 0.987462 9.56078C1.29614 11.1126 2.05807 12.5381 3.17689 13.6569C4.29571 14.7757 5.72117 15.5377 7.27302 15.8463C8.82487 16.155 10.4334 15.9966 11.8952 15.3911C13.357 14.7856 14.6065 13.7602 15.4855 12.4446C16.3646 11.129 16.8337 9.58231 16.8337 8.00006C16.8337 5.87833 15.9909 3.8435 14.4906 2.34321C12.9903 0.842916 10.9555 6.10352e-05 8.83374 6.10352e-05ZM9.41937 2.74356C9.51807 2.75472 9.61273 2.78907 9.69562 2.84381C9.77949 2.89931 9.88662 2.97281 10.1989 3.61806C10.3171 3.5757 10.4457 3.5712 10.5666 3.60519C10.6326 3.62317 10.6942 3.65474 10.7473 3.69788C10.8004 3.74101 10.844 3.79476 10.8751 3.85569C11.1939 4.46731 11.2362 5.55744 11.0969 6.25819C10.9732 6.87856 10.7161 7.46461 10.3434 7.97569C10.6768 8.32249 10.9309 8.73761 11.088 9.19231C11.2415 9.6225 11.3035 10.08 11.27 10.5356C11.4087 10.4692 11.5431 10.3942 11.6725 10.3111C12.0672 10.0672 12.6634 9.69931 13.3744 9.69031C13.59 9.67592 13.8032 9.74382 13.9708 9.88033C14.1383 10.0168 14.248 10.2118 14.2775 10.4259C14.3044 10.6285 14.2547 10.8339 14.138 11.0017C14.0213 11.1695 13.8461 11.2877 13.6467 11.3329C13.2145 11.4374 13.0131 11.5187 12.4325 11.8954C11.8057 12.2889 11.1309 12.6003 10.4247 12.8219C10.2883 12.9339 10.1274 13.0122 9.95499 13.0504C9.46337 13.1704 7.77687 13.2607 7.64399 13.2607H7.61299C7.09674 13.2607 6.80424 13.1007 6.64674 12.9331C6.20799 13.1524 5.64024 13.0618 5.22737 12.8438C5.12852 12.7954 5.04217 12.7248 4.97504 12.6375C4.9079 12.5503 4.86177 12.4488 4.84024 12.3408C4.82491 12.2528 4.82491 12.1629 4.84024 12.0749C4.8022 12.0353 4.76804 11.9921 4.73824 11.9459C4.50379 11.5559 4.40152 11.1005 4.44662 10.6477C4.48412 10.1664 4.81712 9.73681 5.03387 9.50844C5.0158 8.99259 5.10629 8.4787 5.29949 8.00006C5.50709 7.55491 5.80707 7.15906 6.17949 6.83881C5.96662 6.48006 5.74999 5.92781 5.96024 5.36519C6.11124 4.96394 6.23512 4.74069 6.50737 4.64519C6.62621 4.61089 6.73651 4.55199 6.83112 4.47231C7.22821 4.04094 7.77637 3.77933 8.36149 3.74194C8.38599 3.68006 8.41437 3.61281 8.44537 3.55344C8.65187 3.11469 8.87112 2.86844 9.12787 2.77931C9.22086 2.74458 9.32074 2.73233 9.41937 2.74356ZM9.34962 3.20569C9.01174 3.21681 8.68024 4.21806 8.68024 4.21806C8.40056 4.19063 8.11833 4.22884 7.856 4.32963C7.59367 4.43043 7.35848 4.59104 7.16912 4.79869C7.02883 4.93395 6.85871 5.03436 6.67249 5.09181C6.61949 5.10981 6.55499 5.10706 6.39499 5.53931C6.14987 6.19356 6.81312 6.93431 6.81312 6.93431C6.81312 6.93431 6.02212 7.49306 5.72912 8.18856C5.5335 8.6654 5.45605 9.18246 5.50337 9.69569C5.50337 9.69569 4.94087 10.1833 4.90487 10.6866C4.87128 11.0391 4.95126 11.3931 5.13312 11.6969C5.14731 11.7272 5.16744 11.7544 5.19231 11.7768C5.21719 11.7992 5.2463 11.8164 5.27792 11.8273C5.30955 11.8383 5.34306 11.8428 5.37645 11.8406C5.40985 11.8384 5.44247 11.8295 5.47237 11.8144C5.47237 11.8144 5.09824 12.2503 5.44787 12.4348C5.76662 12.6012 6.30337 12.6929 6.58724 12.4103C6.79374 12.2039 6.83499 11.7434 6.91112 11.5551C6.92912 11.5112 6.99112 11.6286 7.05049 11.6841C7.10521 11.7319 7.16388 11.7751 7.22587 11.8131C7.22587 11.8131 6.72287 12.0298 6.92924 12.5241C6.99762 12.6878 7.24149 12.7922 7.64024 12.7897C7.78862 12.7897 9.41562 12.6968 9.84912 12.5922C9.98023 12.5715 10.0997 12.5048 10.1861 12.4041C10.8901 12.1947 11.5625 11.8908 12.1849 11.5008C12.7964 11.1021 13.0467 10.9934 13.5409 10.8761C13.9486 10.7793 13.9215 10.1473 13.3809 10.1563C12.8209 10.1628 12.3306 10.4517 11.9164 10.7097C11.1422 11.1884 10.7551 11.1576 10.7551 11.1576L10.742 11.1357C10.6891 11.0492 10.9899 10.2737 10.653 9.34981C10.2892 8.33956 9.71124 8.09569 9.75762 8.01819C9.95512 7.68406 10.4494 7.15356 10.6467 6.16519C10.7642 5.56644 10.7331 4.58069 10.4674 4.06456C10.4182 3.96906 9.97962 4.22456 9.97962 4.22456C9.97962 4.22456 9.56924 3.30969 9.45449 3.23619C9.42353 3.21542 9.38689 3.20476 9.34962 3.20569Z" fill="#2C8EBB"/>
</svg>
