<svg viewBox="0 0 195 195" fill="none" xmlns="http://www.w3.org/2000/svg">
<circle cx="97.5" cy="97.5" r="95.5" stroke="black" stroke-width="4"/>
<path d="M97.5 75.5C90.2344 75.6172 84.375 81.4766 84.375 88.625C84.375 89.6797 85.1953 90.5 86.25 90.5C87.1875 90.5 88.125 89.6797 88.125 88.625C88.125 83.4688 92.2266 79.3672 97.5 79.25C98.4375 79.25 99.375 78.4297 99.375 77.375C99.375 76.4375 98.4375 75.5 97.5 75.5ZM97.5 68C85.4297 68 76.7578 77.8438 76.875 88.7422C76.875 93.8984 78.75 98.5859 81.9141 102.219C84.9609 105.617 87.7734 111.242 88.125 113V121.906C88.125 122.258 88.2422 122.609 88.3594 122.961L91.2891 127.18C91.6406 127.766 92.2266 128 92.8125 128H102.07C102.656 128 103.242 127.766 103.594 127.18L106.523 122.844C106.641 122.609 106.758 122.258 106.758 121.906L106.875 113C107.109 111.242 110.039 105.617 112.969 102.219C116.133 98.5859 118.008 93.8984 118.008 88.625C118.008 77.2578 108.867 68.1172 97.5 68.1172V68ZM103.008 121.32L101.016 124.25H93.8672L91.875 121.32V120.5H103.008V121.32ZM103.125 116.75H91.875L91.7578 113H103.125V116.75ZM110.156 99.7578C108.516 101.633 105.938 105.383 104.18 109.25H90.7031C88.9453 105.383 86.3672 101.633 84.7266 99.7578C82.1484 96.8281 80.625 92.9609 80.625 88.7422C80.625 88.7422 80.625 88.7422 80.625 88.625C80.5078 79.6016 87.6562 71.75 97.5 71.75C106.758 71.75 114.375 79.3672 114.375 88.625C114.258 92.9609 112.734 96.8281 110.156 99.7578ZM71.25 88.625C71.25 87.6875 70.3125 86.75 69.375 86.75H61.875C60.8203 86.75 60 87.6875 60 88.625C60 89.6797 60.8203 90.5 61.875 90.5H69.375C70.3125 90.5 71.25 89.6797 71.25 88.625ZM121.875 75.5C122.109 75.5 122.461 75.5 122.695 75.3828L130.195 71.6328C130.781 71.2812 131.25 70.6953 131.25 69.875C131.25 68.9375 130.312 68 129.375 68C129.023 68 128.672 68.1172 128.438 68.2344L120.938 71.9844C120.352 72.3359 119.883 72.9219 119.883 73.7422C119.883 74.6797 120.82 75.6172 121.758 75.6172L121.875 75.5ZM133.125 86.75H125.625C124.57 86.75 123.75 87.6875 123.75 88.625C123.75 89.6797 124.57 90.5 125.625 90.5H133.125C134.062 90.5 135 89.6797 135 88.625C135 87.6875 134.062 86.75 133.125 86.75ZM73.9453 71.9844L66.4453 68.2344C66.2109 68.1172 65.8594 68.1172 65.625 68.1172C64.5703 68.1172 63.75 68.9375 63.75 69.9922C63.75 70.6953 64.1016 71.2812 64.6875 71.6328L72.1875 75.3828C72.4219 75.5 72.7734 75.5 73.125 75.5C74.0625 75.5 75 74.6797 75 73.625C75 72.9219 74.5312 72.3359 73.9453 71.9844ZM130.195 105.734L122.695 101.984C122.461 101.867 122.109 101.867 121.875 101.867C120.82 101.867 120 102.688 120 103.742C120 104.445 120.352 105.031 120.938 105.383L128.438 109.133C128.672 109.25 129.023 109.367 129.258 109.367C130.312 109.367 131.133 108.43 131.133 107.375C131.133 106.672 130.781 106.086 130.195 105.734ZM73.125 101.75C72.7734 101.867 72.4219 101.867 72.1875 101.984L64.6875 105.734C64.1016 106.086 63.6328 106.672 63.6328 107.492C63.6328 108.43 64.5703 109.367 65.5078 109.367C65.8594 109.367 66.2109 109.25 66.4453 109.133L73.9453 105.383C74.5312 105.031 75 104.445 75 103.625C75 102.688 74.0625 101.75 73.125 101.75Z" fill="black"/>
</svg>
