<svg viewBox="0 0 195 195" fill="none" xmlns="http://www.w3.org/2000/svg">
<circle cx="97.5" cy="97.5" r="95.5" stroke="black" stroke-width="4"/>
<path d="M127.18 70.3438C126.945 69.6406 126.359 69.0547 125.656 68.8203C121.906 68 118.859 68 115.93 68C103.742 68 96.3594 74.5625 90.9688 83H79.0156C77.1406 83.1172 74.9141 84.4062 73.9766 86.1641L68.2344 97.7656C68.1172 98.1172 68 98.5859 68 98.9375C68 100.578 69.1719 101.75 70.8125 101.75H81.5938L80.4219 104.328C79.25 106.555 80.8906 108.43 81.125 108.664L87.3359 114.875C87.5703 115.109 89.4453 116.75 91.6719 115.578L94.1328 114.406V125.188C94.25 126.828 95.4219 128 96.9453 128C97.4141 128 97.8828 127.883 98.2344 127.766L109.836 122.023C111.477 121.086 112.883 118.859 112.883 116.984V105.031C121.438 99.5234 127.883 92.2578 127.883 80.0703C128 77.1406 128 74.0938 127.18 70.3438ZM72.2188 98L77.375 87.8047C77.7266 87.2188 78.4297 86.8672 79.0156 86.75H89.0938C87.4531 90.1484 85.3438 94.25 83.4688 98H72.2188ZM109.133 116.984C109.133 117.57 108.664 118.391 108.078 118.625L97.8828 123.664V112.531C101.633 110.656 105.852 108.547 109.133 106.906V116.984ZM110.891 101.867C106.203 104.211 94.9531 109.836 90.0312 112.297L83.7031 105.969C86.1641 101.047 91.7891 89.6797 94.0156 85.1094C99.9922 75.8516 106.672 71.75 115.93 71.75C118.391 71.75 120.852 71.75 123.664 72.3359C124.25 75.2656 124.25 77.6094 124.133 80.0703C124.133 89.3281 120.031 96.0078 110.891 101.867ZM111.008 78.4297C107.492 78.4297 104.445 81.3594 104.445 84.9922C104.445 88.5078 107.492 91.5547 111.008 91.5547C114.641 91.5547 117.57 88.5078 117.57 84.9922C117.57 81.3594 114.641 78.4297 111.008 78.4297ZM111.008 87.8047C109.484 87.8047 108.195 86.5156 108.195 84.9922C108.195 83.3516 109.484 82.1797 111.008 82.1797C112.648 82.1797 113.82 83.3516 113.82 84.9922C113.82 86.5156 112.648 87.8047 111.008 87.8047Z" fill="black"/>
</svg>
