<svg viewBox="0 0 195 195" fill="none" xmlns="http://www.w3.org/2000/svg">
<circle cx="97.5" cy="97.5" r="95.5" stroke="black" stroke-width="4"/>
<path d="M97.75 101.25C101.852 101.25 105.25 97.9688 105.25 93.75C105.25 89.6484 101.852 86.25 97.75 86.25C97.6328 86.25 97.5156 86.3672 97.3984 86.3672C97.5156 86.9531 97.6328 87.5391 97.6328 88.2422C97.6328 91.2891 95.1719 93.75 92.125 93.75C91.4219 93.75 90.8359 93.6328 90.25 93.5156C90.25 93.6328 90.25 93.75 90.25 93.75C90.25 97.9688 93.5312 101.25 97.75 101.25ZM131.031 95.8594C124.703 83.4375 112.047 75 97.75 75C83.3359 75 70.6797 83.4375 64.3516 95.8594C64.1172 96.3281 64 96.9141 64 97.5C64 98.2031 64.1172 98.7891 64.3516 99.2578C70.6797 111.68 83.3359 120 97.75 120C112.047 120 124.703 111.68 131.031 99.2578C131.266 98.7891 131.383 98.2031 131.383 97.6172C131.383 96.9141 131.266 96.3281 131.031 95.8594ZM97.75 78.75C105.953 78.75 112.75 85.5469 112.75 93.75C112.75 102.07 105.953 108.75 97.75 108.75C89.4297 108.75 82.75 102.07 82.75 93.75C82.75 85.5469 89.4297 78.8672 97.75 78.75ZM97.75 116.25C85.0938 116.25 73.6094 109.102 67.75 97.5C71.0312 91.0547 76.3047 85.6641 82.8672 82.3828C80.4062 85.5469 79 89.5312 79 93.75C79 104.18 87.3203 112.5 97.75 112.5C108.062 112.5 116.5 104.18 116.5 93.75C116.5 89.5312 114.977 85.5469 112.516 82.3828C119.078 85.6641 124.352 91.0547 127.75 97.5C121.773 109.102 110.289 116.25 97.75 116.25Z" fill="black"/>
</svg>
