<svg viewBox="0 0 195 195" fill="none" xmlns="http://www.w3.org/2000/svg">
<circle cx="97.5" cy="97.5" r="95.5" stroke="black" stroke-width="4"/>
<path d="M90.6429 74.3535C93.5726 69.5488 100.487 69.666 103.416 74.3535L108.807 83.0254L102.713 81.6191C101.893 81.3848 101.19 81.8535 100.955 82.6738L100.838 83.4941C100.604 84.3145 101.073 85.0176 101.893 85.252L112.791 87.7129C113.612 87.9473 114.315 87.4785 114.549 86.6582L117.01 75.7598C117.244 74.9395 116.776 74.2363 115.955 74.002L115.135 73.7676C114.315 73.6504 113.612 74.1191 113.377 74.8223L111.971 81.0332L106.58 72.3613C102.127 65.2129 91.9319 65.2129 87.4788 72.3613L82.4398 80.4473C81.971 81.1504 82.2054 81.9707 82.9085 82.4395L83.6116 82.9082C84.3148 83.2598 85.1351 83.1426 85.6038 82.4395L90.6429 74.3535ZM125.33 102.361L119.119 92.4004C118.651 91.6973 117.83 91.5801 117.127 91.9316L116.424 92.4004C115.721 92.8691 115.487 93.6895 115.955 94.3926L122.166 104.354C125.213 109.275 121.698 115.721 115.721 115.721H103.416L107.869 111.385C108.455 110.799 108.455 109.861 107.869 109.393L107.166 108.689C106.698 108.104 105.76 108.104 105.174 108.689L97.2054 116.658C96.7366 117.244 96.7366 118.064 97.2054 118.65L105.174 126.619C105.76 127.205 106.698 127.205 107.166 126.619L107.869 125.916C108.455 125.447 108.455 124.51 107.869 123.924L103.416 119.471H115.721C124.627 119.471 130.018 109.861 125.33 102.361ZM71.8929 104.354L78.4554 93.8066L79.8616 99.9004C80.096 100.721 80.7991 101.189 81.6194 100.955L82.4398 100.838C83.2601 100.604 83.7288 99.9004 83.4944 99.0801L81.0335 88.0645C80.7991 87.3613 80.096 86.8926 79.2757 87.127L68.3773 89.5879C67.5569 89.8223 67.0882 90.5254 67.3226 91.3457L67.4398 92.166C67.6741 92.9863 68.3773 93.4551 69.1976 93.2207L75.2913 91.8145L68.7288 102.361C64.0413 109.744 69.4319 119.471 78.3382 119.471H90.0569C90.7601 119.471 91.4632 118.885 91.4632 118.064V117.127C91.4632 116.424 90.7601 115.721 90.0569 115.721H78.3382C72.3616 115.721 68.846 109.275 71.8929 104.354Z" fill="black"/>
</svg>
