<svg viewBox="0 0 500 500">
    <g id="Symbols" stroke="none" stroke-width="1" fill="none" fill-rule="evenodd">
        <g id="circle-copy-4" transform="translate(-7.000000, -6.000000)">
            <g id="Group" transform="translate(7.499833, 6.000233)">
                <path d="M177.031165,36.8316911 C175.400533,36.5181898 173.98989,35.8017656 172.802364,34.6813666 C171.614839,33.5630716 170.757818,32.115495 170.232346,30.3407408 L166.945016,19.2545763 C166.426842,17.5071746 166.361158,15.8439343 166.749007,14.2627515 C167.135813,12.6815686 167.926106,11.3086852 169.118845,10.1430494 C170.310541,8.9774136 171.838998,8.11370692 173.704217,7.55087735 C175.568392,6.98804778 177.313711,6.85654555 178.941216,7.15531863 C180.567678,7.45514372 181.968937,8.14421544 183.146037,9.22463781 C184.322094,10.3040082 185.16556,11.704244 185.675394,13.4242932 C185.746291,13.6652053 185.617008,13.8661407 185.287545,14.0239434 L183.525545,14.6877667 L183.405645,14.7235353 C183.298257,14.7571999 183.198167,14.7582519 183.101205,14.7277434 C183.005285,14.6982869 182.950027,14.6572582 182.934388,14.6025532 L182.862449,14.3616411 C182.296315,12.4532807 181.24537,11.1088018 179.707529,10.3282046 C178.170731,9.5476073 176.416029,9.45502972 174.445508,10.0504718 C172.473944,10.644862 171.060173,11.7010879 170.204196,13.2191497 C169.348218,14.7361595 169.199126,16.4362204 169.756919,18.3172284 L173.103677,29.6053803 C173.662512,31.4874403 174.711372,32.824555 176.25234,33.6177765 C177.794351,34.41205 179.550096,34.5119917 181.52166,33.9165496 C183.492181,33.3211075 184.908037,32.2722456 185.768185,30.7678601 C186.628334,29.2645265 186.775341,27.5581535 186.209207,25.648741 C186.113287,25.3268236 186.24257,25.1269402 186.597056,25.0490908 L188.418484,24.586203 C188.764629,24.4831052 188.958553,24.4967814 188.998172,24.6314397 L189.057601,24.8334272 C189.575775,26.5808289 189.638331,28.237757 189.248397,29.8052637 C188.856378,31.3738224 188.062957,32.7330295 186.866047,33.883937 C185.669138,35.0358966 184.138596,35.8932912 182.27442,36.4571728 C180.410244,37.0200024 178.661798,37.1451925 177.031165,36.8316911" id="Fill-1" fill="#FD0079"></path>
                <path d="M203.079991,10.1670578 C203.374644,10.2222093 203.514656,10.4237242 203.498983,10.7737239 L203.451964,12.6870552 C203.436291,13.0370549 203.239856,13.1929638 202.862658,13.1537214 C202.310966,13.0943276 201.628666,13.1622063 200.814713,13.3573576 C199.405183,13.7041754 198.336281,14.4773565 197.609052,15.6790219 C196.880778,16.881748 196.671804,18.2584132 196.98004,19.8111389 L199.3916,31.955066 C199.462651,32.3156717 199.320549,32.5320352 198.965293,32.6041563 L197.122143,32.9817317 C196.766887,33.0538528 196.553733,32.9096105 196.482682,32.5500654 L192.518446,12.5873584 C192.44635,12.2278133 192.587407,12.0103893 192.943708,11.9382681 L194.786858,11.5606928 C195.142114,11.4885716 195.355268,11.6328139 195.427364,11.992359 L195.889196,14.3214475 C195.912183,14.4317505 195.944574,14.4900837 195.988459,14.4964474 C196.031298,14.5017504 196.072048,14.457205 196.110708,14.3628111 C196.485817,13.2470547 197.062585,12.3222071 197.839968,11.5850867 C198.617351,10.8500874 199.579676,10.3643303 200.727988,10.128876 C201.628666,9.94433075 202.412319,9.95811862 203.079991,10.1670578" id="Fill-3" fill="#FD0079"></path>
                <path d="M212.850718,11.1472553 C212.062666,11.9618168 211.601093,12.9871317 211.465999,14.2189849 C211.365702,14.7975027 211.363655,15.7585378 211.460882,17.1052515 C211.477257,17.2454025 211.551968,17.306521 211.688086,17.2907145 L222.139489,16.0430548 C222.274584,16.0272483 222.334967,15.9492696 222.318592,15.8091186 C222.126185,14.5878032 221.944012,13.7047468 221.773097,13.1588957 C221.333016,11.938634 220.617629,11.0123731 219.626936,10.3801132 C218.634196,9.74996077 217.448025,9.51602458 216.065353,9.68146594 C214.709291,9.84374599 213.638769,10.3326937 212.850718,11.1472553 M221.407727,25.1043937 C222.227505,24.4552735 222.82622,23.613314 223.204894,22.5785152 C223.242761,22.4320416 223.326684,22.3224499 223.455637,22.2507938 C223.584591,22.1791377 223.721733,22.1770301 223.867062,22.2434174 L225.121803,22.773462 C225.469774,22.9304732 225.577235,23.1570331 225.446235,23.4563028 C224.952935,24.9294685 224.10143,26.154999 222.893767,27.1339482 C221.684057,28.1128973 220.185736,28.7093292 218.395734,28.9221901 C216.49827,29.1487499 214.847456,28.8789856 213.442268,28.1139511 C212.03708,27.3478628 210.957348,26.1760743 210.20307,24.5964782 C209.529644,23.2624097 209.05579,21.3666836 208.77946,18.9103537 C208.644366,17.7111673 208.557373,16.751186 208.517459,16.0356785 C208.478568,15.3180634 208.505177,14.642599 208.598311,14.0103391 C208.855195,12.1399034 209.619707,10.5782213 210.893894,9.3231853 C212.168081,8.06709553 213.793309,7.32208255 215.772648,7.08603883 C218.131685,6.80468315 220.052688,7.21143706 221.535658,8.30735431 C223.019651,9.40327156 224.078914,11.0734916 224.71652,13.3169607 C224.980568,14.1915869 225.218007,15.5762362 225.431906,17.4751236 C225.472844,17.8376193 225.317281,18.0399425 224.964193,18.0820932 L211.952135,19.6353451 C211.816017,19.6511516 211.756657,19.7301841 211.772009,19.8682275 C211.929619,21.265522 212.125096,22.2739767 212.360488,22.8956989 C212.799546,24.1170144 213.542565,25.040114 214.588525,25.6639438 C215.63346,26.2888274 216.888202,26.5143334 218.352749,26.3394082 C219.569623,26.1665904 220.587949,25.7535139 221.407727,25.1043937" id="Fill-5" fill="#FD0079"></path>
                <path d="M242.583454,24.0990936 C243.800341,23.250112 244.394981,22.1244487 244.369496,20.7210517 L244.310032,17.4818766 C244.307909,17.3409057 244.23464,17.2725243 244.093413,17.2756803 L239.634678,17.355634 C237.765811,17.3892987 236.271778,17.7953791 235.153644,18.5728232 C234.035509,19.3502673 233.488653,20.4128093 233.513075,21.7583451 C233.535374,22.9934187 233.991973,23.9181458 234.881808,24.5325266 C235.76952,25.1479593 236.895088,25.4435774 238.253203,25.4193809 C239.923503,25.3899243 241.366566,24.9501792 242.583454,24.0990936 M245.045899,7.8295768 C246.47091,9.095159 247.203591,10.7941742 247.241818,12.9255703 L247.500012,26.9353443 C247.50622,27.3003958 247.325705,27.4866037 246.958302,27.4929158 L245.046961,27.5276326 C244.678496,27.5339447 244.49161,27.355101 244.485239,26.9900494 L244.456568,25.4761901 C244.455507,25.3920283 244.425775,25.3362712 244.368434,25.3089186 C244.311094,25.2826181 244.254816,25.3110227 244.200661,25.3951844 C243.45099,26.2241776 242.507,26.8574947 241.367628,27.2993438 C240.229318,27.7401409 238.979513,27.9736898 237.621398,27.9978863 C235.638912,28.033655 233.966488,27.5591932 232.603064,26.5734488 C231.239641,25.5877044 230.538815,24.0580647 230.50165,21.9813737 C230.462362,19.8773302 231.203537,18.2025115 232.724116,16.9537617 C234.243633,15.7060638 236.377964,15.0569664 239.123925,15.0075214 L244.049877,14.9180995 C244.192166,14.9159955 244.261187,14.84551 244.259063,14.7045391 L244.230393,13.1485989 C244.203847,11.7167973 243.779104,10.5963941 242.958289,9.78318124 C242.13535,8.96996841 240.874926,8.57861631 239.177018,8.60912494 C237.84545,8.63332144 236.760232,8.90579508 235.920304,9.42654586 C235.080375,9.94624462 234.554757,10.6574113 234.345571,11.558994 C234.265932,11.896693 234.056746,12.04082 233.71589,11.9903229 L231.630404,11.7757105 C231.260878,11.7262655 231.088857,11.5758263 231.112218,11.3222891 C231.367063,9.77476507 232.214425,8.51128691 233.655364,7.53080262 C235.095241,6.55031832 236.905707,6.04113978 239.08676,6.00221498 C241.634154,5.95592602 243.620887,6.56609865 245.045899,7.8295768" id="Fill-7" fill="#FD0079"></path>
                <path d="M261.859883,9.34923531 L257.470206,9.0663022 C257.337063,9.05791899 257.265448,9.12288882 257.25637,9.26225957 L256.529128,21.4786826 C256.448436,22.8178993 256.680427,23.7777761 257.226111,24.3583129 C257.769777,24.9398977 258.660421,25.2689384 259.896027,25.3496267 L260.782636,25.4062133 C261.130623,25.4282192 261.294026,25.6210329 261.272844,25.9836065 L261.186099,27.4475233 C261.164918,27.8100969 260.977307,27.9945274 260.626295,27.9997669 L259.257547,27.9117432 C257.324959,27.788091 255.884596,27.3165358 254.93545,26.5002214 C253.987312,25.6828591 253.573762,24.2577145 253.69581,22.2205961 L254.478528,9.0841165 C254.485589,8.94474575 254.423052,8.87034482 254.2889,8.86196162 L251.994205,8.71525556 C251.64521,8.69220175 251.480798,8.49938807 251.50198,8.13681453 L251.58469,6.75568179 C251.605872,6.39415614 251.791465,6.22439628 252.14046,6.24640219 L254.437173,6.39415614 C254.570316,6.40149145 254.641931,6.33756952 254.65,6.19715087 L254.929398,1.51198812 C254.95058,1.14941458 255.136173,0.979654708 255.485168,1.00166062 L257.216024,1.11378596 C257.56502,1.13474397 257.728422,1.32860555 257.70724,1.69013119 L257.428851,6.37634184 C257.419773,6.51571259 257.48231,6.58906562 257.618478,6.59849672 L262.007146,6.88142984 C262.354125,6.90238784 262.519544,7.09624942 262.498363,7.45777506 L262.415653,8.83890781 C262.393462,9.20043345 262.208878,9.37124122 261.859883,9.34923531" id="Fill-9" fill="#FD0079"></path>
                <path d="M270.356392,3.478562 C269.982526,3.03121423 269.83447,2.4914907 269.911161,1.85835348 C269.987851,1.22729212 270.262659,0.743616805 270.733454,0.407327529 C271.203183,0.0720761825 271.776232,-0.0566271207 272.453665,0.022255549 C273.130032,0.100100289 273.65728,0.356468965 274.032211,0.790323649 C274.408208,1.22521626 274.557328,1.75767428 274.480638,2.38977357 C274.402882,3.02291079 274.128074,3.51281368 273.65728,3.86155812 C273.184355,4.21134048 272.610241,4.34730929 271.932808,4.26842662 C271.257506,4.18954395 270.731323,3.9269477 270.356392,3.478562 M267.507126,28.1719514 L269.929268,8.38381854 C269.972939,8.02677066 270.177447,7.86796739 270.543858,7.91156045 L272.448339,8.13263951 C272.814749,8.17519463 272.975586,8.3755151 272.931915,8.73256297 L270.511903,28.5206958 C270.467167,28.8787816 270.261594,29.035509 269.895184,28.9929539 L267.991768,28.7708369 C267.625357,28.7282818 267.463455,28.5289993 267.507126,28.1719514" id="Fill-11" fill="#FD0079"></path>
                <path d="M288.508594,28.8054382 C289.575652,28.2584837 290.393903,27.3964245 290.959184,26.2203143 C291.34853,25.3803862 291.726425,24.0093116 292.093909,22.1060365 C292.47805,20.1205603 292.637328,18.7062773 292.573825,17.8621337 C292.513445,16.5627217 292.08454,15.4540587 291.285027,14.5371986 C290.486555,13.6203386 289.405964,13.0259603 288.044294,12.7561716 C286.735716,12.4979754 285.547899,12.6434084 284.480841,13.1903628 C283.412742,13.7383711 282.596572,14.6004304 282.02921,15.7765405 C281.65652,16.5332135 281.279667,17.9042882 280.896567,19.8897645 C280.512426,21.8762946 280.352107,23.2905776 280.416651,24.1326134 C280.47599,25.4341332 280.904895,26.54385 281.704408,27.4596562 C282.50288,28.3765163 283.584512,28.9687868 284.946182,29.2385755 C286.253718,29.4978256 287.441536,29.3545004 288.508594,28.8054382 M279.65878,29.2659759 C278.452223,27.9686716 277.749527,26.3689089 277.551731,24.4687955 C277.414314,23.1240674 277.551731,21.3904641 277.961897,19.2669319 C278.366859,17.1708001 278.867595,15.5225597 279.46723,14.3243185 C280.353148,12.6676472 281.595099,11.4672982 283.196207,10.7243254 C284.796273,9.98240645 286.604546,9.80957306 288.619985,10.2089868 C290.58233,10.5968081 292.16574,11.4398978 293.372296,12.738256 C294.577812,14.0355603 295.27218,15.604761 295.455402,17.4448043 C295.580326,18.8443332 295.44395,20.5779364 295.044194,22.6466678 C294.634027,24.7712539 294.115593,26.4289791 293.489933,27.621951 C292.59881,29.3081304 291.352694,30.5221796 289.752628,31.2640986 C288.15152,32.0070714 286.384889,32.1872818 284.451692,31.8047298 C282.461238,31.4105854 280.864295,30.565388 279.65878,29.2659759" id="Fill-13" fill="#FD0079"></path>
                <path d="M317.722259,19.6502952 C318.616263,21.3110717 318.739901,23.2080428 318.092119,25.3433268 L314.065932,38.5967044 C313.958144,38.9483484 313.729888,39.0690936 313.380106,38.9621175 L311.560397,38.4071132 C311.209558,38.3001371 311.088033,38.0724159 311.193707,37.7207719 L315.048702,25.0340496 C315.507328,23.5215567 315.434413,22.1626433 314.827843,20.9583685 C314.221273,19.7562121 313.20363,18.9353564 311.774915,18.5000381 C310.400094,18.0806073 309.141514,18.1250924 308.00129,18.6324341 C306.860009,19.1408351 306.029409,20.0093534 305.508436,21.2369299 L301.408277,34.7339162 C301.301546,35.0855602 301.07329,35.2073646 300.722451,35.1003886 L298.902742,34.5453842 C298.551903,34.4384082 298.430378,34.2096277 298.538166,33.8579837 L304.44641,14.4031737 C304.553141,14.0525888 304.782454,13.9307844 305.133292,14.0367013 L306.953002,14.5927648 C307.302783,14.6986817 307.425365,14.9285213 307.317578,15.2791061 L306.863179,16.778889 C306.837817,16.860445 306.846271,16.9292909 306.888541,16.9854269 C306.929753,17.042622 306.97625,17.0352078 307.02803,16.9621252 C308.706137,15.7027736 310.75833,15.4432773 313.184609,16.1846954 C315.315001,16.8339657 316.826142,17.9895188 317.722259,19.6502952" id="Fill-15" fill="#FD0079"></path>
                <path d="M457.991056,154.736344 C459.335637,155.263798 460.769787,155.183945 462.289341,154.495732 C463.834933,153.795962 464.867063,152.762067 465.385732,151.391947 C465.902317,150.021826 465.824205,148.582359 465.154518,147.073545 L461.933147,139.825775 C461.875864,139.697589 461.784212,139.662915 461.657148,139.719653 L451.85035,144.156785 C451.723287,144.214574 451.687875,144.307036 451.745158,144.435222 L454.96757,151.682992 C455.637257,153.190755 456.644391,154.208889 457.991056,154.736344 M468.007196,152.669605 C467.246899,154.65544 465.751299,156.154797 463.522482,157.163475 C461.316577,158.160595 459.232528,158.265665 457.271377,157.480788 C455.308142,156.69486 453.820875,155.163981 452.809575,152.889203 L449.502801,145.449153 C449.445518,145.320967 449.353866,145.286294 449.227844,145.344083 L438.051468,150.40008 C437.722353,150.54928 437.483848,150.456818 437.335955,150.124795 L436.569408,148.399536 C436.420473,148.066462 436.512126,147.82585 436.841241,147.67665 L462.499725,136.06845 C462.82884,135.9203 463.068386,136.011712 463.215238,136.343735 L467.646836,146.313884 C468.647721,148.563446 468.768535,150.68272 468.007196,152.669605" id="Fill-17" fill="#FD0079"></path>
                <path d="M469.451761,173.293081 C469.436196,173.595704 469.258756,173.761251 468.917364,173.791829 L467.055794,173.99639 C466.714403,174.026968 466.538,173.849823 466.526585,173.468118 C466.512058,172.908213 466.356408,172.234429 466.059636,171.445712 C465.538729,170.081273 464.649451,169.113302 463.388688,168.543907 C462.125851,167.973458 460.764435,167.944988 459.299253,168.456389 L447.838249,172.463241 C447.497895,172.582392 447.268572,172.468513 447.152353,172.122659 L446.54532,170.328011 C446.428063,169.982156 446.539094,169.75018 446.879447,169.631029 L465.719283,163.045029 C466.057561,162.926932 466.286885,163.039757 466.404141,163.385611 L467.012212,165.18026 C467.129468,165.526114 467.016363,165.75809 466.678084,165.877241 L464.479274,166.645924 C464.374469,166.681775 464.323624,166.722898 464.323624,166.767184 C464.323624,166.81147 464.371356,166.846267 464.468897,166.872628 C465.599951,167.10144 466.57328,167.556956 467.389922,168.238121 C468.204489,168.919286 468.802184,169.818719 469.179893,170.935365 C469.476665,171.812655 469.566942,172.598209 469.451761,173.293081" id="Fill-19" fill="#FD0079"></path>
                <path d="M456.288677,194.041977 C457.24422,194.766221 458.376951,195.138075 459.687924,195.155489 C460.614991,195.154465 462.019831,194.925001 463.902442,194.466075 C465.866264,193.985636 467.215205,193.544124 467.952429,193.13949 C469.104144,192.547392 469.923634,191.707392 470.409843,190.616417 C470.896053,189.526466 470.967771,188.31871 470.626054,186.994173 C470.295937,185.721881 469.653635,184.724125 468.698091,183.999881 C467.741492,183.275637 466.608761,182.903784 465.299898,182.886369 C464.454042,182.866906 463.049202,183.097394 461.08538,183.576808 C459.121558,184.056223 457.770508,184.497735 457.034338,184.903393 C455.882623,185.493442 455.063134,186.335491 454.576924,187.425442 C454.090715,188.515393 454.018996,189.723149 454.361769,191.047685 C454.689775,192.319977 455.333133,193.317733 456.288677,194.041977 M452.059393,186.349832 C452.714352,184.738466 453.860794,183.452857 455.497663,182.48993 C456.655707,181.812808 458.285194,181.217638 460.386125,180.705443 C462.458579,180.199394 464.167168,179.965833 465.510835,180.003736 C467.393447,180.107199 469.016606,180.717735 470.378203,181.836369 C471.7398,182.955003 472.675305,184.493637 473.182608,186.45432 C473.6762,188.362759 473.593935,190.120612 472.938976,191.731978 C472.281908,193.342319 471.160778,194.609489 469.572424,195.532465 C468.358483,196.221879 466.727941,196.81705 464.682908,197.316952 C462.583032,197.829147 460.857569,198.053489 459.506518,197.988952 C457.596485,197.891635 455.959615,197.284172 454.598018,196.165538 C453.235366,195.046904 452.311463,193.548221 451.825253,191.667441 C451.324278,189.732368 451.402325,187.960173 452.059393,186.349832" id="Fill-21" fill="#FD0079"></path>
                <path d="M475.48402,210.73906 L474.745175,206.335005 C474.721987,206.199905 474.641884,206.143613 474.503811,206.165106 L462.353444,208.088234 C461.022258,208.299072 460.134801,208.7361 459.691072,209.401365 C459.246289,210.06663 459.128243,211.017448 459.336932,212.256888 L459.485545,213.146296 C459.544568,213.496328 459.392794,213.701025 459.033384,213.757316 L457.576773,213.9876 C457.21631,214.044916 456.99181,213.899581 456.905383,213.554666 L456.67456,212.18115 C456.349932,210.241646 456.478518,208.713583 457.06032,207.599009 C457.641067,206.48341 458.945903,205.765947 460.969559,205.445597 L474.035841,203.378157 C474.174967,203.355641 474.232937,203.276832 474.209749,203.142756 L473.822936,200.839915 C473.764966,200.48886 473.915686,200.28621 474.27615,200.227871 L475.648442,200.011916 C476.008905,199.954601 476.218649,200.099936 476.278726,200.450991 L476.66554,202.753832 C476.687673,202.888932 476.767776,202.945223 476.906903,202.922707 L481.566581,202.185798 C481.927045,202.128482 482.136788,202.274841 482.196866,202.624873 L482.487766,204.36275 C482.546789,204.712781 482.395015,204.916455 482.034552,204.97377 L477.374873,205.710679 C477.235747,205.733196 477.177778,205.810981 477.200965,205.946081 L477.93981,210.350136 C477.998834,210.700167 477.84706,210.904864 477.486596,210.961156 L476.114304,211.179158 C475.753841,211.23545 475.544097,211.089092 475.48402,210.73906" id="Fill-23" fill="#FD0079"></path>
                <path d="M461.527311,230.122551 C462.343781,231.028303 463.396237,231.600807 464.683626,231.840062 C465.597019,231.994937 467.021364,231.994937 468.953501,231.840062 C470.969918,231.678778 472.374247,231.451272 473.169647,231.158612 C474.405413,230.744187 475.355679,230.017877 476.022551,228.97968 C476.687315,227.940415 476.964388,226.70996 476.85377,225.291518 C476.746312,223.927549 476.283821,222.793223 475.466298,221.888539 C474.649828,220.981719 473.597372,220.409215 472.309983,220.16996 C471.479817,220.007608 470.057579,220.008677 468.041162,220.16996 C466.024744,220.332312 464.619362,220.55875 463.825016,220.852478 C462.589249,221.265835 461.636876,221.992145 460.973165,223.03141 C460.306293,224.070675 460.030274,225.298994 460.141946,226.719572 C460.247297,228.082473 460.709788,229.216799 461.527311,230.122551 M458.676514,221.501886 C459.597281,219.955271 460.945774,218.826286 462.723045,218.111724 C463.978828,217.610784 465.686567,217.274331 467.843102,217.10023 C469.971191,216.929333 471.69368,216.97633 473.01162,217.242288 C474.847888,217.665257 476.341764,218.566736 477.492197,219.946726 C478.642629,221.325648 479.300019,223.06559 479.464367,225.16655 C479.625554,227.2109 479.242076,229.005315 478.321309,230.550861 C477.398434,232.097475 476.078387,233.210439 474.355898,233.891889 C473.043225,234.397102 471.335486,234.734623 469.234788,234.903384 C467.078254,235.076416 465.339963,235.016603 464.022022,234.722874 C462.156256,234.300973 460.648684,233.400562 459.498252,232.02164 C458.346765,230.64165 457.693589,228.944433 457.536617,226.928921 C457.374376,224.855731 457.75364,223.046364 458.676514,221.501886" id="Fill-25" fill="#FD0079"></path>
                <path d="M477.380822,249.442582 L477.454922,245.027494 C477.457039,244.89177 477.388232,244.822895 477.247442,244.821882 L464.884403,244.629438 C463.530492,244.608167 462.573544,244.883667 462.012502,245.455937 C461.452519,246.028207 461.161412,246.934723 461.140241,248.177511 L461.126479,249.068834 C461.120128,249.419286 460.932761,249.592486 460.565437,249.587422 L459.084498,249.564126 C458.717174,249.558049 458.523455,249.379784 458.500167,249.028319 L458.524514,247.65082 C458.556271,245.706115 458.963821,244.239484 459.74187,243.252951 C460.519918,242.265406 461.940519,241.787333 464.000497,241.819744 L477.294019,242.026369 C477.435868,242.028395 477.506792,241.961546 477.509967,241.826834 L477.548076,239.517497 C477.554427,239.166032 477.740736,238.993845 478.10806,238.999922 L479.505372,239.021192 C479.872696,239.02727 480.052653,239.205534 480.04736,239.556999 L480.007134,241.865323 C480.005017,242.000035 480.074883,242.06891 480.215672,242.071948 L484.958066,242.144875 C485.324331,242.150952 485.505347,242.329216 485.500167,242.679668 L485.469356,244.4218 C485.464063,244.772252 485.276696,244.946465 484.910431,244.940388 L480.169095,244.866448 C480.027247,244.864423 479.956323,244.930259 479.953147,245.065983 L479.877989,249.481071 C479.872696,249.831523 479.686387,250.004723 479.320122,249.999767 L477.92281,249.977376 C477.554427,249.972312 477.374471,249.793034 477.380822,249.442582" id="Fill-27" fill="#FD0079"></path>
                <path d="M451.136987,253.005404 L452.567899,253.121327 C452.921527,253.150051 453.090654,253.258793 453.076303,253.45063 L453.051703,253.735821 C452.966628,254.80067 453.049653,255.63675 453.301805,256.248166 C453.556007,256.857531 454.046987,257.405343 454.774743,257.889552 C455.504549,258.37376 456.638208,258.92465 458.178796,259.543248 C458.231072,259.575049 458.313072,259.581205 458.423773,259.562739 L478.92087,254.301073 C478.977245,254.278504 479.046946,254.270297 479.129972,254.277478 C479.237598,254.285685 479.329848,254.341082 479.403649,254.443668 C479.47745,254.545229 479.509225,254.664229 479.49795,254.80067 L479.344199,256.724168 C479.316523,257.050393 479.149447,257.24223 478.843994,257.300705 L462.398757,261.284142 C462.287031,261.301582 462.22963,261.338513 462.224505,261.392884 C462.220405,261.447255 462.271655,261.492393 462.379281,261.529324 L477.984012,267.975865 C478.277165,268.082555 478.410416,268.284651 478.38684,268.585229 L478.228989,270.547711 C478.213614,270.738522 478.148013,270.870859 478.032188,270.943695 C477.916362,271.016532 477.765685,271.018583 477.580159,270.948824 L456.322506,261.657557 C454.549241,260.856356 453.250555,260.134146 452.424398,259.490928 C451.598241,258.84771 451.049861,258.08344 450.778234,257.196066 C450.507632,256.309718 450.433831,255.089964 450.559907,253.535777 L450.583483,253.248535 C450.597833,253.057723 450.783359,252.97668 451.136987,253.005404" id="Fill-30" fill="#FD0079"></path>
                <path d="M461.748177,287.893636 C462.471316,288.175435 463.501997,288.435396 464.84022,288.672481 C466.121298,288.900208 467.134316,289.02187 467.875118,289.041627 C468.617998,289.059304 469.300616,288.983395 469.920895,288.811821 C470.961966,288.657923 471.840954,288.215989 472.560976,287.483937 C473.282037,286.751885 473.74335,285.812903 473.944914,284.665953 C474.138167,283.574114 474.014527,282.609136 473.570877,281.76998 C473.128266,280.931864 472.461232,280.249725 471.568737,279.726682 C471.065865,279.383532 470.457015,279.092375 469.739071,278.85425 C469.022166,278.613006 468.008109,278.379041 466.698978,278.146115 C465.389847,277.914229 464.348776,277.786328 463.579921,277.763452 C462.810028,277.739535 462.114941,277.814404 461.493624,277.985979 C460.508658,278.149235 459.669152,278.556854 458.977183,279.208838 C458.285214,279.859782 457.847798,280.705177 457.663896,281.742944 C457.471682,282.835823 457.57766,283.825757 457.983906,284.713786 C458.390152,285.602854 459.01147,286.303711 459.849937,286.818435 C460.391252,287.252051 461.025038,287.610798 461.748177,287.893636 M464.324879,291.580932 C462.060914,291.179551 460.397486,290.71682 459.337713,290.191697 C457.678442,289.389975 456.466976,288.247184 455.702277,286.760204 C454.93654,285.273223 454.726663,283.560596 455.068492,281.622322 C455.257588,280.556479 455.643055,279.611259 456.22593,278.784581 C456.806727,277.958943 457.54649,277.315278 458.443141,276.854626 C458.534572,276.814072 458.570937,276.765199 458.555352,276.704888 C458.53665,276.645617 458.486778,276.608182 458.404698,276.594664 L448.95298,274.921551 C448.597644,274.85916 448.451146,274.650151 448.514525,274.295563 L448.838691,272.451916 C448.902069,272.097328 449.110907,271.950709 449.466242,272.01414 L477.049425,276.89518 C477.402682,276.956531 477.54918,277.16658 477.485802,277.521167 L477.161636,279.364815 C477.098257,279.719403 476.88942,279.864981 476.534084,279.802591 L474.979751,279.527031 C474.89871,279.512473 474.845721,279.531191 474.821824,279.584223 C474.798966,279.636215 474.809356,279.693407 474.854033,279.758917 C475.539768,280.499288 476.021861,281.351962 476.302389,282.316939 C476.580839,283.280877 476.625516,284.310325 476.433302,285.402164 C476.09459,287.312362 475.320541,288.830538 474.109075,289.953572 C472.897609,291.077646 471.402499,291.734829 469.624782,291.927201 C468.329158,292.091497 466.56287,291.977114 464.324879,291.580932" id="Fill-32" fill="#FD0079"></path>
                <path d="M477.193044,301.883438 C477.693404,301.586831 478.256046,301.515727 478.884136,301.669109 C479.511171,301.822491 479.962973,302.144493 480.241655,302.63105 C480.51717,303.119638 480.573117,303.678315 480.406331,304.308096 C480.239544,304.937878 479.912304,305.402088 479.426721,305.702758 C478.940084,306.002412 478.383776,306.075548 477.755686,305.92115 C477.127596,305.766752 476.668404,305.44475 476.37811,304.953115 C476.086761,304.462495 476.025535,303.902802 476.192322,303.27302 C476.359109,302.643239 476.692683,302.180045 477.193044,301.883438 M452.664813,296.026471 L472.303443,300.849378 C472.657073,300.936734 472.790081,301.151063 472.699298,301.492364 L472.22955,303.263878 C472.138767,303.604163 471.916033,303.732151 471.561347,303.644794 L451.923773,298.821888 C451.569087,298.734531 451.437135,298.520202 451.527918,298.179917 L451.997666,296.407387 C452.088449,296.066086 452.310127,295.939114 452.664813,296.026471" id="Fill-34" fill="#FD0079"></path>
                <path d="M464.542912,324.318994 C462.872697,325.152311 460.990558,325.220974 458.895445,324.522902 L445.888332,320.190901 C445.542119,320.076463 445.427764,319.847587 445.544217,319.506354 L446.145369,317.731524 C446.260773,317.38925 446.490532,317.274812 446.835696,317.39029 L459.286771,321.537109 C460.772339,322.031273 462.119422,321.997982 463.329068,321.434115 C464.537666,320.871288 465.379068,319.892322 465.850128,318.498259 C466.30545,317.157253 466.296008,315.918201 465.825998,314.781103 C465.353889,313.642964 464.518782,312.802365 463.316479,312.255143 L450.069115,307.844076 C449.723951,307.729638 449.609596,307.500762 449.726049,307.158488 L450.326151,305.383658 C450.443654,305.041384 450.672364,304.927987 451.016479,305.043465 L470.112743,311.402059 C470.456857,311.516497 470.572262,311.744333 470.456857,312.086607 L469.854657,313.861437 C469.739253,314.203711 469.508444,314.318149 469.16328,314.20267 L467.6924,313.712667 C467.612666,313.685618 467.544473,313.69186 467.48677,313.731394 C467.429068,313.770927 467.436412,313.816702 467.505655,313.86976 C468.705859,315.557201 468.904145,317.583795 468.103659,319.951622 C467.399693,322.028152 466.213127,323.483596 464.542912,324.318994" id="Fill-36" fill="#FD0079"></path>
                <path d="M444.85218,340.872552 C445.404338,341.153613 446.219379,341.538223 447.296245,342.027438 C448.605377,342.619145 449.489042,343.004811 449.949349,343.18338 C450.409657,343.359835 450.85624,343.485573 451.286987,343.557423 C452.45676,343.840597 453.576912,343.738105 454.6485,343.24889 C455.719033,342.759675 456.533017,341.900643 457.092566,340.668625 C457.637333,339.460908 457.754522,338.284891 457.438852,337.136345 C457.123182,335.988856 456.489731,334.99669 455.538499,334.164074 C454.834313,333.535385 453.609641,332.825336 451.86765,332.034985 C449.994747,331.185462 448.641273,330.725833 447.807229,330.658209 C446.61423,330.425753 445.469795,330.580019 444.376036,331.121009 C443.281222,331.659885 442.454568,332.546389 441.897131,333.778407 C441.328081,335.036841 441.206669,336.226595 441.531841,337.348725 C441.86018,338.471912 442.514746,339.378492 443.499762,340.072691 C443.84816,340.324167 444.300022,340.590435 444.85218,340.872552 M456.764227,346.922757 L455.979803,348.654557 C455.827775,348.988449 455.586008,349.080375 455.253446,348.929278 L436.942488,340.627417 C434.071899,339.324604 432.345745,337.536804 431.766138,335.262958 C431.189697,332.991226 431.549708,330.416243 432.85145,327.543294 C433.095329,327.003361 433.294866,326.598676 433.446894,326.328181 C433.624261,326.006969 433.879753,325.921383 434.212314,326.071423 L435.716761,326.846982 C436.075716,327.009701 436.154897,327.246384 435.951137,327.555974 C434.591329,330.218655 434.097237,332.368877 434.468862,334.006637 C434.841542,335.644398 436.103166,336.951436 438.257955,337.92881 L439.602983,338.538479 C439.681108,338.573348 439.742342,338.570178 439.791962,338.531083 C439.841582,338.490931 439.839471,338.428591 439.785628,338.341948 C438.80589,336.475958 438.804834,334.46521 439.781405,332.309706 C440.536267,330.63919 441.65642,329.36068 443.140807,328.473119 C444.624138,327.583446 446.284835,327.291819 448.12501,327.600352 C449.315898,327.769411 450.949146,328.325193 453.02581,329.266641 C454.155464,329.778045 455.089805,330.239788 455.829886,330.652926 C456.571024,331.066064 457.201308,331.515128 457.722849,332.000116 C459.053096,333.159228 459.913534,334.553966 460.303107,336.18433 C460.692679,337.814695 460.504755,339.478871 459.738279,341.171576 C458.727925,343.404213 457.2182,344.792612 455.21016,345.336771 C455.11092,345.35262 455.061299,345.391715 455.063411,345.456169 C455.065522,345.517453 455.105641,345.567114 455.182711,345.603039 L456.489731,346.195803 C456.823349,346.346899 456.915199,346.588865 456.764227,346.922757" id="Fill-38" fill="#FD0079"></path>
                <path d="M367.146543,422.054573 C368.79446,421.872971 370.347646,422.142749 371.8061,422.862857 C373.263514,423.581914 374.500233,424.711412 375.516258,426.249251 L381.858087,435.862581 C382.857456,437.378376 383.400862,438.946657 383.487266,440.570572 C383.574711,442.192389 383.217645,443.733377 382.415027,445.197735 C381.612408,446.658945 380.402756,447.934354 378.785027,449.018714 C377.167299,450.105173 375.538119,450.743403 373.897488,450.936551 C372.257899,451.12865 370.720328,450.883016 369.284776,450.198599 C367.849224,449.513132 366.639571,448.424573 365.655817,446.933971 C365.517363,446.724027 365.582947,446.494139 365.852568,446.247455 L367.343293,445.094863 L367.447394,445.025581 C367.540044,444.963648 367.635817,444.932156 367.736795,444.933206 C367.836732,444.933206 367.902315,444.95525 367.932505,445.002488 L368.070959,445.212432 C369.162978,446.866789 370.554807,447.839879 372.248529,448.133801 C373.942252,448.426672 375.645343,447.999436 377.35468,446.852093 C379.0661,445.7037 380.110232,444.28133 380.489159,442.581835 C380.868087,440.882339 380.519349,439.215385 379.442945,437.585171 L372.984523,427.795488 C371.908119,426.163174 370.519413,425.195333 368.818404,424.891964 C367.117394,424.586496 365.41118,425.008483 363.700802,426.155826 C361.990423,427.303169 360.942127,428.72134 360.555913,430.409289 C360.168657,432.096188 360.521559,433.768391 361.613578,435.423798 C361.797837,435.703024 361.732253,435.932912 361.416827,436.111365 L359.81055,437.086554 C359.509698,437.28915 359.320235,437.331139 359.244241,437.21462 L359.128689,437.039317 C358.12932,435.524572 357.590077,433.962589 357.51096,432.35127 C357.430803,430.738901 357.797238,429.20841 358.606102,427.758748 C359.417048,426.306986 360.630865,425.038925 362.247553,423.953515 C363.866322,422.868105 365.498625,422.235124 367.146543,422.054573" id="Fill-40" fill="#FD0079"></path>
                <path d="M340.745573,440.091895 C340.258344,441.20516 340.15154,442.41013 340.425161,443.70254 C340.632666,444.613199 341.167702,445.940799 342.030269,447.683207 C342.930472,449.499193 343.657755,450.721225 344.213134,451.349302 C345.041117,452.339937 346.034901,452.944555 347.196519,453.161023 C348.358136,453.377491 349.541115,453.157824 350.745454,452.503088 C351.899952,451.873944 352.721832,451.000607 353.209061,449.888409 C353.696289,448.773012 353.803093,447.570175 353.529472,446.277764 C353.359603,445.440683 352.824567,444.113083 351.924364,442.296031 C351.024161,440.478979 350.296879,439.256947 349.741499,438.629936 C348.914533,437.638235 347.919733,437.034684 346.758115,436.818216 C345.596497,436.601747 344.413518,436.821415 343.209179,437.476151 C342.054681,438.105294 341.232801,438.976498 340.745573,440.091895 M347.236189,434.08304 C348.938945,434.340029 350.437249,435.160049 351.7311,436.538833 C352.643509,437.515605 353.580331,438.975432 354.542582,440.918313 C355.492626,442.836668 356.098865,444.461778 356.361297,445.792577 C356.679674,447.668278 356.450809,449.411753 355.672667,451.021934 C354.895543,452.629983 353.616949,453.919194 351.834853,454.889568 C350.10158,455.833284 348.384583,456.174514 346.681826,455.916459 C344.980087,455.657337 343.506195,454.857578 342.261169,453.517182 C341.324347,452.488159 340.386509,451.028332 339.449687,449.134503 C338.486419,447.191622 337.886284,445.548384 337.648264,444.204789 C337.317681,442.301363 337.540443,440.546158 338.317567,438.93811 C339.094692,437.327929 340.338701,436.060044 342.047561,435.129125 C343.804228,434.172613 345.534449,433.822852 347.236189,434.08304" id="Fill-42" fill="#FD0079"></path>
                <path d="M311.661265,469.40615 C310.114365,468.639412 308.972753,467.229875 308.238491,465.176487 L303.549322,452.071569 C303.426601,451.729163 303.533853,451.49494 303.869015,451.371002 L305.574729,450.738706 C305.910922,450.612667 306.139863,450.7219 306.262584,451.064307 L310.75375,463.616753 C311.271446,465.063052 312.090271,466.064013 313.210227,466.618585 C314.330182,467.170006 315.549139,467.202566 316.866067,466.714165 C318.23662,466.205807 319.190542,465.373949 319.728863,464.220691 C320.267184,463.067433 320.281622,461.778683 319.773207,460.358642 L315.254197,447.726371 C315.131476,447.383964 315.238728,447.151842 315.57389,447.026854 L317.317762,446.378802 C317.654986,446.254864 317.882896,446.363047 318.005616,446.705454 L322.496782,459.2579 C323.014478,460.705249 323.827116,461.708311 324.934696,462.266034 C326.041245,462.822707 327.26639,462.854216 328.61013,462.355312 C329.979652,461.846954 330.920167,461.020347 331.432707,459.877593 C331.945246,458.732737 331.947309,457.450289 331.439926,456.029198 L326.919884,443.396927 C326.797164,443.05452 326.904415,442.821348 327.239577,442.696359 L328.98448,442.049358 C329.320673,441.92542 329.549614,442.033604 329.671303,442.37601 L336.45085,461.323891 C336.57357,461.665247 336.46735,461.89842 336.131157,462.023409 L334.387285,462.67146 C334.051092,462.795398 333.82112,462.686164 333.699431,462.344808 L333.205454,460.962579 C333.176578,460.884855 333.132234,460.840741 333.071389,460.833389 C333.009513,460.827087 332.968263,460.872251 332.944543,460.970982 C332.649601,461.944634 332.12778,462.777543 331.381143,463.473909 C330.634506,464.167124 329.718742,464.716445 328.633849,465.118719 C327.315891,465.608171 326.079402,465.753116 324.925415,465.555655 C323.772459,465.358194 322.771099,464.849836 321.922367,464.032682 C321.788302,463.903492 321.705801,463.918197 321.674863,464.079947 C321.49336,465.368697 320.979789,466.468388 320.13415,467.379021 C319.288512,468.288603 318.207745,468.989171 316.889786,469.477572 C314.952036,470.197046 313.209196,470.172888 311.661265,469.40615" id="Fill-44" fill="#FD0079"></path>
                <path d="M276.861375,476.942257 C275.455098,475.953735 274.547026,474.403153 274.137162,472.290511 L271.516699,458.800032 C271.448902,458.448098 271.589632,458.237972 271.93889,458.16862 L273.712916,457.818756 C274.063201,457.750439 274.271729,457.892248 274.339526,458.244183 L276.849048,471.165355 C277.138727,472.653831 277.792045,473.756214 278.809003,474.469399 C279.826987,475.183619 281.021656,475.406166 282.393007,475.13497 C283.817775,474.853422 284.883012,474.194062 285.588719,473.15482 C286.293399,472.115578 286.503981,470.865176 286.220465,469.401542 L283.695535,456.399632 C283.62671,456.046662 283.767441,455.835502 284.116699,455.767185 L285.931814,455.40904 C286.281072,455.340723 286.489599,455.482532 286.558424,455.834466 L289.066919,468.756674 C289.356598,470.24515 290.003752,471.348568 291.007356,472.064858 C292.013014,472.780114 293.213845,473.001625 294.610878,472.726288 C296.036673,472.444741 297.087529,471.787451 297.766528,470.753385 C298.444499,469.718283 298.641727,468.470986 298.358212,467.008387 L295.833281,454.006477 C295.764457,453.653508 295.906215,453.443382 296.254445,453.37403 L298.06956,453.01692 C298.418819,452.947568 298.627346,453.088342 298.696171,453.442347 L302.483567,472.94573 C302.551364,473.297664 302.411661,473.508825 302.061375,473.577142 L300.247287,473.935287 C299.898029,474.003604 299.688474,473.86076 299.620677,473.50986 L299.344353,472.088666 C299.328944,472.006893 299.290937,471.957208 299.231357,471.940646 C299.172805,471.924085 299.124525,471.962383 299.086518,472.053472 C298.647891,472.956081 298.007927,473.686862 297.167653,474.246852 C296.327379,474.805807 295.342265,475.197076 294.21334,475.419622 C292.841988,475.690819 291.604176,475.639064 290.498877,475.266427 C289.394605,474.893791 288.486534,474.243747 287.775691,473.314226 C287.663723,473.168277 287.57949,473.169312 287.525047,473.321472 C287.150108,474.548067 286.477273,475.539694 285.506541,476.293248 C284.536836,477.046802 283.365794,477.559177 281.995469,477.829339 C279.979017,478.225783 278.267653,477.930779 276.861375,476.942257" id="Fill-46" fill="#FD0079"></path>
                <path d="M253.188168,480.874822 L251.35191,480.997334 C250.998154,481.022465 250.809007,480.852833 250.786514,480.490532 L249.50236,460.429943 C249.478844,460.066595 249.644476,459.872879 249.997209,459.85089 L251.83449,459.72733 C252.188246,459.703247 252.37637,459.871832 252.399886,460.23518 L252.501105,461.822603 C252.506217,461.906372 252.537912,461.959775 252.593122,461.983859 C252.650378,462.007942 252.702521,461.977576 252.751597,461.889618 C253.814909,460.138846 255.556083,459.182832 257.978185,459.020529 C259.28381,458.932572 260.504574,459.124193 261.6415,459.5933 C262.778426,460.062406 263.699623,460.79015 264.404067,461.779671 C265.109534,462.767099 265.508276,463.984891 265.601316,465.434095 L266.497974,479.435042 C266.52149,479.797343 266.355858,479.991059 266.002102,480.014095 L264.165844,480.137655 C263.813111,480.160691 263.623964,479.991059 263.600448,479.629805 L262.760023,466.506339 C262.658804,464.918916 262.142484,463.686464 261.212085,462.812125 C260.281687,461.936738 259.06808,461.550354 257.572286,461.650877 C256.021282,461.754541 254.820966,462.310558 253.970316,463.318927 C253.119666,464.327297 252.743417,465.612105 252.843614,467.172303 L253.68404,480.295769 C253.706533,480.65807 253.541924,480.851786 253.188168,480.874822" id="Fill-48" fill="#FD0079"></path>
                <path d="M229.256913,478.818065 C228.018466,477.442835 227.434179,475.638905 227.506075,473.404155 L227.954671,459.533 C227.966822,459.164787 228.148083,458.988638 228.499466,459.000311 L230.321187,459.06504 C230.671557,459.076713 230.840666,459.266656 230.829528,459.634869 L230.400172,472.91285 C230.348528,474.497124 230.75358,475.791709 231.611278,476.799787 C232.472014,477.806804 233.616286,478.335249 235.046119,478.386183 C236.423296,478.434996 237.576682,478.065721 238.506277,477.277298 C239.437896,476.488874 239.991805,475.433045 240.169015,474.10981 L240.625712,459.982922 C240.637863,459.613647 240.819124,459.437498 241.170507,459.450232 L242.991216,459.514961 C243.342598,459.526634 243.511707,459.716577 243.499556,460.084791 L242.842359,480.446907 C242.830207,480.81406 242.648947,480.992331 242.297564,480.979597 L240.476855,480.914868 C240.125472,480.902134 239.956363,480.712191 239.968515,480.343977 L240.018133,478.774559 C240.021171,478.689668 239.996868,478.624939 239.944211,478.581432 C239.891555,478.535803 239.850037,478.557026 239.820671,478.639795 C238.578173,480.296226 236.742275,481.079344 234.313988,480.993392 C232.182401,480.918051 230.496372,480.192235 229.256913,478.818065" id="Fill-50" fill="#FD0079"></path>
                <path d="M221.494141,459.798718 L219.208554,479.598506 C219.167282,479.955277 218.955344,480.114995 218.570509,480.076621 L216.573827,479.877493 C216.188992,479.839119 216.018326,479.641028 216.058482,479.284256 L218.345185,459.484468 C218.386457,459.127697 218.598395,458.966942 218.98323,459.005316 L220.979912,459.205481 C221.364747,459.243855 221.535413,459.440909 221.494141,459.798718 M218.821488,484.504115 C219.219709,484.945931 219.381451,485.4842 219.308946,486.116847 C219.236441,486.748458 218.955344,487.23487 218.46677,487.577122 C217.979312,487.9173 217.380308,488.052126 216.670872,487.981601 C215.960322,487.91004 215.405936,487.660092 215.007715,487.230722 C214.607263,486.801351 214.444405,486.270342 214.516911,485.638732 C214.590531,485.006085 214.871628,484.512412 215.361317,484.157715 C215.851006,483.804055 216.451126,483.661968 217.160561,483.732493 C217.871112,483.804055 218.424383,484.061262 218.821488,484.504115" id="Fill-52" fill="#FD0079"></path>
                <path d="M209.304523,458.661965 C210.52918,459.956737 211.242694,461.535958 211.446108,463.399629 C211.584846,464.680705 211.456539,466.427435 211.061186,468.639819 C210.704429,470.628858 210.225624,472.283933 209.62164,473.601882 C208.822589,475.225351 207.618795,476.425306 206.009216,477.203854 C204.400681,477.980296 202.610638,478.188892 200.639087,477.82859 C198.641457,477.465126 197.001627,476.637063 195.719598,475.347558 C194.438611,474.057001 193.714666,472.610523 193.548805,471.012338 C193.508122,470.604627 193.493518,470.21588 193.502907,469.847149 L193.516468,469.763921 C193.571755,469.459455 193.767866,469.309856 194.10689,469.31407 L195.950134,469.437331 L196.073225,469.459455 C196.319408,469.503703 196.457104,469.685961 196.484226,470.00623 C196.464406,470.115796 196.46232,470.286465 196.476924,470.518239 C196.536383,471.612843 196.979721,472.614737 197.805895,473.521814 C198.634155,474.429946 199.730504,475.008326 201.099116,475.259063 C202.467727,475.507693 203.676736,475.349665 204.724057,474.784981 C205.772422,474.220296 206.543309,473.353252 207.033589,472.187009 C207.467538,471.180901 207.840986,469.808169 208.152887,468.065653 C208.478349,466.240962 208.6077,464.809234 208.539895,463.769413 C208.488781,462.474641 208.069435,461.37793 207.283944,460.478227 C206.498453,459.577471 205.419837,459.003304 204.051226,458.753621 C202.71078,458.508152 201.491339,458.649323 200.392904,459.178188 C199.294468,459.704946 198.540272,460.488763 198.128228,461.526476 C198.091718,461.577045 198.065639,461.643417 198.049992,461.725591 L198.000964,461.760357 C197.91021,462.114338 197.677588,462.230225 197.304141,462.104857 L195.590247,461.49171 C195.243922,461.371609 195.117701,461.134568 195.208455,460.779533 L195.499493,460.104229 C196.19736,458.575577 197.372988,457.450421 199.029509,456.723495 C200.686029,455.998676 202.513625,455.818524 204.511255,456.181987 C206.482806,456.54229 208.079867,457.368247 209.304523,458.661965" id="Fill-55" fill="#FD0079"></path>
                <path d="M180.427441,454.472824 C179.036592,454.928156 178.151507,455.823262 177.772184,457.155029 L176.895459,460.228259 C176.85784,460.361021 176.905908,460.447109 177.039664,460.484448 L181.262368,461.66997 C183.031494,462.168865 184.555053,462.209316 185.833045,461.79236 C187.111037,461.374368 187.931335,460.526974 188.294983,459.249141 C188.630416,458.079176 188.466357,457.077239 187.806984,456.245403 C187.146566,455.41253 186.172659,454.815101 184.885262,454.453118 C183.303184,454.009195 181.817244,454.015418 180.427441,454.472824 M173.42304,469.126417 C172.444952,467.529126 172.244319,465.719208 172.82114,463.696664 L176.614363,450.40388 C176.711545,450.057455 176.936212,449.934028 177.284186,450.032562 L179.09511,450.540791 C179.443083,450.638288 179.568479,450.861286 179.469208,451.206675 L179.058536,452.6432 C179.036592,452.723064 179.048087,452.783222 179.094065,452.825747 C179.141089,452.867235 179.201696,452.855826 179.276934,452.79152 C180.222627,452.222096 181.293717,451.892265 182.493336,451.79788 C183.692956,451.703495 184.936465,451.837294 186.223862,452.200314 C188.100619,452.726176 189.539536,453.648249 190.539568,454.965496 C191.539599,456.280668 191.759042,457.922559 191.196851,459.893243 C190.627345,461.88882 189.447579,463.261039 187.655464,464.00575 C185.863349,464.753573 183.667877,464.76187 181.066959,464.030643 L176.40119,462.719619 C176.268479,462.681243 176.181747,462.728954 176.143084,462.862753 L175.721963,464.339729 C175.335326,465.696389 175.411608,466.874651 175.951855,467.875551 C176.491057,468.874377 177.566326,469.601456 179.175572,470.052639 C180.4358,470.407362 181.536148,470.458185 182.476617,470.205107 C183.417086,469.95203 184.117212,469.42928 184.574907,468.638932 C184.746281,468.341255 184.984533,468.264502 185.290708,468.40971 L187.194634,469.202133 C187.527978,469.353564 187.646059,469.544409 187.550967,469.77778 C186.86547,471.165556 185.703469,472.117708 184.063919,472.634235 C182.425414,473.150761 180.574781,473.120683 178.508885,472.538812 C176.09606,471.861519 174.400082,470.723708 173.42304,469.126417" id="Fill-57" fill="#FD0079"></path>
                <path d="M156.770056,462.201219 L161.159395,463.774041 C161.294848,463.822451 161.386226,463.782281 161.436752,463.65353 L165.835767,452.386273 C166.317379,451.150264 166.368981,450.178966 165.986271,449.471351 C165.605711,448.762706 164.79729,448.187961 163.561007,447.745058 L162.675184,447.426785 C162.326875,447.302154 162.217222,447.071433 162.347301,446.73668 L162.87514,445.38737 C163.005218,445.052617 163.250324,444.934166 163.609384,445.034077 L164.978969,445.525391 C166.912945,446.217556 168.240604,447.088943 168.961948,448.140581 C169.685442,449.191189 169.678992,450.65483 168.945823,452.532535 L164.2157,464.649548 C164.165173,464.778299 164.207099,464.866879 164.341478,464.91529 L166.637738,465.738266 C166.987122,465.862897 167.094625,466.091559 166.964546,466.428371 L166.467883,467.701461 C166.33673,468.035184 166.098074,468.140244 165.748689,468.015613 L163.45243,467.192637 C163.319126,467.144227 163.226674,467.184397 163.176147,467.313148 L161.489428,471.634031 C161.35935,471.967754 161.118544,472.073845 160.76916,471.949214 L159.03729,471.328119 C158.688981,471.203488 158.579328,470.972766 158.710481,470.638014 L160.3972,466.31713 C160.447726,466.188379 160.4058,466.099799 160.271422,466.051388 L155.881007,464.478566 C155.532698,464.353935 155.423045,464.123214 155.553124,463.788461 L156.049787,462.515371 C156.18094,462.180619 156.421746,462.076588 156.770056,462.201219" id="Fill-59" fill="#FD0079"></path>
                <path d="M157.434311,442.517188 L149.566072,460.563254 C149.423918,460.888917 149.19241,460.981377 148.869517,460.836523 L147.198189,460.089655 C146.876311,459.946856 146.785941,459.71057 146.92708,459.385934 L154.795318,441.339869 C154.938488,441.012151 155.171012,440.921746 155.49289,441.066599 L157.164218,441.81244 C157.487111,441.955239 157.57748,442.190497 157.434311,442.517188 M147.771883,465.08453 C147.985114,465.613604 147.966837,466.167335 147.715021,466.743667 C147.46422,467.319998 147.076342,467.701137 146.550371,467.885029 C146.026431,468.070976 145.466953,468.03091 144.871936,467.764832 C144.277934,467.499781 143.871779,467.108368 143.652455,466.592649 C143.434147,466.075903 143.450393,465.528336 143.702209,464.952004 C143.95301,464.375673 144.342919,463.988369 144.873966,463.79215 C145.403999,463.593875 145.966524,463.627777 146.560525,463.892828 C147.155542,464.157879 147.558651,464.555455 147.771883,465.08453" id="Fill-61" fill="#FD0079"></path>
                <path d="M137.340875,436.697035 C136.192049,436.897735 135.187334,437.46112 134.327745,438.386173 C133.728975,439.051437 132.990154,440.20979 132.111282,441.86429 C131.193845,443.590104 130.646834,444.851354 130.468218,445.649059 C130.157669,446.86854 130.245963,448.014668 130.731068,449.091519 C131.218202,450.16837 132.058509,451.026183 133.251989,451.665977 C134.39777,452.279283 135.545581,452.486096 136.694407,452.285396 C137.844247,452.084696 138.848963,451.523348 139.708552,450.598295 C140.269772,450.005365 141.007578,448.844974 141.925015,447.11916 C142.842451,445.393346 143.390478,444.132095 143.569094,443.335409 C143.878627,442.11491 143.790334,440.966744 143.305229,439.890912 C142.818095,438.814061 141.978802,437.956248 140.785323,437.317472 C139.638527,436.703148 138.491731,436.497354 137.340875,436.697035 M145.72162,438.805911 C146.480738,440.352419 146.684725,442.03137 146.333583,443.845818 C146.081896,445.126425 145.465874,446.690253 144.484501,448.536284 C143.517336,450.356844 142.584676,451.737292 141.687536,452.673551 C140.395615,453.952121 138.898691,454.705 137.196764,454.933207 C135.496868,455.161413 133.76348,454.802803 131.994573,453.857374 C130.276409,452.935378 129.03726,451.702653 128.279157,450.158182 C127.521053,448.611673 127.316051,446.962268 127.665164,445.208946 C127.941207,443.880456 128.558244,442.316628 129.513231,440.519499 C130.494604,438.67245 131.444517,437.287928 132.364998,436.364912 C133.671128,435.062911 135.174141,434.297807 136.875053,434.068581 C138.576979,433.840374 140.274846,434.179628 141.969669,435.08838 C143.71219,436.022602 144.963517,437.261439 145.72162,438.805911" id="Fill-63" fill="#FD0079"></path>
                <path d="M106.624411,435.996705 C106.264529,434.182251 106.686777,432.365718 107.887067,430.549186 L115.347469,419.267563 C115.545813,418.968272 115.791187,418.920469 116.085636,419.121035 L117.612069,420.165438 C117.906518,420.366004 117.954571,420.615414 117.757249,420.913666 L110.615834,431.712058 C109.76418,433.000673 109.450306,434.295524 109.671143,435.599728 C109.893002,436.903932 110.604587,437.966 111.802832,438.784895 C112.957114,439.572613 114.13491,439.89165 115.333155,439.743043 C116.532422,439.594437 117.546636,439.017677 118.373752,438.013804 L125.971154,426.526419 C126.168476,426.228167 126.414873,426.179324 126.709322,426.378851 L128.236777,427.423254 C128.530204,427.62382 128.579279,427.874269 128.379912,428.172521 L117.429061,444.732272 C117.232761,445.030524 116.986365,445.079367 116.691915,444.8788 L115.165483,443.835437 C114.870011,443.63487 114.822981,443.384422 115.020303,443.08513 L115.863777,441.810024 C115.909785,441.740397 115.922053,441.673888 115.898538,441.60634 C115.877068,441.541909 115.83106,441.535674 115.76256,441.589712 C113.854775,442.290137 111.882579,441.944082 109.845972,440.552585 C108.058829,439.331517 106.985316,437.813237 106.624411,435.996705" id="Fill-65" fill="#FD0079"></path>
                <path d="M38.1198768,313.888187 L11.8110505,322.955372 C11.4723721,323.072647 11.2469296,322.957485 11.1326642,322.610941 L10.5428079,320.807436 C10.429572,320.460892 10.5417785,320.227398 10.8804569,320.112236 L37.1892833,311.043994 C37.5279617,310.926719 37.7534041,311.042938 37.8666401,311.389481 L38.4575258,313.192987 C38.5707617,313.539531 38.4585552,313.771968 38.1198768,313.888187" id="Fill-67" fill="#FD0079"></path>
                <path d="M15.7432963,301.129722 L16.932728,305.499059 C16.9691817,305.632973 17.0545874,305.680725 17.1889453,305.64543 L28.9291154,302.467825 C30.2154098,302.120063 31.0413462,301.587521 31.4079661,300.872274 C31.7745861,300.157028 31.7902091,299.184334 31.4558767,297.954193 L31.2152823,297.073889 C31.1215443,296.726128 31.2486114,296.505014 31.5964838,296.411585 L33.0035961,296.030605 C33.3525099,295.936138 33.586855,296.058633 33.7087145,296.399128 L34.0795006,297.762145 C34.6033921,299.684695 34.6377627,301.238722 34.183654,302.423187 C33.7295452,303.607652 32.5234489,304.465117 30.5664067,304.994545 L17.9419743,308.409874 C17.8076164,308.445169 17.7586644,308.530293 17.795118,308.664207 L18.4169138,310.949051 C18.5116934,311.295775 18.3856678,311.516889 18.0367539,311.611355 L16.7098397,311.969498 C16.3619674,312.063964 16.1401207,311.937317 16.0453411,311.589555 L15.4225038,309.306787 C15.3870917,309.172873 15.3016859,309.124082 15.167328,309.160416 L10.664777,310.3781 C10.3169046,310.472566 10.0940164,310.346957 9.99923679,309.998157 L9.53054654,308.27596 C9.43576695,307.928198 9.56283409,307.707084 9.91070641,307.613656 L14.414299,306.394934 C14.5486569,306.3586 14.597609,306.273477 14.5611553,306.139563 L13.3717236,301.772302 C13.276944,301.425578 13.4040111,301.203426 13.7518834,301.10896 L15.0787976,300.750817 C15.4277115,300.656351 15.6495582,300.782998 15.7432963,301.129722" id="Fill-69" fill="#FD0079"></path>
                <path d="M13.9631506,289.798453 C14.831483,290.552243 15.8863383,290.956511 17.124555,291.012308 C17.708361,291.075475 18.6683741,291.013361 20.0045944,290.822808 C20.1426423,290.797541 20.1984938,290.716477 20.1732026,290.57751 L18.2015401,279.936016 C18.1762488,279.798102 18.0940523,279.741252 17.9560043,279.766518 C16.7504555,280.047611 15.8821231,280.293961 15.3488995,280.50557 C14.1623191,281.040382 13.2887177,281.837336 12.7270415,282.896432 C12.1664192,283.957633 12.0167794,285.191491 12.2770683,286.598004 C12.5331421,287.97925 13.0948182,289.045716 13.9631506,289.798453 M27.293739,280.07393 C26.5887458,279.276976 25.7077678,278.719003 24.6476435,278.401064 C24.5001113,278.371586 24.385247,278.292627 24.3041043,278.165241 C24.2229616,278.036802 24.2113697,277.896782 24.268275,277.743076 L24.708764,276.419733 C24.841543,276.052313 25.0607337,275.925979 25.3673899,276.040732 C26.8722184,276.448158 28.1546948,277.238795 29.214819,278.412644 C30.2759971,279.587546 30.9746675,281.085651 31.3129377,282.906959 C31.6701764,284.839862 31.5163214,286.552734 30.8503189,288.045576 C30.1843164,289.53947 29.0894167,290.727005 27.5666736,291.608181 C26.2820896,292.388291 24.4242376,293.003114 21.9920639,293.452651 C20.8044297,293.672681 19.8539007,293.82744 19.141531,293.915874 C18.4291612,294.00536 17.7536745,294.023257 17.1150708,293.969565 C15.2329814,293.832704 13.6206652,293.153661 12.2791759,291.930332 C10.9376867,290.708055 10.0809461,289.089933 9.70684657,287.07386 C9.26214236,284.67247 9.53507694,282.673242 10.5256503,281.077229 C11.5151699,279.480162 13.1085177,278.279994 15.3025323,277.473565 C16.1561115,277.145098 17.5218381,276.806103 19.4007661,276.459738 C19.7601124,276.39236 19.9729803,276.53975 20.0393698,276.897695 L22.4947272,290.147976 C22.5200184,290.286943 22.6022149,290.34274 22.7402629,290.317474 C24.1217966,290.061648 25.1155314,289.792137 25.7193596,289.508939 C26.9069939,288.97518 27.7763801,288.150854 28.3264644,287.034907 C28.8776026,285.920014 29.0145968,284.616673 28.7385008,283.12699 C28.4803194,281.888922 27.9987322,280.871937 27.293739,280.07393" id="Fill-71" fill="#FD0079"></path>
                <path d="M6.8052843,260.364199 C6.88857475,260.07998 7.09992424,259.961124 7.43933279,260.010733 L9.30399755,260.243276 C9.64444723,260.292885 9.77667081,260.501657 9.70170941,260.868558 C9.58718505,261.405991 9.58614392,262.085016 9.69546263,262.904601 C9.89327742,264.325696 10.5429429,265.453271 11.644459,266.285258 C12.7470162,267.119312 14.0713342,267.459341 15.617413,267.307413 L27.718473,266.11576 C28.0787042,266.08062 28.2754779,266.24185 28.3108763,266.597382 L28.4951564,268.449457 C28.531596,268.806023 28.3691796,269.001359 28.0110307,269.036499 L8.11814989,270.995027 C7.76000099,271.030166 7.56218619,270.86997 7.52574662,270.513404 L7.34146652,268.662363 C7.30502695,268.305797 7.46744331,268.109428 7.82663334,268.074288 L10.1473133,267.845879 C10.2576731,267.83451 10.3180587,267.808672 10.3274289,267.765264 C10.3378402,267.72289 10.2982772,267.679482 10.2097811,267.631939 C9.15719815,267.153418 8.31075904,266.496097 7.66942264,265.659976 C7.02704511,264.822821 6.64911473,263.828571 6.53354924,262.676192 C6.44401201,261.770825 6.53459037,261.000849 6.8052843,260.364199" id="Fill-73" fill="#FD0079"></path>
                <path d="M23.6016684,244.915747 C22.7526785,243.698778 21.6270042,243.103036 20.2246455,243.128522 L16.9843867,243.186928 C16.8444664,243.189052 16.7750323,243.261263 16.7781884,243.4025 L16.8560388,247.861535 C16.8897038,249.730528 17.2947361,251.224661 18.0721878,252.343933 C18.8485875,253.463205 19.9111399,254.010097 21.257741,253.985673 C22.4917746,253.963373 23.4165108,253.507806 24.0319495,252.618972 C24.6484403,251.730138 24.9430093,250.605557 24.9198646,249.246289 C24.8904077,247.575876 24.4517103,246.132716 23.6016684,244.915747 M7.33304442,242.446765 C8.598639,241.021657 10.2976708,240.291051 12.4290878,240.25176 L26.440051,239.999921 C26.8051061,239.993711 26.9902637,240.175301 26.9965759,240.542728 L27.0302409,242.454198 C27.0376052,242.821625 26.8577077,243.009586 26.4937046,243.015958 L24.9787784,243.042506 C24.8946158,243.04463 24.8388581,243.074364 24.8115053,243.130646 C24.7852045,243.189052 24.8136094,243.244273 24.898824,243.299493 C25.7267732,244.049214 26.3600965,244.993268 26.800898,246.132716 C27.2416994,247.272165 27.4741985,248.520992 27.4983952,249.88026 C27.5331123,251.862879 27.0575938,253.535416 26.0718397,254.897869 C25.0860857,256.261385 23.555379,256.961195 21.4786677,256.998362 C19.3746035,257.036592 17.6997685,256.294304 16.4520584,254.773624 C15.2054004,253.251881 14.5573487,251.118468 14.5079032,248.37126 L14.4216365,243.444977 C14.4184804,243.303741 14.3479943,243.234715 14.207022,243.236839 L12.6510666,243.264449 C11.2203029,243.289935 10.0988367,243.713645 9.28561595,244.535577 C8.47239515,245.357509 8.07998719,246.618017 8.11049612,248.317102 C8.13364082,249.647698 8.4050651,250.732988 8.92476894,251.574035 C9.44447279,252.41402 10.1556465,252.939674 11.057238,253.148874 C11.3949403,253.228519 11.5401207,253.437718 11.4896231,253.778597 L11.2739566,255.865285 C11.2245111,256.233774 11.0730184,256.406869 10.8205307,256.382444 C9.27193953,256.127582 8.00844901,255.279101 7.02900715,253.838065 C6.04956528,252.397029 5.54143379,250.586442 5.50250861,248.406304 C5.45727123,245.857677 6.06744983,243.871872 7.33304442,242.446765" id="Fill-75" fill="#FD0079"></path>
                <path d="M9.85119536,224.641068 L9.5672381,229.030737 C9.5588556,229.16388 9.62381999,229.235494 9.76317909,229.243564 L21.9785802,229.975848 C23.3166371,230.05654 24.2764336,229.825558 24.8579697,229.279875 C25.438458,228.73621 25.7695668,227.846576 25.8492006,226.610972 L25.9068303,225.724364 C25.9288344,225.376378 26.1226797,225.211967 26.4841751,225.234158 L27.9479695,225.321911 C28.3115606,225.343092 28.4949278,225.530702 28.5001669,225.880706 L28.4111028,227.249451 C28.2864131,229.182036 27.8159451,230.623405 26.9976034,231.570532 C26.1803094,232.519677 24.7542362,232.932217 22.7183361,232.81017 L9.5840031,232.02241 C9.44464401,232.014341 9.3702493,232.076877 9.36081899,232.211029 L9.21307739,234.506729 C9.19002551,234.855724 8.99827577,235.019126 8.63468474,234.997944 L7.25471534,234.915234 C6.89217212,234.893044 6.72242645,234.707451 6.74443052,234.358456 L6.89321993,232.062756 C6.90265025,231.929614 6.83768586,231.85699 6.69727895,231.848921 L2.0125081,231.568515 C1.64996488,231.547333 1.4791714,231.36174 1.50222328,231.011737 L1.61433925,229.280884 C1.63634332,228.931889 1.83018868,228.768487 2.19168408,228.789669 L6.87750274,229.071084 C7.01686184,229.079153 7.09020873,229.016616 7.09963905,228.881456 L7.38359631,224.492796 C7.40560037,224.144809 7.59839792,223.980399 7.96094114,224.00158 L9.34091054,224.08429 C9.70345376,224.106481 9.87319942,224.292073 9.85119536,224.641068" id="Fill-77" fill="#FD0079"></path>
                <path d="M28.6713135,218.992783 L8.88421854,216.569105 C8.52717066,216.525483 8.36940532,216.319076 8.41196045,215.954141 L8.63407744,214.051798 C8.67663256,213.6858 8.87695303,213.524079 9.2340009,213.567701 L29.0210958,215.992444 C29.3791816,216.036066 29.535909,216.241408 29.4933539,216.607407 L29.2712369,218.508686 C29.2286818,218.875749 29.0283613,219.036405 28.6713135,218.992783 M3.978962,216.138205 C3.53161423,216.512715 2.9918907,216.661668 2.35875348,216.582936 C1.72769212,216.506331 1.2440168,216.231832 0.907727529,215.76263 C0.572476182,215.292364 0.443772879,214.719959 0.522655549,214.044351 C0.602576149,213.367678 0.858944825,212.842087 1.29279951,212.466513 C1.72665419,212.092002 2.26015014,211.941985 2.8912115,212.019653 C3.52331079,212.097322 4.01528954,212.370757 4.36403398,212.843151 C4.71277841,213.314481 4.84770929,213.88795 4.76882662,214.564622 C4.69098188,215.240231 4.4273477,215.765822 3.978962,216.138205" id="Fill-79" fill="#FD0079"></path>
                <path d="M29.3069583,197.993617 C28.7600118,196.927704 27.8979652,196.108492 26.7218722,195.542225 C25.8830103,195.152917 24.5119557,194.775059 22.6087085,194.407611 C20.6232613,194.023508 19.2089989,193.862163 18.3659216,193.92566 C17.0654747,193.984993 15.956828,194.414897 15.0389275,195.21225 C14.1220808,196.010644 13.5277113,197.09113 13.2579265,198.452667 C12.9986802,199.760076 13.1430572,200.948819 13.6900036,202.015773 C14.2380039,203.083768 15.0989967,203.900898 16.2750897,204.468205 C17.0328055,204.840859 18.4028062,205.217675 20.3882534,205.60282 C22.3737007,205.986923 23.7890168,206.148267 24.6310403,206.08373 C25.9314872,206.025438 27.0411878,205.596574 27.9580345,204.797139 C28.8748811,203.999787 29.4681968,202.91826 29.7390354,201.556722 C29.9982817,200.249314 29.8549586,199.061612 29.3069583,197.993617 M29.7643277,206.843609 C28.4659886,208.050048 26.8662492,208.751635 24.9651098,208.948371 C23.6214552,209.085774 21.8878773,208.94733 19.7633223,208.537203 C17.668275,208.13124 16.0211126,207.629512 14.821835,207.029936 C13.1662418,206.143063 11.9659104,204.900192 11.2229485,203.29924 C10.4820942,201.69933 10.3103172,199.891233 10.7097251,197.874951 C11.0985946,195.913838 11.9427258,194.330582 13.2410649,193.124144 C14.5394041,191.919787 16.1085819,191.226527 17.9485983,191.044364 C19.3481067,190.919452 21.0827384,191.056855 23.1503857,191.457614 C25.2749407,191.86774 26.9326416,192.386124 28.1255961,193.013805 C29.810697,193.904841 31.0236746,195.151876 31.7655827,196.751787 C32.5085446,198.352738 32.6876986,200.119197 32.3040983,202.052205 C31.9089058,204.042465 31.0637208,205.639252 29.7643277,206.843609" id="Fill-82" fill="#FD0079"></path>
                <path d="M20.1546859,168.776644 C21.8152234,167.882837 23.7129805,167.760282 25.8468982,168.408979 L39.0962503,172.43956 C39.4478437,172.546268 39.5696305,172.77553 39.4626699,173.125235 L38.9066864,174.944543 C38.7997257,175.295304 38.5709782,175.416803 38.2193848,175.310095 L25.5376654,171.451725 C24.0243313,170.992143 22.6666724,171.065042 21.462571,171.670422 C20.2584695,172.276858 19.438791,173.29322 19.0024763,174.722676 C18.5820468,176.097194 18.6265255,177.35444 19.1337943,178.49547 C19.6410631,179.636499 20.5083974,180.466916 21.7368562,180.988831 L35.229782,185.092312 C35.5813754,185.199019 35.7031623,185.428282 35.5962016,185.777986 L35.0402181,187.596238 C34.9332575,187.948055 34.70451,188.069554 34.3529166,187.96179 L14.9040835,182.047453 C14.5524901,181.939689 14.4307032,181.711483 14.5376638,181.360722 L15.0936474,179.541414 C15.200608,179.191709 15.4304145,179.070211 15.7809489,179.176918 L17.2805159,179.632273 C17.3610011,179.65763 17.4298372,179.649178 17.487024,179.606917 C17.5442109,179.565713 17.5357388,179.519227 17.4626667,179.467458 C16.2045554,177.788665 15.9461554,175.736925 16.6874668,173.31118 C17.3377028,171.182315 18.4941485,169.671507 20.1546859,168.776644" id="Fill-84" fill="#FD0079"></path>
                <path d="M40.5001669,145.999767 C60.872965,103.493343 94.2642855,68.4331637 135.500167,45.9997669" id="Stroke-86" stroke="#1D1D1B" stroke-width="3.905"></path>
                <path d="M91.5001669,409.999767 C69.2764889,389.613986 51.1500364,364.820781 38.5001669,336.999767" id="Stroke-88" stroke="#1D1D1B" stroke-width="3.905"></path>
                <path d="M431.500167,366.999767 C420.79882,383.266703 408.005997,398.058773 393.500167,410.999767" id="Stroke-90" stroke="#1D1D1B" stroke-width="3.905"></path>
                <path d="M351.500167,45.9997669 C383.854462,63.6748565 411.360994,89.1854239 431.500167,119.999767" id="Stroke-92" stroke="#1D1D1B" stroke-width="3.905"></path>
            </g>
        </g>
    </g>
</svg>