<svg width="15" height="15" viewBox="0 0 15 15" fill="none" xmlns="http://www.w3.org/2000/svg">
<path d="M7.5 0.967742C11.0988 0.967742 14.0323 3.93145 14.0323 7.5C14.0323 11.129 11.0685 14.0323 7.5 14.0323C3.87097 14.0323 0.967742 11.0988 0.967742 7.5C0.967742 3.90121 3.90121 0.967742 7.5 0.967742ZM7.5 0C3.35685 0 0 3.3871 0 7.5C0 11.6431 3.35685 15 7.5 15C11.6129 15 15 11.6431 15 7.5C15 3.3871 11.6129 0 7.5 0ZM6.53226 3.78024V11.25C4.89919 10.8569 3.62903 9.34476 3.62903 7.5C3.62903 5.68548 4.89919 4.17339 6.53226 3.78024ZM7.5 2.66129C4.80847 2.66129 2.66129 4.83871 2.66129 7.5C2.66129 10.1915 4.80847 12.3387 7.5 12.3387V2.66129Z" fill="#F5F2F5"/>
</svg>
